<svg width="32" height="34" viewBox="0 0 32 34" fill="none" xmlns="http://www.w3.org/2000/svg">
<path d="M31.62 10.26C31.62 9.36531 30.935 8.64 30.09 8.64C29.245 8.64 28.56 9.36531 28.56 10.26H31.62ZM13.77 30.24C12.925 30.24 12.24 30.9653 12.24 31.86C12.24 32.7547 12.925 33.48 13.77 33.48V30.24ZM28.56 10.26C28.56 11.1547 29.245 11.88 30.09 11.88C30.935 11.88 31.62 11.1547 31.62 10.26H28.56ZM13.77 0C12.925 0 12.24 0.725307 12.24 1.62C12.24 2.51469 12.925 3.24 13.77 3.24V0ZM30.09 11.88C30.935 11.88 31.62 11.1547 31.62 10.26C31.62 9.36531 30.935 8.64 30.09 8.64V11.88ZM13.77 8.64C12.925 8.64 12.24 9.36531 12.24 10.26C12.24 11.1547 12.925 11.88 13.77 11.88V8.64ZM3.06 16.74C3.06 15.8453 2.37499 15.12 1.53 15.12C0.685012 15.12 0 15.8453 0 16.74H3.06ZM13.77 33.48C14.615 33.48 15.3 32.7547 15.3 31.86C15.3 30.9653 14.615 30.24 13.77 30.24V33.48ZM0 16.74C0 17.6347 0.685012 18.36 1.53 18.36C2.37499 18.36 3.06 17.6347 3.06 16.74H0ZM13.77 3.24C14.615 3.24 15.3 2.51469 15.3 1.62C15.3 0.725307 14.615 0 13.77 0V3.24ZM1.53 15.12C0.685012 15.12 0 15.8453 0 16.74C0 17.6347 0.685012 18.36 1.53 18.36V15.12ZM13.77 18.36C14.615 18.36 15.3 17.6347 15.3 16.74C15.3 15.8453 14.615 15.12 13.77 15.12V18.36ZM15.3 16.74C15.3 15.8453 14.615 15.12 13.77 15.12C12.925 15.12 12.24 15.8453 12.24 16.74H15.3ZM12.24 31.86C12.24 32.7547 12.925 33.48 13.77 33.48C14.615 33.48 15.3 32.7547 15.3 31.86H12.24ZM12.24 16.74C12.24 17.6347 12.925 18.36 13.77 18.36C14.615 18.36 15.3 17.6347 15.3 16.74H12.24ZM15.3 10.26C15.3 9.36531 14.615 8.64 13.77 8.64C12.925 8.64 12.24 9.36531 12.24 10.26H15.3ZM15.3 1.62C15.3 0.725307 14.615 0 13.77 0C12.925 0 12.24 0.725307 12.24 1.62H15.3ZM12.24 10.26C12.24 11.1547 12.925 11.88 13.77 11.88C14.615 11.88 15.3 11.1547 15.3 10.26H12.24ZM28.56 10.26V23.22H31.62V10.26H28.56ZM28.56 23.22C28.56 27.097 25.5916 30.24 21.93 30.24V33.48C27.2817 33.48 31.62 28.8865 31.62 23.22H28.56ZM21.93 30.24H13.77V33.48H21.93V30.24ZM31.62 10.26C31.62 4.59356 27.2817 0 21.93 0V3.24C25.5916 3.24 28.56 6.38295 28.56 10.26H31.62ZM21.93 0H13.77V3.24H21.93V0ZM30.09 8.64H13.77V11.88H30.09V8.64ZM0 16.74V23.22H3.06V16.74H0ZM0 23.22C0 28.8865 4.33837 33.48 9.69 33.48V30.24C6.02834 30.24 3.06 27.097 3.06 23.22H0ZM9.69 33.48H13.77V30.24H9.69V33.48ZM3.06 16.74V10.26H0V16.74H3.06ZM3.06 10.26C3.06 6.38295 6.02834 3.24 9.69 3.24V0C4.33837 0 0 4.59356 0 10.26H3.06ZM9.69 3.24H13.77V0H9.69V3.24ZM1.53 18.36H13.77V15.12H1.53V18.36ZM12.24 16.74V31.86H15.3V16.74H12.24ZM15.3 16.74V10.26H12.24V16.74H15.3ZM12.24 1.62V10.26H15.3V1.62H12.24Z" fill="#F5EFED"/>
</svg>
