<svg width="44" height="39" viewBox="0 0 44 39" fill="none" xmlns="http://www.w3.org/2000/svg">
<path fill-rule="evenodd" clip-rule="evenodd" d="M21.6157 38.3883C33.5266 38.3883 43.1826 29.8686 43.1826 19.3591C43.1826 8.84952 33.5266 0.329834 21.6157 0.329834C9.70464 0.329834 0.0488281 8.84952 0.0488281 19.3591C0.0488281 29.8686 9.70464 38.3883 21.6157 38.3883ZM23.2332 13.6503C23.2332 12.8621 22.509 12.2231 21.6157 12.2231C20.7224 12.2231 19.9982 12.8621 19.9982 13.6503V17.9319H15.1456C14.2523 17.9319 13.5281 18.5709 13.5281 19.3591C13.5281 20.1473 14.2523 20.7863 15.1456 20.7863H19.9982V25.0679C19.9982 25.8561 20.7224 26.4951 21.6157 26.4951C22.509 26.4951 23.2332 25.8561 23.2332 25.0679V20.7863H28.0858C28.9791 20.7863 29.7033 20.1473 29.7033 19.3591C29.7033 18.5709 28.9791 17.9319 28.0858 17.9319H23.2332V13.6503Z" fill="#12263A"/>
</svg>
