<svg width="37" height="31" viewBox="0 0 37 31" fill="none" xmlns="http://www.w3.org/2000/svg">
<path d="M3.70002 4.76837e-07C2.47729 4.76837e-07 1.48002 1.02422 1.48002 2.28V12.7775C2.43971 11.9225 3.65377 11.2308 5.18002 10.6875V7.6C5.18002 5.57828 8.54182 5.32 11.47 5.32C14.3982 5.32 17.76 5.57828 17.76 7.6V9.12C18.0086 9.11703 18.2456 9.12 18.5 9.12C18.7544 9.12 18.9914 9.11703 19.24 9.12V7.6C19.24 5.57828 22.6018 5.32 25.53 5.32C28.4582 5.32 31.82 5.57828 31.82 7.6V10.6637C33.3434 11.2041 34.5517 11.9106 35.52 12.7775V2.28C35.52 1.02422 34.5228 4.76837e-07 33.3 4.76837e-07H3.70002ZM18.5 10.64C4.37065 10.64 -0.0115397 13.3237 2.28085e-05 20.52H37C37.0116 13.2762 32.6294 10.64 18.5 10.64ZM2.28085e-05 22.04V30.4H5.18002V27.36C5.18002 26.2675 5.59627 25.84 6.66002 25.84H30.34C31.4038 25.84 31.82 26.2675 31.82 27.36V30.4H37V22.04H2.28085e-05Z" fill="#F5EFED"/>
</svg>
