<svg width="41" height="41" viewBox="0 0 41 41" fill="none" xmlns="http://www.w3.org/2000/svg">
<path d="M35.2441 38.2779C36.2379 39.2412 37.8489 39.2412 38.8428 38.2779C39.8366 37.3146 39.8366 35.752 38.8428 34.7893L32.2243 28.3745C31.2025 29.6967 29.9891 30.8721 28.625 31.8625L35.2441 38.2779Z" fill="#45AAB8"/>
<path d="M17.9548 31.6004C25.6856 31.6004 31.9526 25.5261 31.9526 18.0332C31.9526 10.5403 25.6856 4.46606 17.9548 4.46606C10.2241 4.46606 3.95703 10.5403 3.95703 18.0332C3.95703 25.5261 10.2241 31.6004 17.9548 31.6004Z" fill="#F9EBB2"/>
<path d="M17.955 1.99927C8.81886 1.99927 1.41211 9.17814 1.41211 18.0332C1.41211 26.8882 8.81886 34.0671 17.955 34.0671C27.0911 34.0671 34.4978 26.8882 34.4978 18.0332C34.4978 9.17814 27.0911 1.99927 17.955 1.99927ZM17.955 32.8337C9.52129 32.8337 2.68464 26.2074 2.68464 18.0332C2.68464 9.85897 9.52129 3.23265 17.955 3.23265C26.3886 3.23265 33.2253 9.85897 33.2253 18.0332C33.2253 26.2074 26.3886 32.8337 17.955 32.8337Z" fill="#F76D57"/>
<path d="M39.741 33.9172L32.9559 27.3408C34.7342 24.6539 35.7695 21.4619 35.7695 18.0332C35.7695 8.49668 27.7932 0.765869 17.9541 0.765869C8.11488 0.765869 0.138672 8.49668 0.138672 18.0332C0.138672 27.5696 8.11488 35.3004 17.9541 35.3004C21.4917 35.3004 24.785 34.2971 27.5572 32.5734L34.3423 39.1498C35.8337 40.5953 38.2502 40.5953 39.741 39.1498C41.2318 37.7043 41.2324 35.3627 39.741 33.9172ZM17.9541 34.0671C8.81795 34.0671 1.4112 26.8882 1.4112 18.0332C1.4112 9.17812 8.81795 1.99925 17.9541 1.99925C27.0902 1.99925 34.4969 9.17812 34.4969 18.0332C34.4969 26.8882 27.0902 34.0671 17.9541 34.0671ZM38.8413 38.2778C37.8475 39.2411 36.2358 39.2411 35.2426 38.2778L28.6236 31.8624C29.9884 30.872 31.2011 29.696 32.2229 28.3744L38.8413 34.7892C39.8358 35.7519 39.8358 37.3145 38.8413 38.2778Z" fill="#394240"/>
<path d="M17.9539 3.23267C9.52025 3.23267 2.68359 9.85899 2.68359 18.0332C2.68359 26.2074 9.52025 32.8337 17.9539 32.8337C26.3876 32.8337 33.2243 26.2074 33.2243 18.0332C33.2243 9.85899 26.3876 3.23267 17.9539 3.23267ZM17.9539 31.6004C10.2233 31.6004 3.95612 25.526 3.95612 18.0332C3.95612 10.5404 10.2233 4.46604 17.9539 4.46604C25.6845 4.46604 31.9517 10.5404 31.9517 18.0332C31.9517 25.526 25.6845 31.6004 17.9539 31.6004Z" fill="#394240"/>
<path d="M17.9546 7.54956C17.6028 7.54956 17.3184 7.82522 17.3184 8.16625C17.3184 8.50728 17.6028 8.78294 17.9546 8.78294C23.2254 8.78294 27.4986 12.9246 27.4986 18.0333C27.4986 18.3743 27.783 18.65 28.1348 18.65C28.4867 18.65 28.7711 18.3743 28.7711 18.0333C28.7711 12.2432 23.9285 7.54956 17.9546 7.54956Z" fill="#394240"/>
</svg>
