<svg width="37" height="30" viewBox="0 0 37 30" fill="none" xmlns="http://www.w3.org/2000/svg">
<path d="M34.5002 18.9219C35.5024 19.6192 36.1583 20.779 36.1583 22.0942C36.1583 23.1586 35.7268 24.1239 35.0284 24.8224C34.3299 25.5208 33.3646 25.9535 32.2979 25.9535H1.31703L1.05469 25.843V9.80542H25.9015L28.3271 12.3771L28.3133 12.3897H21.8985V18.2338H32.2979C33.116 18.2338 33.8754 18.4881 34.5002 18.9219ZM18.9195 18.2338V12.3897H13.0742V18.2338H18.9195ZM10.0975 18.2338V12.3897H4.25231V18.2338H10.0975Z" fill="#F5EFED"/>
<path d="M28.327 3.37709L34.5002 9.92191C33.8537 9.47276 33.0851 9.23261 32.2979 9.23383H21.8984V3.38975H28.3132L28.327 3.37709Z" fill="#FFB578"/>
<path d="M13.0742 12.3897H18.9195V18.2338H13.0742V12.3897Z" fill="#FF4893"/>
<path d="M5.25195 10.3897H11.0972V16.2338H5.25195V10.3897Z" fill="#42BC90"/>
<path d="M32.298 26.7589H1.31716C1.21139 26.7589 1.10665 26.7381 1.00893 26.6976C0.911212 26.6571 0.822421 26.5978 0.747628 26.523C0.672836 26.4482 0.613507 26.3594 0.57303 26.2617C0.532552 26.1639 0.511719 26.0592 0.511719 25.9534C0.511719 25.8477 0.532552 25.7429 0.57303 25.6452C0.613507 25.5475 0.672836 25.4587 0.747628 25.3839C0.822421 25.3091 0.911212 25.2498 1.00893 25.2093C1.10665 25.1688 1.21139 25.148 1.31716 25.148H32.298C33.1143 25.148 33.8818 24.8301 34.4589 24.2528C35.0355 23.6763 35.3531 22.9098 35.3531 22.0942C35.3529 21.6008 35.2334 21.1148 35.0048 20.6776C34.7763 20.2404 34.4454 19.8649 34.0405 19.5831C33.529 19.2277 32.9208 19.0378 32.298 19.0393H27.7427C27.5291 19.0393 27.3242 18.9544 27.1731 18.8034C27.0221 18.6523 26.9372 18.4474 26.9372 18.2338C26.9372 18.0202 27.0221 17.8153 27.1731 17.6643C27.3242 17.5132 27.5291 17.4284 27.7427 17.4284H32.298C33.2554 17.4284 34.1758 17.716 34.9598 18.2603C35.5782 18.6905 36.0833 19.2638 36.4323 19.9313C36.7813 20.5989 36.9637 21.3409 36.964 22.0942C36.964 23.3401 36.4789 24.5112 35.5981 25.3919C34.7166 26.2734 33.5446 26.7589 32.298 26.7589Z" fill="#4F46A3"/>
<path d="M1.05545 26.6484C0.841828 26.6484 0.63696 26.5636 0.485909 26.4125C0.334859 26.2615 0.25 26.0566 0.25 25.843V9.80542C0.25 9.5918 0.334859 9.38693 0.485909 9.23588C0.63696 9.08483 0.841828 8.99997 1.05545 8.99997H25.9023C26.1159 8.99997 26.3208 9.08483 26.4718 9.23588C26.6229 9.38693 26.7077 9.5918 26.7077 9.80542C26.7077 10.019 26.6229 10.2239 26.4718 10.375C26.3208 10.526 26.1159 10.6109 25.9023 10.6109H1.86089V25.843C1.86089 26.0566 1.77603 26.2615 1.62498 26.4125C1.47393 26.5636 1.26906 26.6484 1.05545 26.6484Z" fill="#4F46A3"/>
<path d="M10.098 19.0393H4.25275C4.03913 19.0393 3.83427 18.9544 3.68322 18.8034C3.53217 18.6523 3.44731 18.4474 3.44731 18.2338V12.3897C3.44731 12.1761 3.53217 11.9712 3.68322 11.8202C3.83427 11.6691 4.03913 11.5843 4.25275 11.5843H10.098C10.3116 11.5843 10.5165 11.6691 10.6675 11.8202C10.8186 11.9712 10.9034 12.1761 10.9034 12.3897V18.2338C10.9034 18.4474 10.8186 18.6523 10.6675 18.8034C10.5165 18.9544 10.3116 19.0393 10.098 19.0393ZM5.0582 17.4284H9.29254V13.1952H5.0582V17.4284ZM18.9199 19.0393H13.0747C12.8611 19.0393 12.6562 18.9544 12.5051 18.8034C12.3541 18.6523 12.2692 18.4474 12.2692 18.2338V12.3897C12.2692 12.284 12.2901 12.1792 12.3305 12.0815C12.371 11.9838 12.4304 11.895 12.5051 11.8202C12.5799 11.7454 12.6687 11.6861 12.7664 11.6456C12.8642 11.6051 12.9689 11.5843 13.0747 11.5843H18.9199C19.1335 11.5843 19.3384 11.6691 19.4894 11.8202C19.6405 11.9712 19.7254 12.1761 19.7254 12.3897V18.2338C19.7254 18.4474 19.6405 18.6523 19.4894 18.8034C19.3384 18.9544 19.1335 19.0393 18.9199 19.0393ZM13.8801 17.4284H18.1145V13.1952H13.8801V17.4284ZM27.743 19.0393H21.8989C21.6853 19.0393 21.4804 18.9544 21.3294 18.8034C21.1783 18.6523 21.0935 18.4474 21.0935 18.2338V12.3897C21.0935 12.1761 21.1783 11.9712 21.3294 11.8202C21.4804 11.6691 21.6853 11.5843 21.8989 11.5843H28.3137C28.5273 11.5843 28.7322 11.6691 28.8832 11.8202C29.0343 11.9712 29.1192 12.1761 29.1192 12.3897C29.1192 12.6034 29.0343 12.8082 28.8832 12.9593C28.7322 13.1103 28.5273 13.1952 28.3137 13.1952H22.7044V17.4284H27.743C27.9566 17.4284 28.1615 17.5132 28.3125 17.6643C28.4636 17.8153 28.5484 18.0202 28.5484 18.2338C28.5484 18.4474 28.4636 18.6523 28.3125 18.8034C28.1615 18.9544 27.9566 19.0393 27.743 19.0393ZM31.7472 29.6263H0.805445C0.591828 29.6263 0.38696 29.5414 0.235909 29.3904C0.0848592 29.2393 0 29.0344 0 28.8208C0 28.6072 0.0848592 28.4023 0.235909 28.2513C0.38696 28.1002 0.591828 28.0154 0.805445 28.0154H31.7472C31.9608 28.0154 32.1657 28.1002 32.3167 28.2513C32.4678 28.4023 32.5527 28.6072 32.5527 28.8208C32.5527 29.0344 32.4678 29.2393 32.3167 29.3904C32.1657 29.5414 31.9608 29.6263 31.7472 29.6263Z" fill="#4F46A3"/>
<path d="M34.5794 10.8113C34.4697 10.8115 34.3612 10.7892 34.2604 10.7458C34.1597 10.7024 34.0689 10.6388 33.9937 10.559L25.3152 1.35806C25.1686 1.20264 25.0898 0.995363 25.0961 0.781832C25.0992 0.676102 25.1231 0.572018 25.1664 0.475524C25.2097 0.37903 25.2716 0.292016 25.3486 0.219448C25.4255 0.146881 25.516 0.0901817 25.6149 0.0525882C25.7138 0.0149947 25.8191 -0.00275701 25.9248 0.000346877C26.1383 0.00661547 26.3406 0.0974521 26.4872 0.252874L35.1648 9.4529C35.3115 9.60823 35.3904 9.81543 35.3844 10.029C35.3783 10.2425 35.2876 10.4449 35.1324 10.5916C34.9829 10.7329 34.785 10.8115 34.5794 10.8113Z" fill="#4F46A3"/>
</svg>
