<svg width="37" height="31" viewBox="0 0 37 31" fill="none" xmlns="http://www.w3.org/2000/svg">
<path d="M13.9446 0.342068L24.6002 12.0916L13.3846 30.1024L12.3223 26.5985L15.5092 20.6838L14.801 12.0916L16.427 9.54744L11.8164 0.623903L13.9446 0.342068Z" fill="#8599A4"/>
<path d="M13.3836 30.4452C13.3692 30.4452 13.3547 30.4452 13.3403 30.4414C13.2174 30.4223 13.1126 30.3309 13.0729 30.2053L12.0106 26.7013C11.9817 26.6099 11.9925 26.5109 12.0359 26.4271L15.1758 20.6038L14.4749 12.1182C14.4676 12.0421 14.4893 11.9621 14.5291 11.8973L16.043 9.5284L11.53 0.787674C11.4794 0.68865 11.4758 0.566775 11.5264 0.467752C11.577 0.368728 11.6673 0.296365 11.7757 0.28494L13.904 0.00310334C14.0051 -0.012131 14.1099 0.0297634 14.1786 0.105935L24.8341 11.8554C24.9389 11.9697 24.9534 12.1487 24.8703 12.282L13.6546 30.2928C13.5932 30.3881 13.492 30.4452 13.3836 30.4452ZM12.6718 26.6366L13.4848 29.314L24.1837 12.1297L13.8208 0.703885L12.3286 0.901932L16.7079 9.38367C16.7657 9.49412 16.7584 9.63123 16.6934 9.73787L15.1361 12.183L15.8334 20.6533C15.8407 20.7219 15.8262 20.7904 15.7937 20.8513L12.6718 26.6366Z" fill="#3E4152"/>
<path d="M29.6068 12.8589C29.2744 12.8589 28.9709 12.996 28.7469 13.2207C28.5229 12.996 28.2193 12.8589 27.8869 12.8589C27.1968 12.8589 26.6367 13.4492 26.6367 14.1767C26.6367 14.9041 28.4397 16.4504 28.7469 16.4504C29.054 16.4504 30.857 14.9041 30.857 14.1767C30.857 13.4492 30.297 12.8589 29.6068 12.8589Z" fill="#9B5C77"/>
<path d="M28.7479 16.797C28.354 16.797 27.5193 16.001 27.3567 15.841C26.4932 14.9993 26.3125 14.4737 26.3125 14.1805C26.3125 13.2626 27.0207 12.5199 27.8879 12.5199C28.195 12.5199 28.4949 12.6151 28.7479 12.7903C29.0008 12.6151 29.3007 12.5199 29.6078 12.5199C30.4786 12.5199 31.1832 13.2664 31.1832 14.1805C31.1832 14.4737 31.0025 14.9993 30.139 15.841C29.9764 15.9972 29.1417 16.797 28.7479 16.797ZM27.8879 13.2017C27.3784 13.2017 26.9629 13.6396 26.9629 14.1767C26.9629 14.2871 27.1255 14.6642 27.7361 15.2735C28.1842 15.7229 28.5925 16.0162 28.7479 16.0962C28.9032 16.02 29.3115 15.7229 29.7596 15.2735C30.3702 14.6603 30.5328 14.2871 30.5328 14.1767C30.5328 13.6396 30.1173 13.2017 29.6078 13.2017C29.3693 13.2017 29.1453 13.2969 28.9719 13.4721C28.8454 13.5977 28.6503 13.5977 28.5238 13.4721C28.3504 13.2969 28.1228 13.2017 27.8879 13.2017Z" fill="#3E4152"/>
<path d="M27.5697 14.2338C27.2373 14.2338 26.9338 14.3709 26.7098 14.5956C26.4857 14.3709 26.1822 14.2338 25.8498 14.2338C25.1597 14.2338 24.5996 14.8241 24.5996 15.5516C24.5996 16.279 26.4026 17.8253 26.7098 17.8253C27.0169 17.8253 28.8199 16.279 28.8199 15.5516C28.8199 14.8241 28.2599 14.2338 27.5697 14.2338Z" fill="#9B5C77"/>
<path d="M26.7088 18.1719C26.3149 18.1719 25.4803 17.3759 25.3177 17.2159C24.4541 16.3742 24.2734 15.8486 24.2734 15.5554C24.2734 14.6375 24.9816 13.8948 25.8488 13.8948C26.156 13.8948 26.4559 13.99 26.7088 14.1652C26.9617 13.99 27.2616 13.8948 27.5687 13.8948C28.4395 13.8948 29.1441 14.6413 29.1441 15.5554C29.1441 15.8486 28.9635 16.3742 28.0999 17.2159C27.9373 17.3759 27.1026 18.1719 26.7088 18.1719ZM25.8488 14.5766C25.3394 14.5766 24.9238 15.0145 24.9238 15.5516C24.9238 15.662 25.0864 16.0391 25.6971 16.6484C26.1451 17.0978 26.5534 17.3911 26.7088 17.4711C26.8642 17.3949 27.2725 17.0978 27.7205 16.6484C28.3312 16.0353 28.4937 15.662 28.4937 15.5516C28.4937 15.0145 28.0782 14.5766 27.5687 14.5766C27.3303 14.5766 27.1062 14.6718 26.9328 14.847C26.8063 14.9727 26.6112 14.9727 26.4848 14.847C26.3113 14.6718 26.0873 14.5766 25.8488 14.5766Z" fill="#3E4152"/>
<path d="M32.0491 9.47508H5.91064L2.86826 4.39061H0.711133L2.42383 10.8043C0.967676 11.2232 0.328125 11.924 0.328125 12.2363C0.328125 13.676 2.92246 14.7081 4.28828 14.7081H32.0527C33.4186 14.7081 35.9515 13.5312 35.9515 12.0916C35.9515 10.6519 33.4149 9.47508 32.0491 9.47508Z" fill="#C1E7D8"/>
<path d="M32.0498 15.0509H4.28535C2.81475 15.0509 0 13.954 0 12.2363C0 11.7336 0.69375 11.0252 2.02344 10.572L0.397461 4.48582C0.368555 4.38299 0.390234 4.27254 0.45166 4.18494C0.513086 4.10115 0.610645 4.04783 0.711816 4.04783H2.86895C2.98096 4.04783 3.08574 4.10877 3.14355 4.20779L6.08838 9.13231H32.0498C32.805 9.13231 33.8312 9.45223 34.6694 9.94354C35.7028 10.5529 36.2737 11.3146 36.2737 12.0878C36.2737 12.8609 35.7028 13.6226 34.6694 14.232C33.8312 14.7309 32.805 15.0509 32.0498 15.0509ZM0.654004 12.2477C0.668457 13.3408 2.92676 14.3653 4.28897 14.3653H32.0534C32.6966 14.3653 33.6216 14.0759 34.3551 13.6417C35.1645 13.1656 35.627 12.6019 35.627 12.0954C35.627 11.5888 35.1645 11.0252 34.3551 10.5491C33.6216 10.1149 32.693 9.82547 32.0534 9.82547H5.91133C5.79932 9.82547 5.69453 9.76453 5.63672 9.66551L2.68828 4.73338H1.1418L2.73887 10.7091C2.76416 10.7967 2.75332 10.8919 2.70996 10.9719C2.6666 11.0518 2.59795 11.109 2.51123 11.1318C1.22852 11.5051 0.697363 12.0802 0.654004 12.2477Z" fill="#3E4152"/>
</svg>
