<svg width="43" height="32" viewBox="0 0 43 32" fill="none" xmlns="http://www.w3.org/2000/svg">
<path d="M24.9688 13.8854C24.9688 12.8959 25.8455 12.0938 26.9271 12.0938C28.0087 12.0938 28.8854 12.8959 28.8854 13.8854V17.4688C28.8854 18.4583 28.0087 19.2604 26.9271 19.2604C25.8455 19.2604 24.9688 18.4583 24.9688 17.4688V13.8854Z" fill="#F5EFED" stroke="#1C274C" stroke-width="4"/>
<path d="M24.9955 24.6354L26.4642 24.6394V24.6354H24.9955ZM24.9955 6.71875H26.4642V6.71485L24.9955 6.71875ZM26.4529 28.2279L26.4642 24.6394L23.5267 24.6315L23.5154 28.22L26.4529 28.2279ZM26.9587 24.1875C27.2352 24.1875 27.4532 24.3912 27.4532 24.6354H30.3907C30.3907 22.9005 28.8507 21.5 26.9587 21.5V24.1875ZM26.9587 21.5C25.0668 21.5 23.5267 22.9005 23.5267 24.6354H26.4642C26.4642 24.3912 26.6822 24.1875 26.9587 24.1875V21.5ZM17.1256 2.6875H23.9997V1.15584e-06H17.1256V2.6875ZM23.0258 28.6667H17.1256V31.3542H23.0258V28.6667ZM17.1256 28.6667C13.3823 28.6667 10.7222 28.6638 8.70408 28.4162C6.72783 28.1738 5.58867 27.7189 4.75718 26.9599L2.68264 28.8627C4.15117 30.2028 6.01298 30.7975 8.31361 31.0799C10.5724 31.357 13.4651 31.3542 17.1256 31.3542V28.6667ZM17.1256 1.15584e-06C13.4651 1.15584e-06 10.5724 -0.00284757 8.31361 0.274305C6.01298 0.5566 4.15117 1.15124 2.68264 2.49146L4.75718 4.39417C5.58867 3.63533 6.72783 3.18044 8.70408 2.93796C10.7222 2.69035 13.3823 2.6875 17.1256 2.6875V1.15584e-06ZM2.61899 13.7215C3.37432 14.1074 3.87753 14.8404 3.87753 15.6771H6.81503C6.81503 13.8252 5.69591 12.2152 4.05122 11.375L2.61899 13.7215ZM2.95682 10.3397C3.10963 7.01427 3.60609 5.44468 4.75718 4.39417L2.68264 2.49146C0.666435 4.3315 0.176382 6.8654 0.0219088 10.2268L2.95682 10.3397ZM3.87753 15.6771C3.87753 16.5138 3.37432 17.2468 2.61899 17.6327L4.05122 19.9792C5.69591 19.1389 6.81503 17.529 6.81503 15.6771H3.87753ZM0.0219088 21.1273C0.176382 24.4889 0.666435 27.0226 2.68264 28.8627L4.75718 26.9599C3.60609 25.9095 3.10963 24.34 2.95682 21.0145L0.0219088 21.1273ZM38.2264 15.6771C38.2264 14.8404 38.7297 14.1074 39.485 13.7215L38.0527 11.375C36.4081 12.2152 35.2889 13.8252 35.2889 15.6771H38.2264ZM42.0821 10.2268C41.9276 6.8654 41.4374 4.3315 39.4213 2.49146L37.3467 4.39417C38.4978 5.44468 38.9944 7.01427 39.1472 10.3397L42.0821 10.2268ZM39.485 17.6327C38.7297 17.2468 38.2264 16.5138 38.2264 15.6771H35.2889C35.2889 17.529 36.4081 19.1389 38.0527 19.9792L39.485 17.6327ZM39.1472 21.0145C38.9944 24.34 38.4978 25.9095 37.3467 26.9599L39.4213 28.8627C41.4374 27.0226 41.9276 24.4889 42.0821 21.1273L39.1472 21.0145ZM38.0527 19.9792C38.6088 20.2632 38.9721 20.4494 39.2177 20.5911C39.3387 20.661 39.3924 20.6981 39.4084 20.7104C39.4368 20.7319 39.3379 20.6662 39.2433 20.5115L41.8066 19.1988C41.6444 18.9338 41.4271 18.7505 41.2823 18.6409C41.1255 18.5219 40.9512 18.414 40.7849 18.3182C40.4565 18.1286 40.0094 17.9007 39.485 17.6327L38.0527 19.9792ZM42.0821 21.1273C42.0962 20.8202 42.1121 20.5033 42.0994 20.2383C42.0864 19.9697 42.041 19.582 41.8066 19.1988L39.2433 20.5115C39.1442 20.3496 39.1589 20.2381 39.1646 20.3564C39.1671 20.4078 39.1675 20.4827 39.1642 20.5977C39.1611 20.7124 39.1548 20.8455 39.1472 21.0145L42.0821 21.1273ZM39.485 13.7215C40.0094 13.4534 40.4565 13.2255 40.7849 13.036C40.9512 12.9401 41.1255 12.8323 41.2823 12.7133C41.4271 12.6037 41.6444 12.4204 41.8066 12.1554L39.2433 10.8426C39.3379 10.6881 39.4368 10.6223 39.4084 10.6438C39.3924 10.656 39.3387 10.6932 39.2177 10.763C38.9721 10.9047 38.6088 11.0909 38.0527 11.375L39.485 13.7215ZM39.1472 10.3397C39.1548 10.5086 39.1611 10.6418 39.1642 10.7564C39.1675 10.8715 39.1671 10.9464 39.1646 10.9977C39.1589 11.116 39.1442 11.0045 39.2433 10.8426L41.8066 12.1554C42.041 11.7722 42.0864 11.3844 42.0994 11.1158C42.1121 10.8509 42.0962 10.534 42.0821 10.2268L39.1472 10.3397ZM2.61899 17.6327C2.09451 17.9007 1.64744 18.1286 1.31899 18.3182C1.15281 18.414 0.978496 18.5219 0.821555 18.6409C0.676814 18.7505 0.459596 18.9338 0.297368 19.1988L2.86059 20.5115C2.76604 20.6662 2.66711 20.7319 2.6955 20.7104C2.71168 20.6981 2.76536 20.661 2.88623 20.5911C3.13184 20.4494 3.49517 20.2632 4.05122 19.9792L2.61899 17.6327ZM2.95682 21.0145C2.94905 20.8455 2.94298 20.7124 2.93975 20.5977C2.9365 20.4827 2.93687 20.4078 2.93934 20.3564C2.94501 20.2381 2.95966 20.3496 2.86059 20.5115L0.297368 19.1988C0.0629751 19.582 0.0175808 19.9697 0.00467537 20.2383C-0.00807338 20.5033 0.00778918 20.8202 0.0219088 21.1273L2.95682 21.0145ZM4.05122 11.375C3.49517 11.0909 3.13184 10.9047 2.88621 10.763C2.76534 10.6932 2.71168 10.656 2.6955 10.6438C2.66711 10.6223 2.76606 10.6881 2.86061 10.8426L0.297368 12.1554C0.459577 12.4204 0.676795 12.6037 0.821535 12.7133C0.978496 12.8323 1.15281 12.9401 1.31897 13.036C1.64744 13.2255 2.09451 13.4534 2.61899 13.7215L4.05122 11.375ZM0.0219088 10.2268C0.00778918 10.534 -0.00807338 10.8509 0.00467537 11.1158C0.0175808 11.3844 0.0629751 11.7722 0.297368 12.1554L2.86061 10.8426C2.95968 11.0045 2.94501 11.116 2.93934 10.9977C2.93687 10.9464 2.9365 10.8715 2.93975 10.7564C2.94298 10.6418 2.94905 10.5086 2.95682 10.3397L0.0219088 10.2268ZM26.4642 6.71485L26.4499 2.23308L23.5124 2.24089L23.5267 6.72266L26.4642 6.71485ZM26.9587 7.16667C26.6822 7.16667 26.4642 6.96297 26.4642 6.71875H23.5267C23.5267 8.45355 25.0668 9.85417 26.9587 9.85417V7.16667ZM27.4532 6.71875C27.4532 6.96297 27.2352 7.16667 26.9587 7.16667V9.85417C28.8507 9.85417 30.3907 8.45355 30.3907 6.71875H27.4532ZM27.4532 2.26857V6.71875H30.3907V2.26857H27.4532ZM29.8809 2.72092C34.1662 2.82204 36.0875 3.24514 37.3467 4.39417L39.4213 2.49146C37.2427 0.503173 34.1609 0.133516 29.9567 0.0343116L29.8809 2.72092ZM30.3907 2.26857C30.3907 2.51908 30.1649 2.72762 29.8809 2.72092L29.9567 0.0343116C28.5777 0.00177494 27.4532 1.01829 27.4532 2.26857H30.3907ZM23.9997 2.6875C23.7345 2.6875 23.5132 2.4909 23.5124 2.24089L26.4499 2.23308C26.446 0.995612 25.3468 1.15584e-06 23.9997 1.15584e-06V2.6875ZM30.9715 31.2888C34.6426 31.1469 37.4099 30.6984 39.4213 28.8627L37.3467 26.9599C36.1967 28.0093 34.4789 28.4633 30.8476 28.6036L30.9715 31.2888ZM27.4532 24.6354V28.1766H30.3907V24.6354H27.4532ZM23.5154 28.22C23.5146 28.4355 23.514 28.6014 23.5097 28.743C23.5054 28.8854 23.4979 28.9698 23.4901 29.0216C23.4825 29.0723 23.4795 29.0553 23.5024 29.0048C23.5301 28.9435 23.5804 28.8668 23.6564 28.7975L25.7304 30.7006C26.1918 30.2795 26.3414 29.7791 26.4004 29.3871C26.4535 29.0336 26.4517 28.6111 26.4529 28.2279L23.5154 28.22ZM23.0258 31.3542C23.4447 31.3542 23.9064 31.357 24.2928 31.3096C24.7217 31.2569 25.2691 31.1214 25.7304 30.7006L23.6564 28.7975C23.7323 28.7281 23.8164 28.6823 23.8833 28.6572C23.9388 28.6364 23.9574 28.6391 23.9019 28.6459C23.8453 28.6529 23.7529 28.6595 23.5974 28.6631C23.4427 28.6667 23.2614 28.6667 23.0258 28.6667V31.3542ZM30.8476 28.6036C30.611 28.6127 30.4302 28.6197 30.2759 28.6219C30.121 28.624 30.0307 28.6208 29.9771 28.616C29.925 28.6113 29.9479 28.6084 30.0082 28.6294C30.0805 28.6547 30.1653 28.6998 30.2399 28.7652L28.2069 30.7052C28.6852 31.1247 29.2437 31.2504 29.6898 31.2906C30.0852 31.3262 30.5534 31.3049 30.9715 31.2888L30.8476 28.6036ZM27.4532 28.1766C27.4532 28.5687 27.4499 29.0024 27.5047 29.3649C27.566 29.7694 27.724 30.2817 28.2069 30.7052L30.2399 28.7652C30.3174 28.8333 30.3705 28.9109 30.4005 28.975C30.4252 29.0279 30.4222 29.0469 30.4144 28.9958C30.4065 28.9437 30.3989 28.8577 30.3948 28.712C30.3907 28.5672 30.3907 28.3974 30.3907 28.1766H27.4532Z" fill="#F5EFED"/>
</svg>
