<svg width="38" height="39" viewBox="0 0 38 39" fill="none" xmlns="http://www.w3.org/2000/svg">
<path d="M16.625 5.5H21.375C30.5247 5.5 30.8655 15.3856 30.875 16.5H7.125C7.125 16.0518 7.23425 5.5 16.625 5.5Z" fill="#957F29"/>
<path d="M33.25 27.5H28.5H9.5H4.75V22H9.5H28.5H33.25V27.5Z" fill="#394240"/>
<path d="M35.625 16.5C35.625 10.7931 32.6468 0 21.375 0H16.625C5.35325 0 2.375 10.7931 2.375 16.5C1.06222 16.5 0 17.7299 0 19.25V30.25C0 31.7701 1.06222 33 2.375 33H4.75V35.75C4.75 37.2701 5.81222 38.5 7.125 38.5H9.5C10.8128 38.5 11.875 37.2701 11.875 35.75V33H26.125V35.75C26.125 37.2701 27.1872 38.5 28.5 38.5H30.875C32.1878 38.5 33.25 37.2701 33.25 35.75V33H35.625C36.9378 33 38 31.7701 38 30.25V19.25C38 17.7299 36.9378 16.5 35.625 16.5ZM16.625 5.5H21.375C30.5247 5.5 30.8655 15.3856 30.875 16.5H7.125C7.125 16.0518 7.23425 5.5 16.625 5.5ZM33.25 27.5H28.5H9.5H4.75V22H9.5H28.5H33.25V27.5Z" fill="#F5EFED"/>
<path d="M27.5 26.2778C28.8117 26.2778 29.875 25.0466 29.875 23.5278C29.875 22.009 28.8117 20.7778 27.5 20.7778C26.1883 20.7778 25.125 22.009 25.125 23.5278C25.125 25.0466 26.1883 26.2778 27.5 26.2778Z" fill="#F5EFED"/>
<path d="M9.5 27.5C10.8117 27.5 11.875 26.2688 11.875 24.75C11.875 23.2312 10.8117 22 9.5 22C8.18832 22 7.125 23.2312 7.125 24.75C7.125 26.2688 8.18832 27.5 9.5 27.5Z" fill="#F5EFED"/>
</svg>
