<svg width="43" height="40" viewBox="0 0 43 40" fill="none" xmlns="http://www.w3.org/2000/svg">
<path d="M22.2029 1.94458C10.9091 1.94458 1.75586 10.2655 1.75586 20.5323C1.75586 30.7991 10.9091 39.1199 22.2029 39.1199C33.4967 39.1199 42.6499 30.7991 42.6499 20.5323C42.6499 10.2655 33.4967 1.94458 22.2029 1.94458ZM32.8353 21.2758H11.6247V19.7888H32.8353V21.2758Z" fill="#98C4D8"/>
<path d="M20.5662 0.45752C9.27236 0.45752 0.119141 8.77839 0.119141 19.0452C0.119141 29.312 9.27236 37.6329 20.5662 37.6329C31.86 37.6329 41.0132 29.312 41.0132 19.0452C41.0132 8.77839 31.8599 0.45752 20.5662 0.45752ZM31.1986 19.7887H9.98801V18.3017H31.1986V19.7887Z" fill="#D85F5F"/>
<path d="M10.6118 8.87667C10.7212 9.0215 10.8963 9.12327 11.1269 9.17618C11.3575 9.22909 11.6393 9.2321 11.956 9.18504C12.2727 9.13798 12.6183 9.04177 12.9729 8.9019C13.3275 8.76204 13.6843 8.58125 14.0228 8.36987C14.3613 8.15849 14.675 7.92065 14.9458 7.66994C15.2167 7.41923 15.4395 7.16056 15.6015 6.90869C15.7635 6.65682 15.8615 6.41669 15.8899 6.202C15.9183 5.98732 15.8766 5.80229 15.7672 5.65748C15.6578 5.51266 15.4828 5.41088 15.2521 5.35797C15.0215 5.30506 14.7398 5.30205 14.423 5.34911C14.1063 5.39617 13.7608 5.49238 13.4061 5.63225C13.0515 5.77212 12.6948 5.9529 12.3562 6.16428C12.0177 6.37566 11.7041 6.6135 11.4332 6.86421C11.1623 7.11492 10.9396 7.37359 10.7776 7.62546C10.6156 7.87733 10.5176 8.11747 10.4891 8.33215C10.4607 8.54683 10.5024 8.73186 10.6118 8.87667Z" fill="#FEFEFE"/>
<path d="M7.45283 13.5553C7.52576 13.6518 7.6346 13.7246 7.77311 13.7694C7.91163 13.8142 8.07711 13.8301 8.26011 13.8164C8.44312 13.8026 8.64006 13.7593 8.83969 13.689C9.03932 13.6188 9.23773 13.5229 9.42359 13.4068C9.60945 13.2907 9.77912 13.1568 9.92291 13.0126C10.0667 12.8685 10.1818 12.7169 10.2616 12.5666C10.3415 12.4162 10.3844 12.2701 10.3882 12.1365C10.3919 12.0029 10.3562 11.8844 10.2833 11.7879C10.2103 11.6913 10.1015 11.6185 9.96297 11.5737C9.82445 11.529 9.65897 11.513 9.47596 11.5268C9.29296 11.5406 9.09602 11.5838 8.89639 11.6541C8.69676 11.7244 8.49835 11.8203 8.31249 11.9363C8.12663 12.0524 7.95696 12.1863 7.81317 12.3305C7.66938 12.4747 7.55428 12.6263 7.47445 12.7766C7.39463 12.9269 7.35163 13.0731 7.34792 13.2067C7.34421 13.3403 7.37986 13.4587 7.45283 13.5553Z" fill="#FEFEFE"/>
</svg>
