<svg width="36" height="29" viewBox="0 0 36 29" fill="none" xmlns="http://www.w3.org/2000/svg">
<path d="M28.7803 21.6313C30.5857 22.7547 31.617 24.7563 31.4877 26.7578C31.4011 27.9781 31.3585 28.0281 29.9835 28.2234C29.1241 28.3703 23.7093 28.4187 18.1241 28.4187C11.8073 28.4187 5.19085 28.2719 4.71785 28.125C2.82722 27.5875 3.85847 23.6812 6.35135 21.8266C8.2846 20.4109 12.2377 18.2625 13.313 18.0172C14.7746 17.675 14.9465 16.65 13.313 13.3297C12.9266 12.5969 12.4962 10.3516 12.4536 8.00781C12.411 4.19844 13.0558 1.61094 15.9777 0.342187C16.58 0.0984373 17.1808 0 17.7391 0C19.6723 0 21.4777 1.22031 22.2078 3.02812C23.2817 5.42031 22.8527 11.8172 21.7348 14.1125C20.4451 16.7 20.5743 17.5312 21.9933 17.9703C22.9393 18.2641 25.8612 19.8266 28.7831 21.6328L28.7803 21.6313ZM5.40535 20.1672C4.71785 20.7047 4.07297 21.3875 3.55735 22.0719C1.92385 22.0719 0.678099 22.0234 0.548849 21.9734C-0.525026 21.6797 0.075849 19.4344 1.49485 18.4578C2.56872 17.6766 4.76047 16.4562 5.36272 16.3094C6.13685 16.1141 6.30872 15.5766 5.36272 13.7219C5.14822 13.3312 4.88972 12.0609 4.88972 10.7437C4.8471 8.59531 5.23347 7.12969 6.86697 6.49531C8.24197 5.90937 9.78885 6.64219 10.3471 7.96094C10.9053 9.32812 10.6056 12.8438 10.0033 14.1141C9.31585 15.6281 9.4451 16.0187 10.2178 16.2625C10.3897 16.3109 10.7335 16.5063 11.2065 16.7516C9.31585 17.6313 6.73772 19.2422 5.40535 20.1703V20.1672ZM33.6795 18.3109C34.7107 18.9453 35.269 20.0203 35.1837 21.1437C35.1411 21.8281 35.1411 21.8766 34.367 21.9734C34.1525 22.0219 33.1638 22.0719 31.8741 22.0719C31.3158 21.2422 30.5417 20.4609 29.5971 19.9234C27.8357 18.7516 25.6866 17.4812 24.0971 16.7C24.5275 16.5047 24.9138 16.3578 25.0857 16.3094C25.9025 16.1141 26.0317 15.5766 25.0857 13.7219C24.9138 13.3312 24.6127 12.0609 24.6127 10.7437C24.5701 8.59531 24.9139 7.12969 26.546 6.49531C27.9636 5.90937 29.5105 6.64219 30.0261 7.96094C30.5844 9.32812 30.3699 12.8438 29.7676 14.1141C29.0801 15.6281 29.1653 16.0187 29.8969 16.2625C30.4125 16.4578 32.046 17.3375 33.6781 18.3141L33.6795 18.3109Z" fill="#F5EFED"/>
</svg>
