<svg width="32" height="32" viewBox="0 0 32 32" fill="none" xmlns="http://www.w3.org/2000/svg">
<path d="M7.68 0C3.48 0 1.92 1.3875 1.92 5.12V26.24C1.92 27.11 2.175 27.7375 2.56 28.2V30.08C2.56 31.1375 3.4225 32 4.48 32H7.04C8.0975 32 8.96 31.1375 8.96 30.08V29.44H23.04V30.08C23.04 31.1375 23.9025 32 24.96 32H27.52C28.5775 32 29.44 31.1375 29.44 30.08V28.2C29.825 27.7375 30.08 27.11 30.08 26.24V5.76C30.08 2.9725 29.735 0 25.6 0H7.68ZM9.6 2.56H23.04C23.395 2.56 23.68 2.8475 23.68 3.2V4.48C23.68 4.8325 23.395 5.12 23.04 5.12H9.6C9.2475 5.12 8.96 4.8325 8.96 4.48V3.2C8.96 2.8475 9.2475 2.56 9.6 2.56ZM7.04 7.04H24.96C26.24 7.04 26.88 7.68 26.88 8.96V16.64C26.88 17.92 25.63 18.52 24.96 18.52L7.04 18.56C5.76 18.56 5.12 17.92 5.12 16.64V8.96C5.12 7.68 5.76 7.04 7.04 7.04ZM1.28 7.68C0.575 7.68 0 8.255 0 8.96V14.08C0 14.785 0.575 15.36 1.28 15.36V7.68ZM30.72 7.68V15.36C31.4275 15.36 32 14.785 32 14.08V8.96C32 8.255 31.4275 7.68 30.72 7.68ZM7.36 21.76C8.5975 21.76 9.6 22.7625 9.6 24C9.6 25.2375 8.5975 26.24 7.36 26.24C6.1225 26.24 5.12 25.2375 5.12 24C5.12 22.7625 6.1225 21.76 7.36 21.76ZM24.64 21.76C25.8775 21.76 26.88 22.7625 26.88 24C26.88 25.2375 25.8775 26.24 24.64 26.24C23.4025 26.24 22.4 25.2375 22.4 24C22.4 22.7625 23.4025 21.76 24.64 21.76Z" fill="#F5EFED"/>
</svg>
