<svg width="19" height="18" viewBox="0 0 19 18" fill="none" xmlns="http://www.w3.org/2000/svg">
<g clip-path="url(#clip0_76_1778)">
<path d="M9.5 18.0001C4.275 18.0001 0 13.9501 0 9.00009C0 4.05009 4.275 9.15527e-05 9.5 9.15527e-05C14.725 9.15527e-05 19 4.05009 19 9.00009C19 13.9501 14.725 18.0001 9.5 18.0001ZM7.52083 12.7501C7.99583 15.0751 8.86667 16.5001 9.5 16.5001C10.1333 16.5001 11.0042 15.0751 11.4792 12.7501H7.52083ZM13.1417 12.7501C12.9042 14.0251 12.5083 15.2251 12.0333 16.1251C13.8542 15.5251 15.4375 14.3251 16.3875 12.7501H13.1417ZM2.6125 12.7501C3.5625 14.3251 5.14583 15.5251 6.96667 16.1251C6.49167 15.2251 6.09583 14.0251 5.85833 12.7501H2.6125ZM13.3792 11.2501H17.1C17.2583 10.5751 17.4167 9.75009 17.4167 9.00009C17.4167 8.25009 17.2583 7.42509 17.0208 6.75009H13.3C13.4583 7.50009 13.4583 8.25009 13.4583 9.00009C13.4583 9.75009 13.4583 10.5001 13.3792 11.2501ZM7.28333 11.2501H11.7958C11.875 10.5751 11.9542 9.82509 11.9542 9.00009C11.9542 8.17509 11.875 7.42509 11.7958 6.75009H7.28333C7.20417 7.42509 7.125 8.17509 7.125 9.00009C7.125 9.82509 7.20417 10.5751 7.28333 11.2501ZM1.97917 11.2501H5.7C5.62083 10.5001 5.62083 9.75009 5.62083 9.00009C5.62083 8.25009 5.62083 7.50009 5.7 6.75009H1.97917C1.74167 7.42509 1.58333 8.25009 1.58333 9.00009C1.58333 9.75009 1.74167 10.5751 1.97917 11.2501ZM13.1417 5.25009H16.3875C15.4375 3.67509 13.8542 2.47509 12.0333 1.87509C12.5083 2.77509 12.9042 3.97509 13.1417 5.25009ZM7.52083 5.25009H11.5583C11.0833 2.92509 10.2125 1.50009 9.57917 1.50009C8.94583 1.50009 7.99583 2.92509 7.52083 5.25009ZM2.6125 5.25009H5.85833C6.09583 3.97509 6.49167 2.77509 6.96667 1.87509C5.14583 2.47509 3.64167 3.67509 2.6125 5.25009Z" fill="#12263A"/>
</g>
<defs>
<clipPath id="clip0_76_1778">
<rect width="19" height="18" fill="white"/>
</clipPath>
</defs>
</svg>
