<svg width="23" height="20" viewBox="0 0 23 20" fill="none" xmlns="http://www.w3.org/2000/svg">
<path fill-rule="evenodd" clip-rule="evenodd" d="M5.12801 19.8661V6.8033H0.307438V19.866H5.12801V19.8661ZM2.71823 5.02045C4.39873 5.02045 5.44555 4.01654 5.44555 2.76304C5.41378 1.48167 4.39873 0.506104 2.74974 0.506104C1.10049 0.506143 0.0224609 1.48171 0.0224609 2.76308C0.0224609 4.01658 1.06871 5.02049 2.6865 5.02049L2.71823 5.02045ZM7.79601 19.8661C7.79601 19.8661 7.85925 8.02893 7.79601 6.80334H12.6173V8.69772H12.5853C13.2193 7.8063 14.3614 6.49659 16.9619 6.49659C20.1345 6.49659 22.5125 8.36358 22.5125 12.376V19.8661H17.6919V12.8779C17.6919 11.122 16.9944 9.92375 15.2494 9.92375C13.9179 9.92375 13.1243 10.7315 12.7759 11.5124C12.6484 11.7903 12.6173 12.1807 12.6173 12.5711V19.8661H7.79601Z" fill="#12263A" stroke="white" stroke-width="0.125"/>
</svg>
