<svg width="343" height="172" viewBox="0 0 343 172" fill="none" xmlns="http://www.w3.org/2000/svg">
<path d="M32.6536 97.7216C32.3694 97.3674 32.2307 96.9667 32.2269 96.5012L32.2261 96.41C32.2261 96.41 32.2258 96.3734 32.2252 96.3004C32.2245 96.2183 32.2293 96.1681 32.2448 96.1543C32.2708 96.145 32.286 96.0947 32.2853 96.008C32.2846 95.9258 32.2893 95.8619 32.3046 95.8253C32.3147 95.7796 32.3299 95.7248 32.345 95.6608C32.3548 95.5877 32.3752 95.5328 32.4061 95.4961C32.4318 95.4594 32.4679 95.4136 32.5091 95.3494C32.5606 95.2761 32.6122 95.221 32.6536 95.1842C32.7053 95.1382 32.7673 95.0877 32.8398 95.037C32.9227 94.9771 32.9901 94.9357 33.0471 94.9079C33.3893 94.7141 33.8885 94.6105 34.5447 94.6064C35.1957 94.6023 35.6275 94.5357 35.8347 94.3975C35.959 94.3145 36.0417 94.2319 36.0827 94.1586C36.1341 94.0761 36.1751 93.9892 36.2056 93.9023C36.2308 93.7926 36.2557 93.6646 36.2858 93.5184C36.3263 93.3721 36.351 93.2168 36.3652 93.0433C36.3742 92.8607 36.383 92.6735 36.3814 92.4773L36.2303 74.0778L34.1887 74.0907C33.9075 74.0924 33.6473 74.1214 33.3976 74.1687C33.148 74.2067 32.9505 74.2582 32.8155 74.3184C32.6753 74.3694 32.5456 74.4296 32.4212 74.5034C32.0483 74.7613 31.7598 75.1465 31.5557 75.6589C31.4841 75.8191 31.4178 75.9975 31.3517 76.1895C31.2959 76.3724 31.2352 76.5919 31.1696 76.8479C31.1143 77.0946 31.0592 77.3551 31.0094 77.6338C30.9544 77.9171 30.9099 78.2094 30.8707 78.5109C30.7923 79.1092 30.3794 79.5636 29.6319 79.8695C29.1334 80.0552 28.6185 80.1497 28.0925 80.1531C27.5769 80.1563 27.0966 80.027 26.6517 79.7605C26.0916 79.4127 25.8116 78.9398 25.8067 78.342L25.9053 72.5913C25.9008 72.0345 26.0845 71.577 26.4566 71.2187C26.8803 70.8053 27.4983 70.5915 28.3056 70.5864L51.0133 70.4432C51.3571 70.441 51.6804 70.4846 51.9727 70.5649C52.2651 70.6498 52.5371 70.7941 52.7888 70.9979C53.0091 71.1928 53.1672 71.4108 53.2525 71.6521C53.3483 71.898 53.4024 72.1532 53.4046 72.4179L53.6393 78.1665C53.6417 78.4586 53.5658 78.7283 53.4168 78.9711C53.2626 79.2185 53.0507 79.4252 52.7761 79.5958C52.3304 79.8679 51.8471 80.0033 51.3211 80.0066C51.0398 80.0084 50.7688 79.9873 50.508 79.9387C50.2575 79.881 50.0174 79.814 49.798 79.7424C49.0872 79.4457 48.6774 79.0101 48.5789 78.4358C48.3443 77.1366 48.0863 76.1662 47.805 75.5199C47.6187 75.0374 47.3396 74.6649 46.9625 74.4117C46.7794 74.317 46.5287 74.2273 46.2103 74.1426C45.9023 74.0624 45.5478 74.019 45.1467 74.0216L43.1468 74.0342L43.2979 92.4337C43.3289 93.0313 43.3953 93.5055 43.4971 93.8563C43.5238 93.9428 43.561 94.0293 43.6034 94.1112C43.656 94.1839 43.7505 94.2654 43.8761 94.3468C44.096 94.4823 44.5288 94.5434 45.1694 94.5394L45.4611 94.5376C45.5861 94.5368 45.6903 94.5453 45.7737 94.5539C45.8676 94.567 45.9823 94.5845 46.1075 94.6065C46.2326 94.6194 46.3474 94.6506 46.4624 94.6955C46.5722 94.7451 46.6821 94.8128 46.7974 94.8942C47.2006 95.1609 47.4389 95.6341 47.5174 96.3135L47.5181 96.4048C47.522 96.8703 47.3846 97.2727 47.1115 97.6304C46.9876 97.7635 46.8324 97.8877 46.6562 97.9984C46.4904 98.109 46.3036 98.1877 46.0957 98.2392C45.8981 98.2861 45.7108 98.3147 45.5338 98.3158L45.4921 98.316C44.4917 98.2722 43.5384 98.2462 42.6373 98.2428C41.7465 98.2347 40.8872 98.2356 40.0538 98.2408C38.2206 98.2524 36.2938 98.301 34.2841 98.3867L34.2424 98.387C33.5601 98.3913 33.0322 98.1664 32.6536 97.7216Z" fill="#12263A"/>
<path d="M54.6328 97.6196C54.3225 97.2656 54.1683 96.8741 54.1647 96.436L54.1641 96.363C54.1641 96.363 54.1639 96.3447 54.1636 96.3082C54.2099 95.6051 54.5133 95.1286 55.0686 94.8787C55.3852 94.7443 55.8378 94.673 56.4211 94.6694C56.9471 94.666 57.2749 94.6275 57.3993 94.5537C57.4924 94.4709 57.5543 94.3975 57.585 94.3334C57.6086 94.0412 57.6204 93.5665 57.615 92.9094L57.5385 83.6001C57.5331 82.943 57.5136 82.4685 57.4852 82.1766C57.4534 82.1175 57.3903 82.0449 57.2959 81.9588C57.1703 81.8865 56.8419 81.8521 56.3158 81.8554C55.7325 81.8591 55.2526 81.7663 54.876 81.5724C54.3163 81.2839 54.036 80.7699 54.0299 80.0261C54.0268 79.6519 54.1593 79.2951 54.4379 78.9648C54.7369 78.5887 55.1881 78.3577 55.7865 78.2809C56.7022 78.1656 57.5604 78.0232 58.3663 77.8448C59.1668 77.6572 59.8684 77.4656 60.4657 77.2656L60.5071 77.2289L60.5488 77.2286C61.0998 77.0928 61.5052 76.9944 61.7547 76.9289L62.088 76.9268C62.6401 76.9233 63.0947 77.103 63.4466 77.4659C63.809 77.8287 63.9947 78.2428 63.9985 78.7037L64.0015 79.0688C64.5505 78.6911 65.1259 78.3635 65.7227 78.0904C66.1219 77.8689 66.5215 77.6929 66.9266 77.5535C67.3266 77.4186 67.7267 77.3066 68.1322 77.2173C68.5326 77.1326 68.9228 77.0845 69.2978 77.0822C69.7249 77.0795 70.1524 77.1315 70.57 77.2384C70.9875 77.3453 71.3638 77.5027 71.6988 77.7059C72.0443 77.9137 72.3588 78.1581 72.6424 78.4484C73.0208 78.8613 73.3058 79.3159 73.5078 79.812C73.7203 80.3127 73.8287 80.8323 73.8332 81.3799C73.8414 82.3792 73.5049 83.2621 72.8341 84.0331C72.06 84.905 71.0219 85.3406 69.7199 85.3488C69.5115 85.3501 69.3083 85.3422 69.1154 85.3161C68.9329 85.2944 68.7452 85.2591 68.552 85.2101C68.3693 85.1519 68.1864 85.08 68.0086 84.9945C68.0084 84.9716 67.9508 84.9401 67.8412 84.9042C67.7262 84.8593 67.653 84.8233 67.6111 84.7962C67.5693 84.7736 67.5065 84.7375 67.4227 84.6878C67.3389 84.629 67.2602 84.5611 67.1919 84.4885C67.134 84.4158 67.0865 84.3386 67.0441 84.2521C67.0017 84.1565 66.9644 84.0518 66.9374 83.9425L66.8303 83.578L67.0151 83.2483C67.0404 83.166 67.0763 83.0928 67.1174 83.0286C67.1689 82.9553 67.2102 82.9094 67.2412 82.8818C67.2671 82.8588 67.3239 82.8037 67.4065 82.7165C67.4892 82.6338 67.5563 82.5649 67.6132 82.5144C67.6648 82.4547 67.7008 82.4043 67.7162 82.3677C67.7419 82.331 67.757 82.2716 67.7563 82.1849C67.7554 82.0753 67.7391 81.9933 67.7126 81.9296C67.6963 81.8567 67.6803 81.8111 67.6697 81.7838C67.6539 81.7611 67.6327 81.7202 67.6062 81.6564C67.4808 81.6116 67.366 81.5849 67.2722 81.5855C66.965 81.5875 66.5029 81.7684 65.8808 82.1237C65.7666 82.1746 65.6578 82.2437 65.5491 82.3266C65.4351 82.4003 65.3212 82.4832 65.1969 82.5661C65.0726 82.6536 64.9483 82.7411 64.824 82.824C64.6996 82.8978 64.5753 82.9853 64.4511 83.0819C64.3269 83.1831 64.208 83.2843 64.0995 83.3945L64.1773 92.868C64.1827 93.5252 64.2126 93.9905 64.272 94.2548C64.2726 94.3187 64.3357 94.4004 64.4616 94.5091C64.4616 94.5091 64.4877 94.5181 64.5451 94.5269C64.6129 94.5401 64.7225 94.5577 64.8789 94.5795C65.0301 94.6059 65.2177 94.6139 65.4417 94.6125L65.7125 94.6108C66.2125 94.6076 66.63 94.7145 66.9652 94.9315C67.3684 95.1982 67.6065 95.6485 67.6846 96.2777L67.6852 96.3508C67.6861 96.4603 67.6765 96.5653 67.6669 96.6612C67.6521 96.7617 67.6268 96.8577 67.586 96.9538C67.5554 97.0407 67.5145 97.1277 67.4632 97.2284C67.4223 97.3245 67.371 97.4161 67.3196 97.5031C67.1957 97.6362 67.0405 97.7604 66.8643 97.8711C66.6985 97.9816 66.5221 98.0603 66.3454 98.1116C66.1635 98.1584 65.9762 98.187 65.7835 98.1882L65.7419 98.1885C63.9497 98.1267 62.3348 98.1004 60.9078 98.1094C60.2255 98.1137 59.4808 98.123 58.6788 98.1417C57.8716 98.1559 57.0177 98.1933 56.1171 98.2491L56.0755 98.2494C55.4921 98.2531 55.0112 98.0416 54.6328 97.6196Z" fill="#12263A"/>
<path d="M76.0378 96.8274C74.6381 95.7318 73.9339 94.3352 73.92 92.6422C73.9031 90.5887 74.6924 89.0229 76.2982 87.9541C77.7487 86.9957 79.4625 86.3779 81.4498 86.0961C83.0155 85.8444 85.0086 85.6356 87.424 85.4743L87.4057 83.2474C87.401 82.677 87.3243 82.2074 87.1858 81.8432C87.0422 81.479 86.8314 81.1791 86.5534 80.9345C86.3276 80.7168 85.9877 80.5456 85.5282 80.4115C85.0687 80.2684 84.4744 80.1991 83.7556 80.2037C83.5056 80.2052 83.2767 80.2341 83.0687 80.281C82.8711 80.3188 82.6842 80.3838 82.5078 80.4671C82.3262 80.555 82.1603 80.6473 82.01 80.7441C81.7875 80.9189 81.6224 81.107 81.5147 81.3131C81.4017 81.51 81.3517 81.7613 81.3542 82.0625C81.356 82.2816 81.4042 82.4455 81.504 82.5544C81.6568 82.7634 81.8301 82.9357 82.0292 83.0805C82.0552 83.0803 82.1179 83.0936 82.217 83.1158C82.3266 83.1425 82.4259 83.183 82.5097 83.2418C82.5934 83.2914 82.6673 83.4005 82.7416 83.5689C82.8262 83.7281 82.8695 83.9286 82.8715 84.1705C82.8735 84.4169 82.8025 84.6455 82.6689 84.8654C82.5301 85.0853 82.4115 85.2321 82.3183 85.3057C82.2199 85.3702 82.0696 85.467 81.8624 85.6007C81.2407 86.0062 80.5236 86.2115 79.7216 86.2166C78.4143 86.2248 77.3744 85.8115 76.6071 84.9766C75.8767 84.1917 75.5098 83.2768 75.5012 82.2272C75.4862 80.4018 76.4022 79.0544 78.2597 78.1756C79.8627 77.3988 81.7814 77.0033 84.0209 76.9892C84.9063 76.9836 85.7556 77.0285 86.5637 77.1192C87.3666 77.2146 88.1283 77.3649 88.8384 77.5795C89.5589 77.794 90.2173 78.0591 90.8032 78.3703C91.4832 78.722 92.0495 79.1748 92.5019 79.7287C92.9649 80.2871 93.2929 80.9102 93.4965 81.6026C93.7106 82.2949 93.821 83.0609 93.8279 83.9006L93.9054 93.3376C93.9063 93.4472 93.9124 93.5521 93.9288 93.6478C93.94 93.7481 93.972 93.8392 94.0144 93.9211C94.0671 93.9938 94.1198 94.0802 94.1623 94.1757C94.2152 94.2758 94.2733 94.3713 94.3314 94.4667C94.426 94.5757 94.5256 94.6572 94.625 94.7022C94.7346 94.738 94.9171 94.7551 95.1671 94.7535C95.6931 94.7502 96.1316 94.8707 96.4825 95.1103C96.8444 95.4138 97.0303 95.8462 97.0348 96.4029C97.0418 97.2517 96.4891 97.8165 95.382 98.0927C94.7013 98.2887 94.0199 98.3934 93.3428 98.3977C91.9105 98.4067 90.6367 98.0405 89.5212 97.3082C89.0186 96.992 88.6093 96.6203 88.3036 96.1841C88.1485 96.322 87.9829 96.4508 87.8068 96.5706C87.6412 96.6949 87.4754 96.81 87.3097 96.9206C87.1439 97.0312 86.9624 97.1236 86.7703 97.1978C86.5886 97.2811 86.3968 97.3827 86.1893 97.4935C84.705 98.1327 83.0983 98.4623 81.3639 98.4732C79.1973 98.4868 77.4219 97.9367 76.0378 96.8274ZM85.1159 93.6304C85.308 93.5561 85.4896 93.4637 85.6553 93.3531C85.8211 93.2426 85.9712 93.1275 86.1108 93.0034C86.2452 92.8839 86.3795 92.7462 86.5033 92.5994C86.627 92.4434 86.7351 92.283 86.8327 92.1227C87.2544 91.4629 87.4673 90.745 87.4609 89.9647L87.4508 88.7417C85.0363 89.0034 83.3362 89.3883 82.3561 89.9056C81.4021 90.4364 80.93 91.2974 80.9398 92.4884C80.9456 93.1957 81.0796 93.6649 81.3471 93.8914C81.6095 94.1225 82.1 94.2335 82.8083 94.2291C83.2353 94.2264 83.6464 94.1781 84.0362 94.0753C84.4208 93.977 84.7842 93.8287 85.1159 93.6304Z" fill="#12263A"/>
<path d="M103.969 90.2986C103.842 90.0348 103.396 89.061 102.633 87.3864C101.911 85.7389 101.233 84.3558 100.598 83.2372L100.557 83.2374L100.556 83.2009C100.091 82.282 99.6792 81.6548 99.3327 81.3284C99.2071 81.2562 99.0242 81.1752 98.789 81.0763C98.5643 80.9819 98.2773 80.9244 97.9333 80.8992L97.8081 80.8634L97.7039 80.8641C97.7039 80.8641 97.6674 80.8598 97.5996 80.8465C97.5421 80.824 97.4847 80.8107 97.4326 80.811C96.7758 80.7422 96.3258 80.4894 96.0722 80.0529C95.9192 79.812 95.8382 79.4703 95.8346 79.0322C95.8322 78.7401 95.9028 78.4567 96.0359 78.173C96.1741 77.88 96.4275 77.6548 96.8012 77.4927C97.1333 77.3446 97.5129 77.2692 97.9452 77.2665C98.2367 77.2418 98.4345 77.2269 98.549 77.2261C100.684 77.1305 102.394 77.4027 103.681 78.0517C104.947 78.6918 106.008 79.8077 106.854 81.4088C106.897 81.4952 107.512 82.8057 108.699 85.3401C109.49 87.0784 110.168 88.5163 110.735 89.6536L112.022 86.6335L114.29 81.1611C114.357 81.0284 114.403 80.9048 114.433 80.7951C114.308 80.7731 114.183 80.7602 114.058 80.761C113.933 80.7618 113.792 80.7627 113.641 80.7636L113.37 80.7653C113.12 80.7669 112.891 80.7455 112.682 80.6966C112.484 80.6386 112.275 80.544 112.055 80.4085C111.719 80.1323 111.512 79.6955 111.44 79.0981L111.439 79.0251C111.436 78.6737 111.527 78.3308 111.722 78.001C112.051 77.4513 112.554 77.1743 113.236 77.17L113.278 77.1698C113.872 77.2025 114.435 77.2264 114.966 77.2322C115.492 77.2425 115.987 77.2531 116.446 77.2593C116.904 77.2701 117.331 77.272 117.737 77.2694C118.206 77.2665 119.154 77.2377 120.57 77.1786L121.549 77.1176L121.611 77.1172C122.247 77.1132 122.743 77.3611 123.097 77.8563C123.349 78.2107 123.477 78.575 123.48 78.9492L123.481 79.0222C123.413 79.6432 123.183 80.0965 122.784 80.3774C122.452 80.5985 122.037 80.7107 121.537 80.7138C121.037 80.717 120.61 80.7562 120.267 80.8314C119.934 80.8974 119.674 80.9629 119.498 81.037C119.093 81.2586 118.722 81.7447 118.384 82.4861C118.027 83.3555 117.47 84.6185 116.707 86.2754C116.093 87.6301 115.346 89.2594 114.476 91.1634C114.159 91.8727 113.832 92.6232 113.495 93.4149C113.168 94.211 112.923 94.8332 112.76 95.2814C112.597 95.7206 112.403 96.1599 112.188 96.5994C111.983 97.0388 111.783 97.3732 111.592 97.6071C111.411 97.8364 111.199 97.9929 110.95 98.0675L110.722 98.1968L107.742 98.2155L107.405 97.6518C106.585 96.1144 105.439 93.6619 103.969 90.2986Z" fill="#12263A"/>
<path d="M128.642 96.6964C126.827 95.7587 125.457 94.453 124.526 92.7794C123.58 91.1562 123.102 89.352 123.086 87.3669C123.071 85.6055 123.521 83.9095 124.44 82.2837C125.385 80.6485 126.718 79.3075 128.449 78.2607C130.201 77.2183 132.227 76.6852 134.519 76.6708C137.571 76.6515 139.962 77.3438 141.682 78.7431C143.402 80.147 144.397 82.0255 144.666 84.3832L144.667 84.4745C144.677 85.7157 144.231 86.613 143.335 87.1663C142.588 87.6091 141.569 87.8345 140.278 87.8427L130.195 87.9063C130.335 89.7445 130.852 91.2016 131.751 92.2775C132.73 93.4761 134.271 94.0688 136.37 94.0556C136.589 94.0542 136.808 94.0483 137.016 94.0333C137.234 94.0091 137.443 93.9758 137.64 93.938C137.848 93.9002 138.035 93.8625 138.202 93.825C138.378 93.7782 138.545 93.7224 138.7 93.6575C138.851 93.5836 139.001 93.5051 139.157 93.4174C139.929 93.0109 140.679 92.276 141.41 91.2126L141.471 91.0845L141.554 90.9927C141.73 90.8592 141.932 90.7484 142.155 90.6603C142.373 90.5631 142.602 90.5114 142.841 90.5099C142.935 90.5093 143.05 90.5223 143.175 90.5443C143.3 90.5709 143.415 90.5976 143.53 90.6334C143.639 90.6601 143.739 90.6868 143.822 90.7228C143.916 90.7587 143.995 90.7947 144.052 90.8309C144.706 91.2055 145.039 91.7328 145.044 92.4128C145.046 92.5725 145.026 92.7232 144.986 92.8695C144.945 93.0158 144.874 93.176 144.781 93.3454C144.256 94.0561 143.657 94.7124 142.985 95.3099C142.307 95.912 141.567 96.4141 140.768 96.8208C139.134 97.6799 137.279 98.1206 135.195 98.1337C132.654 98.1498 130.467 97.6707 128.642 96.6964ZM136.519 84.2703C137.087 84.2667 137.446 84.2097 137.601 84.0992C137.751 83.9887 137.838 83.801 137.867 83.5316C137.866 83.3764 137.854 83.2305 137.843 83.0936C137.826 82.9477 137.799 82.811 137.756 82.6743C137.724 82.5422 137.697 82.4146 137.669 82.2915C137.637 82.1731 137.595 82.0547 137.542 81.9455C137.499 81.8362 137.441 81.7271 137.372 81.618C137.314 81.5088 137.246 81.4134 137.162 81.3272C137.088 81.2319 137.004 81.1274 136.909 81.0185C136.625 80.7191 136.301 80.493 135.924 80.3493C135.559 80.2056 135.1 80.1355 134.548 80.1389C133.339 80.1466 132.332 80.5728 131.537 81.4175C130.887 82.1517 130.457 83.1174 130.248 84.3098L136.519 84.2703Z" fill="#12263A"/>
<path d="M146.113 97.0427C145.803 96.6887 145.648 96.2972 145.645 95.8591L145.644 95.7861C145.696 95.083 145.968 94.6067 146.466 94.3571C146.798 94.1862 147.261 94.0965 147.859 94.0928C148.37 94.0895 148.692 94.051 148.817 93.9772C148.941 93.8669 149.003 93.7843 149.002 93.7205C149.068 93.4554 149.1 92.9897 149.095 92.3325L148.932 72.4727C148.929 72.1442 148.916 71.8613 148.904 71.615C148.886 71.3732 148.88 71.1861 148.879 71.0492L148.689 70.8496C148.564 70.7683 148.235 70.7247 147.709 70.728C147.11 70.7318 146.63 70.6435 146.27 70.4633C145.71 70.1656 145.429 69.6471 145.423 68.917C145.42 68.5428 145.553 68.186 145.831 67.8557C146.13 67.4796 146.576 67.244 147.159 67.1536C149.017 66.9229 150.597 66.5843 151.901 66.138C152.176 66.0404 152.42 65.9704 152.628 65.9326C152.847 65.8856 153.05 65.8478 153.232 65.8193L153.523 65.8174C154.075 65.8139 154.53 65.9936 154.882 66.3565C155.244 66.7193 155.43 67.1334 155.434 67.5943L155.637 92.2913C155.642 92.9484 155.677 93.4137 155.752 93.6779L155.942 93.9323C155.942 93.9323 155.968 93.9412 156.025 93.95C156.093 93.9633 156.203 93.9808 156.359 94.0027C156.51 94.0291 156.693 94.0371 156.901 94.0357L157.193 94.0339C157.677 94.0309 158.094 94.1377 158.445 94.3546C158.848 94.6213 159.081 95.0716 159.144 95.701L159.144 95.774C159.145 95.8379 159.145 95.8927 159.146 95.9383C159.146 95.9885 159.136 96.0433 159.126 96.1027C159.111 96.153 159.096 96.2079 159.086 96.2673C159.071 96.3176 159.056 96.3724 159.046 96.4318C159.03 96.4775 159.005 96.5279 158.963 96.5784C158.933 96.6379 158.907 96.6928 158.882 96.7432C158.851 96.8027 158.825 96.8622 158.8 96.9262C158.676 97.0594 158.521 97.1836 158.344 97.2942C158.179 97.4048 157.997 97.4835 157.805 97.5349C157.623 97.5817 157.441 97.6102 157.264 97.6113L157.222 97.6116C155.414 97.55 153.804 97.5236 152.388 97.5325C151.706 97.5368 150.961 97.5461 150.159 97.5649C149.352 97.5791 148.498 97.6164 147.597 97.6723L147.556 97.6725C146.931 97.6765 146.45 97.465 146.113 97.0427Z" fill="#12263A"/>
<path d="M163.251 96.6061C161.168 95.4281 160.123 93.696 160.104 91.4052C160.093 90.1411 160.574 89.0839 161.557 88.238C162.535 87.4195 163.802 87.0008 165.359 86.991C165.661 86.9891 165.948 87.0192 166.214 87.0768C166.475 87.1254 166.741 87.2013 167.008 87.3091C167.269 87.4079 167.494 87.5388 167.678 87.7065C167.997 87.9236 168.244 88.1548 168.413 88.3956C168.581 88.6409 168.667 88.9233 168.67 89.2519C168.671 89.4116 168.657 89.5577 168.632 89.6902C168.602 89.8273 168.556 89.9372 168.488 90.0197C168.432 90.1068 168.365 90.1802 168.282 90.2401C168.209 90.2907 168.137 90.3231 168.054 90.3328C167.97 90.347 167.908 90.3611 167.866 90.3705C167.825 90.3844 167.773 90.3893 167.721 90.3897C167.679 90.3899 167.658 90.3901 167.658 90.3901C167.503 90.5006 167.353 90.6475 167.203 90.831C167.08 91.0052 167.02 91.2657 167.022 91.6171C167.03 92.5937 167.338 93.3219 167.957 93.8017C168.638 94.3223 169.76 94.5753 171.318 94.5655C172.401 94.5587 173.342 94.3793 174.146 94.0183C174.878 93.6623 175.442 93.1978 175.843 92.6202C176.24 92.0701 176.438 91.4984 176.433 90.9006C176.427 90.1705 176.193 89.533 175.73 88.9883C175.168 88.3986 174.482 87.9009 173.676 87.5044C173.242 87.2881 172.714 87.0496 172.087 86.7843C171.46 86.5098 170.759 86.2267 169.997 85.9395C168.058 85.185 166.506 84.5011 165.334 83.8879C164.047 83.2525 162.957 82.3786 162.062 81.2616C161.094 80.0994 160.603 78.6787 160.59 76.9994C160.579 75.676 160.84 74.4924 161.373 73.453C161.906 72.4183 162.712 71.5598 163.79 70.8822C164.795 70.2187 165.968 69.7276 167.298 69.3997C168.629 69.0627 170.096 68.8892 171.711 68.879C174.278 68.8628 176.527 69.3233 178.451 70.2604C180.596 71.3056 181.681 72.8686 181.698 74.9495C181.709 76.2273 181.223 77.2891 180.245 78.135C179.899 78.4064 179.525 78.6324 179.126 78.8175C178.721 78.9934 178.306 79.1284 177.879 79.2269C177.448 79.33 176.969 79.3787 176.443 79.382C175.453 79.3654 174.675 79.1285 174.104 78.6666C173.459 78.1869 173.137 77.6687 173.133 77.1211C173.129 76.7195 173.231 76.4177 173.438 76.2064C173.655 75.9997 173.873 75.8934 174.081 75.892L174.414 75.8899C174.689 75.7787 174.938 75.6311 175.161 75.4471C175.285 75.314 175.345 75.0809 175.342 74.7523C175.34 74.4009 175.264 74.1048 175.127 73.8592C174.984 73.6182 174.774 73.4005 174.496 73.206C174.146 72.9892 173.754 72.8274 173.326 72.7205C172.893 72.6137 172.376 72.5622 171.783 72.566C170.949 72.5712 170.242 72.6624 169.66 72.8349C169.088 72.9982 168.627 73.2202 168.269 73.5008C167.897 73.7953 167.618 74.1165 167.444 74.4553C167.28 74.7986 167.2 75.1824 167.203 75.6068C167.209 76.3141 167.412 76.897 167.822 77.3553C168.326 77.877 169.169 78.4193 170.356 78.9823C170.691 79.1399 171.036 79.2883 171.402 79.432C171.762 79.5758 172.133 79.7332 172.51 79.8997C172.896 80.057 173.294 80.2187 173.701 80.385C174.73 80.7801 175.65 81.1577 176.461 81.5177C177.266 81.8777 177.987 82.2336 178.615 82.5811C179.913 83.3031 181.004 84.2454 181.888 85.4081C182.826 86.6572 183.307 88.1647 183.321 89.9262C183.335 91.5234 182.768 92.9599 181.628 94.2449C180.555 95.4839 179.089 96.456 177.235 97.1751C175.626 97.8059 173.868 98.1501 171.952 98.2124C171.769 98.2135 171.566 98.2148 171.348 98.2162C167.874 98.2381 165.176 97.6983 163.251 96.6061Z" fill="#12263A"/>
<path d="M186.838 96.1289C185.438 95.0333 184.734 93.6367 184.72 91.9437C184.703 89.8902 185.493 88.3245 187.099 87.2556C188.549 86.2972 190.263 85.6794 192.25 85.3977C193.816 85.1459 195.809 84.9371 198.224 84.7758L198.206 82.5489C198.201 81.9785 198.125 81.5089 197.986 81.1447C197.843 80.7805 197.632 80.4807 197.354 80.236C197.128 80.0183 196.788 79.8471 196.328 79.7131C195.869 79.5699 195.275 79.5007 194.556 79.5052C194.306 79.5068 194.077 79.5356 193.869 79.5825C193.671 79.6203 193.484 79.6854 193.308 79.7686C193.126 79.8565 192.961 79.9488 192.81 80.0456C192.588 80.2204 192.423 80.4085 192.315 80.6146C192.202 80.8115 192.152 81.0628 192.154 81.364C192.156 81.5831 192.204 81.7471 192.304 81.856C192.457 82.0649 192.63 82.2372 192.829 82.382C192.856 82.3819 192.918 82.3951 193.017 82.4173C193.127 82.444 193.226 82.4845 193.31 82.5433C193.394 82.5929 193.468 82.702 193.542 82.8704C193.626 83.0296 193.67 83.2301 193.672 83.472C193.674 83.7184 193.603 83.947 193.469 84.1669C193.33 84.3868 193.212 84.5336 193.119 84.6072C193.02 84.6717 192.87 84.7685 192.663 84.9022C192.041 85.3077 191.324 85.513 190.522 85.5181C189.215 85.5263 188.175 85.113 187.407 84.2782C186.677 83.4933 186.31 82.5783 186.301 81.5287C186.286 79.7034 187.203 78.3559 189.06 77.4771C190.663 76.7003 192.582 76.3049 194.821 76.2907C195.707 76.2852 196.556 76.33 197.364 76.4207C198.167 76.5161 198.929 76.6664 199.639 76.881C200.359 77.0955 201.018 77.3606 201.604 77.6718C202.284 78.0235 202.85 78.4763 203.302 79.0302C203.765 79.5886 204.093 80.2117 204.297 80.9041C204.511 81.5964 204.621 82.3624 204.628 83.2021L204.706 92.6392C204.707 92.7487 204.713 92.8536 204.729 92.9493C204.74 93.0497 204.772 93.1407 204.815 93.2226C204.867 93.2953 204.92 93.3817 204.963 93.4772C205.016 93.5773 205.074 93.6728 205.132 93.7682C205.226 93.8772 205.326 93.9587 205.425 94.0037C205.535 94.0395 205.717 94.0566 205.967 94.055C206.493 94.0517 206.932 94.1722 207.283 94.4118C207.645 94.7153 207.831 95.1477 207.835 95.7044C207.842 96.5532 207.289 97.118 206.182 97.3942C205.502 97.5902 204.82 97.6949 204.143 97.6992C202.711 97.7082 201.437 97.342 200.322 96.6098C199.819 96.2935 199.41 95.9218 199.104 95.4857C198.949 95.6235 198.783 95.7524 198.607 95.8721C198.441 95.9964 198.276 96.1115 198.11 96.2221C197.944 96.3327 197.763 96.4251 197.571 96.4993C197.389 96.5826 197.197 96.6842 196.99 96.795C195.505 97.4342 193.899 97.7638 192.164 97.7747C189.998 97.7884 188.222 97.2382 186.838 96.1289ZM195.916 92.9319C196.108 92.8576 196.29 92.7652 196.456 92.6547C196.621 92.5441 196.771 92.4291 196.911 92.305C197.046 92.1855 197.18 92.0477 197.304 91.9009C197.427 91.7449 197.535 91.5845 197.633 91.4242C198.055 90.7644 198.268 90.0465 198.261 89.2662L198.251 88.0432C195.837 88.3049 194.137 88.6898 193.156 89.2071C192.202 89.7379 191.73 90.5989 191.74 91.7899C191.746 92.4972 191.88 92.9665 192.147 93.1929C192.41 93.424 192.9 93.535 193.609 93.5306C194.036 93.5279 194.447 93.4796 194.837 93.3768C195.221 93.2785 195.585 93.1302 195.916 92.9319Z" fill="#12263A"/>
<path d="M212.905 96.0558C211.604 94.8957 210.945 93.2707 210.927 91.1761L210.838 80.2605L209.297 80.325C209.114 80.3261 208.927 80.3045 208.734 80.2555C208.551 80.1973 208.389 80.1208 208.252 80.0212C208.111 79.9263 207.99 79.813 207.895 79.6766C207.796 79.5678 207.711 79.4542 207.643 79.3314C207.584 79.2131 207.542 79.0902 207.515 78.9671C207.482 78.8487 207.471 78.721 207.47 78.5841C207.466 78.1734 207.552 77.7986 207.731 77.4689C208.004 77.0199 208.439 76.7343 209.037 76.621C209.921 76.4465 210.601 76.2095 211.073 75.9145C211.529 75.583 211.864 75.2432 212.085 74.8858C212.136 74.7303 212.213 74.5473 212.31 74.3368C212.402 74.1308 212.515 73.8882 212.637 73.6045C212.76 73.3117 212.882 72.9915 213.004 72.6347C213.127 72.3921 213.298 72.1765 213.52 71.9926C213.753 71.7994 214.007 71.6609 214.287 71.5861C214.563 71.5023 214.839 71.4549 215.12 71.4531C215.521 71.4506 215.912 71.5303 216.288 71.683C216.942 71.9847 217.274 72.4344 217.279 73.0276L217.279 73.1006L217.078 76.5703L221.202 76.3252L221.347 76.3243C221.931 76.3206 222.37 76.5141 222.665 76.9001C222.97 77.277 223.129 77.6821 223.133 78.1202C223.136 78.5218 223.056 78.9148 222.893 79.29C222.591 79.9993 222.099 80.3538 221.422 80.358L217.38 80.3105L217.473 91.6277C217.479 92.335 217.634 92.8999 217.945 93.3224C218.14 93.6041 218.501 93.7387 219.032 93.7354C219.433 93.7328 219.803 93.7077 220.136 93.6554C220.479 93.5939 220.806 93.496 221.112 93.3572L221.154 93.3569C221.678 93.1619 222.068 93.0591 222.318 93.0575C222.594 93.0557 222.866 93.1179 223.132 93.2349C223.394 93.3565 223.603 93.5149 223.761 93.7056C223.94 93.887 224.119 94.1414 224.288 94.4689C224.288 94.4689 224.331 94.6694 224.418 95.0705C224.422 95.5086 224.196 95.8933 223.74 96.2248L223.699 96.2616L223.637 96.2985C222.626 96.8753 221.671 97.2783 220.771 97.5031C219.867 97.7004 218.836 97.8073 217.67 97.8147C215.805 97.8265 214.217 97.2386 212.905 96.0558Z" fill="#12263A"/>
<path d="M226.059 96.5387C225.749 96.1847 225.595 95.7932 225.591 95.3551L225.59 95.2821C225.59 95.2821 225.59 95.2638 225.59 95.2273C225.636 94.5242 225.94 94.0477 226.495 93.7978C226.812 93.6634 227.264 93.5921 227.847 93.5885C228.373 93.5851 228.701 93.5466 228.826 93.4728C228.919 93.39 228.981 93.3166 229.011 93.2525C229.035 92.9603 229.047 92.4856 229.041 91.8285L228.965 82.5192C228.959 81.8621 228.94 81.3876 228.911 81.0957C228.88 81.0366 228.817 80.964 228.722 80.8779C228.597 80.8056 228.268 80.7712 227.742 80.7745C227.159 80.7782 226.679 80.6854 226.302 80.4915C225.743 80.203 225.462 79.6891 225.456 78.9452C225.453 78.571 225.586 78.2142 225.864 77.8839C226.014 77.7004 226.216 77.5485 226.465 77.4237C226.714 77.3035 226.963 77.2289 227.213 77.2C229.055 76.9693 230.63 76.6308 231.934 76.1845C232.209 76.0732 232.453 75.9987 232.661 75.9608C232.879 75.9138 233.087 75.876 233.285 75.8474L233.556 75.8457C234.108 75.8422 234.568 76.0218 234.935 76.3846C235.298 76.7474 235.484 77.1615 235.487 77.6224L235.604 91.7871C235.609 92.4443 235.639 92.9096 235.698 93.1739C235.699 93.2378 235.762 93.3195 235.888 93.4282C235.888 93.4282 235.914 93.4372 235.971 93.446C236.039 93.4592 236.149 93.4768 236.305 93.4986C236.456 93.5251 236.644 93.533 236.868 93.5316L237.139 93.5299C237.639 93.5267 238.056 93.6336 238.391 93.8506C238.795 94.1173 239.033 94.5676 239.111 95.1969L239.111 95.2699C239.112 95.3794 239.103 95.4844 239.093 95.5803C239.078 95.6808 239.053 95.7768 239.012 95.8729C238.982 95.9598 238.941 96.0468 238.89 96.1475C238.849 96.2436 238.797 96.3352 238.746 96.4222C238.622 96.5553 238.467 96.6795 238.291 96.7902C238.125 96.9007 237.948 96.9794 237.772 97.0307C237.59 97.0775 237.403 97.1061 237.21 97.1073L237.168 97.1076C235.376 97.0458 233.761 97.0195 232.334 97.0285C231.652 97.0328 230.907 97.0421 230.105 97.0608C229.298 97.075 228.444 97.1124 227.543 97.1682L227.502 97.1685C226.918 97.1722 226.438 96.9607 226.059 96.5387ZM228.944 72.4246C228.09 71.7501 227.661 70.9085 227.653 69.8954C227.651 69.6536 227.691 69.416 227.772 69.1828C227.853 68.9541 227.945 68.7344 228.058 68.5238C228.181 68.304 228.331 68.1113 228.512 67.9368C228.703 67.753 228.925 67.5782 229.174 67.4032C229.599 67.1085 230.086 66.8818 230.627 66.7187C231.167 66.5464 231.713 66.4562 232.27 66.4527C232.614 66.4506 232.958 66.494 233.292 66.5741C233.637 66.6449 233.961 66.7615 234.254 66.9148C234.546 67.059 234.803 67.2536 235.029 67.4941C235.743 68.1468 236.104 68.9751 236.112 69.9699C236.12 70.9191 235.71 71.7385 234.882 72.4237C234.08 73.0494 233.088 73.366 231.911 73.3734C230.744 73.3808 229.752 73.0676 228.944 72.4246Z" fill="#12263A"/>
<path d="M245.473 95.9599C245.013 95.7209 244.578 95.4635 244.175 95.1831C243.766 94.8936 243.384 94.5948 243.022 94.2777C242.654 93.9514 242.329 93.6066 242.034 93.2434C241.739 92.8802 241.465 92.5077 241.212 92.1168C240.183 90.5078 239.664 88.7997 239.649 86.9971C239.631 84.7839 240.219 82.827 241.414 81.1263C242.567 79.4671 244.067 78.1889 245.924 77.301C247.776 76.404 249.647 75.9449 251.538 75.933C252.689 75.9258 253.789 76.042 254.833 76.2773C255.887 76.5171 256.869 76.8806 257.779 77.3723C259.605 78.3374 261.027 79.6245 262.04 81.2336C263.064 82.8335 263.588 84.5279 263.603 86.3167C263.621 88.5437 263.033 90.5097 261.839 92.2058C260.644 93.8699 259.118 95.1437 257.266 96.0316C255.424 96.9285 253.574 97.3874 251.714 97.3991C249.391 97.4138 247.314 96.934 245.473 95.9599ZM255.295 91.9915C255.444 91.7259 255.587 91.4375 255.725 91.1308C255.858 90.8151 255.98 90.4812 256.092 90.1245C256.199 89.7724 256.284 89.4023 256.354 89.0093C256.434 88.6072 256.482 88.1825 256.51 87.7305C256.532 87.2832 256.544 86.8267 256.54 86.3613C256.523 84.2211 256.061 82.4898 255.164 81.1674C254.374 80.0315 253.176 79.4641 251.567 79.4742C250.661 79.4799 249.928 79.6306 249.362 79.9262C248.792 80.2127 248.327 80.6629 247.957 81.2859C247.679 81.7531 247.449 82.2657 247.261 82.8237C247.083 83.3861 246.943 84.0076 246.839 84.6883C246.745 85.3597 246.705 86.0901 246.711 86.8796C246.729 89.0244 247.186 90.7739 248.088 92.1282C248.493 92.7235 248.976 93.1631 249.536 93.4516C250.106 93.731 250.821 93.8634 251.685 93.8579C252.268 93.8543 252.773 93.7872 253.204 93.6476C253.646 93.4988 254.035 93.2955 254.366 93.0379C254.708 92.7801 255.017 92.4313 255.295 91.9915Z" fill="#12263A"/>
<path d="M265.268 96.2915C264.958 95.9375 264.804 95.546 264.8 95.1079L264.8 95.0349C264.8 95.0349 264.8 95.0166 264.799 94.9801C264.846 94.277 265.149 93.8005 265.704 93.5506C266.021 93.4162 266.473 93.3449 267.057 93.3412C267.583 93.3379 267.911 93.2993 268.035 93.2255C268.128 93.1428 268.19 93.0694 268.221 93.0053C268.244 92.7131 268.256 92.2384 268.251 91.5813L268.174 82.272C268.169 81.6149 268.149 81.1404 268.121 80.8485C268.089 80.7894 268.026 80.7167 267.932 80.6306C267.806 80.5584 267.478 80.524 266.952 80.5273C266.368 80.531 265.888 80.4381 265.512 80.2443C264.952 79.9557 264.672 79.4418 264.666 78.698C264.663 78.3238 264.795 77.967 265.074 77.6367C265.373 77.2606 265.824 77.0295 266.422 76.9527C267.338 76.8374 268.196 76.6951 269.002 76.5166C269.803 76.329 270.504 76.1375 271.101 75.9375L271.143 75.9007L271.185 75.9005C271.736 75.7647 272.141 75.6663 272.39 75.6008L272.724 75.5987C273.276 75.5952 273.73 75.7749 274.082 76.1378C274.445 76.5006 274.63 76.9147 274.634 77.3756L274.638 77.7954C274.679 77.7586 274.72 77.731 274.762 77.7034C274.803 77.6803 274.834 77.6573 274.865 77.6297C274.907 77.5929 274.938 77.5653 274.969 77.5378C274.995 77.5148 275.021 77.4918 275.052 77.4642C275.3 77.2938 275.554 77.1416 275.819 77.003C276.078 76.869 276.348 76.7396 276.628 76.6146C276.903 76.4942 277.215 76.3736 277.563 76.2619C278.046 76.1036 278.586 75.977 279.185 75.8865C279.793 75.8006 280.423 75.751 281.079 75.7468C283.522 75.7314 285.481 76.3899 286.95 77.7178C288.419 79.0137 289.162 80.6976 289.179 82.7785L289.25 91.4489C289.253 91.7774 289.26 92.0649 289.278 92.3067C289.29 92.553 289.323 92.7262 289.366 92.8355L289.534 93.09C289.66 93.1622 289.983 93.1967 290.515 93.1933L290.806 93.1915C291.291 93.1884 291.708 93.2953 292.059 93.5122C292.237 93.648 292.384 93.8113 292.5 94.0023C292.611 94.1841 292.675 94.3206 292.691 94.4027C292.702 94.4893 292.724 94.6398 292.757 94.8586L292.758 94.9316C292.762 95.3697 292.609 95.7631 292.309 96.121C291.938 96.5477 291.461 96.7652 290.877 96.7689L290.836 96.7692C289.929 96.7247 289.075 96.6981 288.272 96.6941C287.465 96.6855 286.71 96.6857 286.001 96.6901C285.319 96.6944 284.574 96.7037 283.773 96.7224C282.965 96.7367 282.111 96.774 281.211 96.8299L281.169 96.8301C280.57 96.8339 280.068 96.6226 279.664 96.2007C279.38 95.8465 279.241 95.4549 279.238 95.0169L279.237 94.9438C279.299 94.2407 279.581 93.7643 280.079 93.5147C280.411 93.3437 280.869 93.2541 281.452 93.2505C281.671 93.2491 281.858 93.2388 282.014 93.2104C282.165 93.1866 282.269 93.1677 282.327 93.1537C282.394 93.1441 282.431 93.1348 282.431 93.1348C282.555 93.0245 282.616 92.9419 282.616 92.878C282.681 92.6129 282.714 92.1472 282.709 91.4901L282.638 82.8745C282.63 81.9527 282.312 81.261 281.683 80.7995C280.997 80.2836 280.203 80.0239 279.302 80.0296C278.771 80.0329 278.292 80.0861 277.866 80.1846C277.434 80.2878 277.034 80.4181 276.661 80.5756C276.604 80.6125 276.557 80.6447 276.515 80.6678C276.484 80.6954 276.453 80.7138 276.412 80.7232C276.37 80.7371 276.329 80.7602 276.287 80.797C275.551 81.2306 275.034 81.6765 274.736 82.1394L274.813 91.5399C274.818 92.197 274.848 92.6623 274.908 92.9266C274.908 92.9905 274.971 93.0723 275.097 93.181C275.097 93.181 275.123 93.19 275.181 93.1987C275.249 93.212 275.358 93.2296 275.515 93.2514C275.666 93.2778 275.853 93.2858 276.077 93.2844L276.348 93.2826C276.848 93.2795 277.266 93.3864 277.601 93.6033C278.004 93.87 278.242 94.3203 278.32 94.9496L278.321 95.0226C278.322 95.1322 278.312 95.2372 278.303 95.3331C278.288 95.4336 278.263 95.5296 278.222 95.6257C278.191 95.7126 278.15 95.7995 278.099 95.9003C278.058 95.9963 278.007 96.0879 277.955 96.175C277.831 96.3081 277.676 96.4323 277.5 96.5429C277.334 96.6535 277.158 96.7322 276.981 96.7835C276.799 96.8303 276.612 96.8589 276.419 96.8601L276.378 96.8603C274.585 96.7986 272.971 96.7723 271.544 96.7813C270.861 96.7856 270.117 96.7948 269.315 96.8136C268.507 96.8278 267.653 96.8651 266.753 96.921L266.711 96.9213C266.128 96.925 265.647 96.7135 265.268 96.2915Z" fill="#12263A"/>
<path d="M230.263 116.282L227.89 111.478C232.585 109.815 236.149 107.41 238.581 104.255L242.783 98.4235L249.962 102.394L246.316 107.437C244.627 109.784 242.278 111.771 239.281 113.396C236.279 115.021 233.271 115.98 230.263 116.282Z" fill="#12263A"/>
<path d="M72.148 138.693C72.0546 138.693 71.9746 138.646 71.908 138.553C71.8546 138.473 71.828 138.386 71.828 138.293C71.8413 138.093 71.888 137.98 71.968 137.953C72.0613 137.94 72.168 137.933 72.288 137.933C72.648 137.933 72.8946 137.866 73.028 137.733C73.1746 137.613 73.2613 137.446 73.288 137.233C73.3146 137.02 73.328 136.8 73.328 136.573L73.328 127.893C73.328 127.653 73.3146 127.433 73.288 127.233C73.2746 127.02 73.2013 126.853 73.068 126.733C72.9346 126.6 72.6813 126.533 72.308 126.533C72.188 126.533 72.0746 126.52 71.968 126.493C71.8746 126.453 71.828 126.333 71.828 126.133C71.828 125.933 71.9346 125.813 72.148 125.773C72.7613 125.68 73.228 125.587 73.548 125.493C73.8813 125.4 74.128 125.32 74.288 125.253C74.4613 125.187 74.6147 125.147 74.748 125.133C74.8547 125.12 74.9413 125.14 75.008 125.193C75.088 125.247 75.128 125.353 75.128 125.513L75.128 126.473L75.188 126.473C75.5613 126.127 76.008 125.833 76.528 125.593C77.048 125.353 77.548 125.233 78.028 125.233C78.8414 125.233 79.5614 125.433 80.1881 125.833C80.8147 126.233 81.3081 126.793 81.6681 127.513C82.0281 128.22 82.2081 129.047 82.2081 129.993C82.2081 130.953 81.9881 131.793 81.5481 132.513C81.1081 133.233 80.5414 133.793 79.848 134.193C79.1547 134.58 78.4147 134.773 77.628 134.773C77.028 134.773 76.5413 134.706 76.168 134.573C75.808 134.453 75.4947 134.313 75.228 134.153L75.148 134.153L75.148 136.573C75.148 136.8 75.1613 137.02 75.188 137.233C75.2147 137.446 75.3013 137.613 75.448 137.733C75.5947 137.866 75.8413 137.933 76.188 137.933C76.308 137.933 76.408 137.94 76.488 137.953C76.5813 137.98 76.6347 138.093 76.648 138.293C76.648 138.386 76.6213 138.473 76.568 138.553C76.5147 138.646 76.4347 138.693 76.328 138.693C75.9413 138.666 75.5813 138.646 75.248 138.633C74.928 138.633 74.588 138.633 74.228 138.633C73.868 138.633 73.528 138.633 73.208 138.633C72.888 138.646 72.5346 138.666 72.148 138.693ZM77.468 134.093C77.988 134.093 78.4214 133.967 78.768 133.713C79.1147 133.447 79.388 133.113 79.588 132.713C79.8014 132.3 79.9481 131.86 80.0281 131.393C80.1214 130.913 80.1681 130.467 80.1681 130.053C80.1681 129.427 80.0681 128.827 79.868 128.253C79.6814 127.667 79.3747 127.187 78.948 126.813C78.5347 126.427 77.988 126.233 77.308 126.233C76.8013 126.233 76.3813 126.34 76.048 126.553C75.7147 126.753 75.4147 126.993 75.148 127.273L75.148 132.633C75.2947 132.98 75.5613 133.313 75.948 133.633C76.348 133.94 76.8547 134.093 77.468 134.093ZM88.5278 134.773C87.5945 134.773 86.7745 134.553 86.0678 134.113C85.3745 133.673 84.8345 133.1 84.4478 132.393C84.0611 131.687 83.8678 130.933 83.8678 130.133C83.8678 129.347 84.0078 128.647 84.2878 128.033C84.5678 127.42 84.9345 126.907 85.3878 126.493C85.8545 126.08 86.3611 125.767 86.9078 125.553C87.4545 125.34 87.9945 125.233 88.5278 125.233C89.4612 125.233 90.2745 125.453 90.9679 125.893C91.6745 126.333 92.2212 126.907 92.6079 127.613C92.9946 128.32 93.1879 129.073 93.1879 129.873C93.1879 130.66 93.0412 131.36 92.7479 131.973C92.4679 132.587 92.0946 133.1 91.6279 133.513C91.1745 133.927 90.6745 134.24 90.1279 134.453C89.5812 134.666 89.0478 134.773 88.5278 134.773ZM88.5278 134.033C89.1812 134.033 89.6945 133.84 90.0679 133.453C90.4545 133.067 90.7279 132.56 90.8879 131.933C91.0612 131.293 91.1479 130.607 91.1479 129.873C91.1479 129.167 91.0612 128.52 90.8879 127.933C90.7145 127.347 90.4345 126.873 90.0479 126.513C89.6612 126.153 89.1545 125.973 88.5278 125.973C87.8745 125.973 87.3545 126.167 86.9678 126.553C86.5812 126.927 86.3078 127.427 86.1478 128.053C85.9878 128.667 85.9078 129.347 85.9078 130.093C85.9078 130.787 85.9878 131.433 86.1478 132.033C86.3211 132.633 86.6012 133.12 86.9878 133.493C87.3745 133.853 87.8878 134.033 88.5278 134.033ZM98.1972 134.733L95.6371 127.633C95.4238 127.14 95.2171 126.793 95.0171 126.593C94.8171 126.38 94.5171 126.247 94.1171 126.193C93.9438 126.167 93.8238 126.14 93.7571 126.113C93.7038 126.087 93.6705 125.987 93.6571 125.813C93.6438 125.587 93.7038 125.467 93.8371 125.453C93.9838 125.427 94.1571 125.407 94.3571 125.393C95.1838 125.353 95.8305 125.473 96.2972 125.753C96.7638 126.033 97.1438 126.507 97.4372 127.173L99.2772 132.353L99.3372 132.353C99.4705 131.927 99.6305 131.393 99.8172 130.753C100.004 130.1 100.191 129.427 100.377 128.733C100.577 128.04 100.757 127.4 100.917 126.813C101.077 126.213 101.197 125.767 101.277 125.473L102.237 125.473L104.977 132.353L105.037 132.353C105.224 131.793 105.404 131.18 105.577 130.513C105.751 129.833 105.911 129.187 106.057 128.573C106.204 127.947 106.331 127.433 106.437 127.033C106.517 126.673 106.504 126.44 106.397 126.333C106.291 126.227 106.051 126.173 105.677 126.173C105.557 126.173 105.457 126.167 105.377 126.153C105.297 126.127 105.251 126.013 105.237 125.813C105.237 125.733 105.257 125.647 105.297 125.553C105.351 125.46 105.424 125.413 105.517 125.413C105.904 125.427 106.237 125.44 106.517 125.453C106.811 125.467 107.131 125.473 107.477 125.473C107.824 125.473 108.091 125.467 108.277 125.453C108.477 125.44 108.771 125.427 109.157 125.413C109.264 125.413 109.337 125.46 109.377 125.553C109.431 125.647 109.457 125.733 109.457 125.813C109.444 126.013 109.391 126.127 109.297 126.153C109.217 126.167 109.124 126.173 109.017 126.173C108.537 126.173 108.157 126.253 107.877 126.413C107.611 126.573 107.417 126.887 107.297 127.353L105.077 134.733L103.897 134.733L101.357 128.193L99.3772 134.733L98.1972 134.733ZM114.349 134.773C113.322 134.773 112.456 134.553 111.749 134.113C111.056 133.673 110.536 133.087 110.189 132.353C109.842 131.62 109.669 130.82 109.669 129.953C109.669 129.367 109.769 128.8 109.969 128.253C110.182 127.693 110.482 127.187 110.869 126.733C111.256 126.267 111.722 125.9 112.269 125.633C112.816 125.367 113.436 125.233 114.129 125.233C115.356 125.233 116.276 125.553 116.889 126.193C117.516 126.82 117.876 127.62 117.969 128.593C117.969 129.06 117.836 129.367 117.569 129.513C117.316 129.66 116.982 129.733 116.569 129.733L111.709 129.733C111.709 130.507 111.816 131.2 112.029 131.813C112.242 132.413 112.576 132.893 113.029 133.253C113.496 133.6 114.109 133.773 114.869 133.773C115.429 133.773 115.909 133.653 116.309 133.413C116.709 133.173 117.096 132.753 117.469 132.153C117.576 132.02 117.722 132.013 117.909 132.133C118.016 132.187 118.082 132.273 118.109 132.393C118.136 132.5 118.122 132.593 118.069 132.673C117.656 133.327 117.136 133.84 116.509 134.213C115.882 134.586 115.162 134.773 114.349 134.773ZM111.709 128.973L114.969 128.973C115.289 128.973 115.542 128.913 115.729 128.793C115.929 128.66 116.036 128.44 116.049 128.133C116.049 127.56 115.889 127.053 115.569 126.613C115.262 126.16 114.782 125.933 114.129 125.933C113.462 125.933 112.902 126.2 112.449 126.733C112.009 127.267 111.762 128.013 111.709 128.973ZM119.868 134.593C119.775 134.593 119.695 134.553 119.628 134.473C119.575 134.38 119.548 134.287 119.548 134.193C119.575 133.993 119.628 133.887 119.708 133.873C119.788 133.847 119.895 133.833 120.028 133.833C120.401 133.833 120.655 133.773 120.788 133.653C120.921 133.52 120.995 133.347 121.008 133.133C121.035 132.92 121.048 132.7 121.048 132.473L121.048 127.893C121.048 127.653 121.035 127.433 121.008 127.233C120.995 127.02 120.921 126.853 120.788 126.733C120.655 126.6 120.401 126.533 120.028 126.533C119.908 126.533 119.795 126.52 119.688 126.493C119.595 126.453 119.548 126.333 119.548 126.133C119.548 125.933 119.655 125.813 119.868 125.773C120.481 125.68 120.948 125.587 121.268 125.493C121.601 125.4 121.848 125.32 122.008 125.253C122.181 125.187 122.335 125.147 122.468 125.133C122.575 125.12 122.661 125.14 122.728 125.193C122.808 125.247 122.848 125.353 122.848 125.513L122.848 126.753L122.908 126.753C123.361 126.313 123.828 125.953 124.308 125.673C124.788 125.38 125.228 125.233 125.628 125.233C126.095 125.233 126.448 125.407 126.688 125.753C126.941 126.1 127.068 126.467 127.068 126.853C127.068 127.187 126.961 127.513 126.748 127.833C126.535 128.14 126.215 128.293 125.788 128.293C125.575 128.293 125.401 128.253 125.268 128.173C125.148 128.08 125.081 128.013 125.068 127.973C125.068 127.947 125.128 127.867 125.248 127.733C125.381 127.6 125.448 127.433 125.448 127.233C125.448 126.993 125.381 126.8 125.248 126.653C125.128 126.507 124.961 126.433 124.748 126.433C124.521 126.433 124.228 126.547 123.868 126.773C123.521 127 123.188 127.273 122.868 127.593L122.868 132.473C122.868 132.7 122.875 132.92 122.888 133.133C122.915 133.347 122.995 133.52 123.128 133.653C123.275 133.773 123.535 133.833 123.908 133.833C124.028 133.833 124.128 133.847 124.208 133.873C124.301 133.887 124.355 133.993 124.368 134.193C124.368 134.287 124.341 134.38 124.288 134.473C124.235 134.553 124.155 134.593 124.048 134.593C123.661 134.566 123.301 134.546 122.968 134.533C122.648 134.533 122.308 134.533 121.948 134.533C121.588 134.533 121.248 134.533 120.928 134.533C120.608 134.546 120.255 134.566 119.868 134.593ZM132.806 134.773C131.78 134.773 130.913 134.553 130.206 134.113C129.513 133.673 128.993 133.087 128.646 132.353C128.299 131.62 128.126 130.82 128.126 129.953C128.126 129.367 128.226 128.8 128.426 128.253C128.639 127.693 128.939 127.187 129.326 126.733C129.713 126.267 130.179 125.9 130.726 125.633C131.273 125.367 131.893 125.233 132.586 125.233C133.813 125.233 134.733 125.553 135.346 126.193C135.973 126.82 136.333 127.62 136.426 128.593C136.426 129.06 136.293 129.367 136.026 129.513C135.773 129.66 135.44 129.733 135.026 129.733L130.166 129.733C130.166 130.507 130.273 131.2 130.486 131.813C130.699 132.413 131.033 132.893 131.486 133.253C131.953 133.6 132.566 133.773 133.326 133.773C133.886 133.773 134.366 133.653 134.766 133.413C135.166 133.173 135.553 132.753 135.926 132.153C136.033 132.02 136.18 132.013 136.366 132.133C136.473 132.187 136.54 132.273 136.566 132.393C136.593 132.5 136.58 132.593 136.526 132.673C136.113 133.327 135.593 133.84 134.966 134.213C134.34 134.586 133.62 134.773 132.806 134.773ZM130.166 128.973L133.426 128.973C133.746 128.973 134 128.913 134.186 128.793C134.386 128.66 134.493 128.44 134.506 128.133C134.506 127.56 134.346 127.053 134.026 126.613C133.72 126.16 133.24 125.933 132.586 125.933C131.92 125.933 131.36 126.2 130.906 126.733C130.466 127.267 130.219 128.013 130.166 128.973ZM142.365 134.773C141.619 134.773 140.925 134.573 140.285 134.173C139.645 133.773 139.132 133.213 138.745 132.493C138.359 131.773 138.165 130.94 138.165 129.993C138.165 129.167 138.359 128.393 138.745 127.673C139.145 126.94 139.692 126.353 140.385 125.913C141.092 125.46 141.892 125.233 142.785 125.233C143.212 125.233 143.632 125.287 144.045 125.393C144.459 125.487 144.812 125.62 145.105 125.793L145.165 125.793L145.165 122.733C145.165 122.493 145.152 122.273 145.125 122.073C145.112 121.86 145.039 121.693 144.905 121.573C144.772 121.44 144.519 121.373 144.145 121.373C144.025 121.373 143.912 121.36 143.805 121.333C143.712 121.293 143.665 121.173 143.665 120.973C143.665 120.773 143.772 120.653 143.985 120.613C144.599 120.52 145.065 120.427 145.385 120.333C145.719 120.24 145.972 120.16 146.145 120.093C146.319 120.027 146.472 119.987 146.605 119.973C146.712 119.96 146.799 119.98 146.865 120.033C146.945 120.087 146.985 120.193 146.985 120.353L146.985 132.693C146.985 133.48 147.505 133.873 148.545 133.873C148.692 133.873 148.785 133.913 148.825 133.993C148.865 134.06 148.885 134.127 148.885 134.193C148.885 134.38 148.772 134.493 148.545 134.533L145.365 134.753C145.272 134.753 145.219 134.713 145.205 134.633C145.192 134.553 145.185 134.46 145.185 134.353L145.185 133.553L145.125 133.553C144.792 133.9 144.372 134.193 143.865 134.433C143.372 134.66 142.872 134.773 142.365 134.773ZM143.045 133.773C143.552 133.773 143.972 133.673 144.305 133.473C144.639 133.26 144.925 133.027 145.165 132.773L145.165 127.493C145.099 127.267 144.972 127.04 144.785 126.813C144.612 126.573 144.372 126.373 144.065 126.213C143.772 126.04 143.412 125.953 142.985 125.953C142.212 125.953 141.559 126.32 141.025 127.053C140.492 127.773 140.225 128.787 140.225 130.093C140.225 130.72 140.325 131.32 140.525 131.893C140.739 132.453 141.052 132.907 141.465 133.253C141.879 133.6 142.405 133.773 143.045 133.773ZM155.34 134.813C155.22 134.813 155.127 134.773 155.06 134.693C154.994 134.613 154.96 134.52 154.96 134.413L154.96 122.733C154.96 122.493 154.947 122.273 154.92 122.073C154.907 121.86 154.834 121.693 154.7 121.573C154.567 121.44 154.314 121.373 153.94 121.373C153.82 121.373 153.707 121.36 153.6 121.333C153.507 121.293 153.46 121.173 153.46 120.973C153.46 120.773 153.567 120.653 153.78 120.613C154.394 120.52 154.86 120.427 155.18 120.333C155.514 120.24 155.767 120.16 155.94 120.093C156.114 120.027 156.267 119.987 156.4 119.973C156.507 119.96 156.594 119.98 156.66 120.033C156.74 120.087 156.78 120.193 156.78 120.353L156.78 126.393L156.84 126.393C157.24 125.993 157.687 125.7 158.18 125.513C158.674 125.327 159.147 125.233 159.6 125.233C160.387 125.233 161.094 125.433 161.72 125.833C162.36 126.233 162.867 126.787 163.24 127.493C163.614 128.187 163.8 129 163.8 129.933C163.8 130.84 163.587 131.66 163.16 132.393C162.734 133.127 162.174 133.707 161.48 134.133C160.787 134.56 160.034 134.773 159.22 134.773C158.034 134.773 157.007 134.447 156.14 133.793L156.04 133.793C155.947 133.993 155.854 134.213 155.76 134.453C155.68 134.693 155.54 134.813 155.34 134.813ZM159.04 134.093C159.84 134.093 160.494 133.727 161 132.993C161.507 132.26 161.76 131.267 161.76 130.013C161.76 129.387 161.66 128.787 161.46 128.213C161.274 127.64 160.967 127.167 160.54 126.793C160.127 126.42 159.58 126.233 158.9 126.233C158.447 126.233 158.047 126.313 157.7 126.473C157.354 126.633 157.047 126.86 156.78 127.153L156.78 132.433C156.82 132.62 156.927 132.847 157.1 133.113C157.287 133.367 157.54 133.593 157.86 133.793C158.18 133.993 158.574 134.093 159.04 134.093ZM166.219 138.893C165.832 138.893 165.465 138.806 165.119 138.633C164.785 138.46 164.519 138.226 164.319 137.933C164.119 137.653 164.019 137.346 164.019 137.013C164.032 136.653 164.112 136.373 164.259 136.173C164.392 135.986 164.545 135.853 164.719 135.773C164.892 135.706 165.039 135.666 165.159 135.653C165.279 135.64 165.325 135.633 165.299 135.633C165.552 135.633 165.745 135.68 165.879 135.773C166.012 135.88 166.079 135.966 166.079 136.033C166.079 136.06 166.025 136.12 165.919 136.213C165.825 136.32 165.772 136.5 165.759 136.753C165.745 136.993 165.819 137.226 165.979 137.453C166.139 137.68 166.385 137.793 166.719 137.793C167.092 137.793 167.432 137.653 167.739 137.373C168.045 137.106 168.319 136.773 168.559 136.373C168.799 135.973 169.005 135.586 169.179 135.213C169.272 134.92 169.265 134.613 169.159 134.293C168.839 133.573 168.525 132.807 168.219 131.993C167.912 131.18 167.612 130.393 167.319 129.633C167.039 128.873 166.759 128.207 166.479 127.633C166.265 127.14 166.059 126.793 165.859 126.593C165.659 126.38 165.359 126.247 164.959 126.193C164.785 126.167 164.665 126.14 164.599 126.113C164.545 126.087 164.512 125.987 164.499 125.813C164.485 125.587 164.545 125.467 164.679 125.453C164.825 125.427 164.999 125.407 165.199 125.393C166.025 125.353 166.672 125.473 167.139 125.753C167.605 126.033 167.985 126.507 168.279 127.173C168.465 127.587 168.672 128.1 168.899 128.713C169.125 129.327 169.365 129.947 169.619 130.573C169.872 131.2 170.119 131.767 170.359 132.273L170.419 132.273L172.379 127.033C172.512 126.647 172.519 126.407 172.399 126.313C172.279 126.22 172.019 126.173 171.619 126.173C171.499 126.173 171.399 126.167 171.319 126.153C171.239 126.127 171.192 126.013 171.179 125.813C171.179 125.733 171.199 125.647 171.239 125.553C171.292 125.46 171.366 125.413 171.459 125.413C171.846 125.427 172.179 125.44 172.459 125.453C172.739 125.467 173.052 125.473 173.399 125.473C173.639 125.473 173.832 125.473 173.979 125.473C174.126 125.46 174.279 125.453 174.439 125.453C174.599 125.44 174.806 125.427 175.059 125.413C175.166 125.413 175.239 125.46 175.279 125.553C175.332 125.647 175.359 125.733 175.359 125.813C175.346 126.013 175.292 126.127 175.199 126.153C175.119 126.167 175.026 126.173 174.919 126.173C174.479 126.173 174.126 126.253 173.859 126.413C173.606 126.573 173.386 126.887 173.199 127.353C173.199 127.353 173.126 127.527 172.979 127.873C172.846 128.22 172.666 128.673 172.439 129.233C172.212 129.793 171.972 130.387 171.719 131.013C171.466 131.627 171.226 132.213 170.999 132.773C170.772 133.333 170.585 133.793 170.439 134.153C170.292 134.513 170.212 134.706 170.199 134.733C170.025 135.146 169.812 135.593 169.559 136.073C169.319 136.566 169.032 137.02 168.699 137.433C168.379 137.86 168.012 138.206 167.599 138.473C167.185 138.753 166.725 138.893 166.219 138.893ZM183.367 134.593C183.234 134.593 183.141 134.546 183.087 134.453C183.034 134.36 183.007 134.26 183.007 134.153C183.021 133.927 183.074 133.8 183.167 133.773C183.261 133.747 183.374 133.733 183.507 133.733C183.934 133.733 184.234 133.66 184.407 133.513C184.581 133.353 184.687 133.16 184.727 132.933C184.781 132.693 184.807 132.447 184.807 132.193L184.807 122.653L183.427 122.653C182.974 122.667 182.621 122.767 182.367 122.953C182.114 123.127 181.927 123.407 181.807 123.793C181.687 124.167 181.581 124.653 181.487 125.253C181.474 125.373 181.387 125.467 181.227 125.533C181.081 125.587 180.934 125.613 180.787 125.613C180.694 125.613 180.587 125.58 180.467 125.513C180.361 125.447 180.307 125.347 180.307 125.213L180.367 122.393C180.367 122.207 180.421 122.08 180.527 122.013C180.634 121.947 180.761 121.913 180.907 121.913L190.687 121.913C190.834 121.913 190.954 121.947 191.047 122.013C191.154 122.08 191.207 122.207 191.207 122.393L191.287 125.213C191.287 125.347 191.227 125.447 191.107 125.513C191.001 125.58 190.894 125.613 190.787 125.613C190.654 125.613 190.514 125.587 190.367 125.533C190.221 125.467 190.134 125.373 190.107 125.253C190.014 124.653 189.901 124.167 189.767 123.793C189.647 123.407 189.461 123.127 189.207 122.953C188.967 122.767 188.614 122.667 188.147 122.653L186.787 122.653L186.787 132.193C186.801 132.447 186.827 132.693 186.867 132.933C186.907 133.16 187.014 133.353 187.187 133.513C187.374 133.66 187.674 133.733 188.087 133.733C188.221 133.733 188.334 133.747 188.427 133.773C188.521 133.8 188.574 133.927 188.587 134.153C188.587 134.26 188.561 134.36 188.507 134.453C188.454 134.546 188.361 134.593 188.227 134.593C187.801 134.566 187.394 134.546 187.007 134.533C186.634 134.533 186.254 134.533 185.867 134.533C185.067 134.533 184.234 134.553 183.367 134.593ZM196.381 134.773C195.447 134.773 194.627 134.553 193.921 134.113C193.227 133.673 192.687 133.1 192.301 132.393C191.914 131.687 191.721 130.933 191.721 130.133C191.721 129.347 191.861 128.647 192.141 128.033C192.421 127.42 192.787 126.907 193.241 126.493C193.707 126.08 194.214 125.767 194.761 125.553C195.307 125.34 195.847 125.233 196.381 125.233C197.314 125.233 198.127 125.453 198.821 125.893C199.527 126.333 200.074 126.907 200.461 127.613C200.847 128.32 201.041 129.073 201.041 129.873C201.041 130.66 200.894 131.36 200.601 131.973C200.321 132.587 199.947 133.1 199.481 133.513C199.027 133.927 198.527 134.24 197.981 134.453C197.434 134.666 196.901 134.773 196.381 134.773ZM196.381 134.033C197.034 134.033 197.547 133.84 197.921 133.453C198.307 133.067 198.581 132.56 198.741 131.933C198.914 131.293 199.001 130.607 199.001 129.873C199.001 129.167 198.914 128.52 198.741 127.933C198.567 127.347 198.287 126.873 197.901 126.513C197.514 126.153 197.007 125.973 196.381 125.973C195.727 125.973 195.207 126.167 194.821 126.553C194.434 126.927 194.161 127.427 194.001 128.053C193.841 128.667 193.761 129.347 193.761 130.093C193.761 130.787 193.841 131.433 194.001 132.033C194.174 132.633 194.454 133.12 194.841 133.493C195.227 133.853 195.741 134.033 196.381 134.033ZM206.878 134.773C206.131 134.773 205.438 134.573 204.798 134.173C204.158 133.773 203.644 133.213 203.258 132.493C202.871 131.773 202.678 130.94 202.678 129.993C202.678 129.167 202.871 128.393 203.258 127.673C203.658 126.94 204.205 126.353 204.898 125.913C205.605 125.46 206.405 125.233 207.298 125.233C207.725 125.233 208.145 125.287 208.558 125.393C208.971 125.487 209.325 125.62 209.618 125.793L209.678 125.793L209.678 122.733C209.678 122.493 209.665 122.273 209.638 122.073C209.625 121.86 209.551 121.693 209.418 121.573C209.285 121.44 209.031 121.373 208.658 121.373C208.538 121.373 208.425 121.36 208.318 121.333C208.225 121.293 208.178 121.173 208.178 120.973C208.178 120.773 208.285 120.653 208.498 120.613C209.111 120.52 209.578 120.427 209.898 120.333C210.231 120.24 210.485 120.16 210.658 120.093C210.831 120.027 210.985 119.987 211.118 119.973C211.225 119.96 211.311 119.98 211.378 120.033C211.458 120.087 211.498 120.193 211.498 120.353L211.498 132.693C211.498 133.48 212.018 133.873 213.058 133.873C213.205 133.873 213.298 133.913 213.338 133.993C213.378 134.06 213.398 134.127 213.398 134.193C213.398 134.38 213.285 134.493 213.058 134.533L209.878 134.753C209.785 134.753 209.731 134.713 209.718 134.633C209.705 134.553 209.698 134.46 209.698 134.353L209.698 133.553L209.638 133.553C209.305 133.9 208.885 134.193 208.378 134.433C207.885 134.66 207.385 134.773 206.878 134.773ZM207.558 133.773C208.065 133.773 208.485 133.673 208.818 133.473C209.151 133.26 209.438 133.027 209.678 132.773L209.678 127.493C209.611 127.267 209.485 127.04 209.298 126.813C209.125 126.573 208.885 126.373 208.578 126.213C208.285 126.04 207.925 125.953 207.498 125.953C206.725 125.953 206.071 126.32 205.538 127.053C205.005 127.773 204.738 128.787 204.738 130.093C204.738 130.72 204.838 131.32 205.038 131.893C205.251 132.453 205.565 132.907 205.978 133.253C206.391 133.6 206.918 133.773 207.558 133.773ZM218.94 134.773C218.006 134.773 217.186 134.553 216.48 134.113C215.786 133.673 215.246 133.1 214.86 132.393C214.473 131.687 214.28 130.933 214.28 130.133C214.28 129.347 214.42 128.647 214.7 128.033C214.98 127.42 215.346 126.907 215.8 126.493C216.266 126.08 216.773 125.767 217.32 125.553C217.866 125.34 218.406 125.233 218.94 125.233C219.873 125.233 220.686 125.453 221.38 125.893C222.086 126.333 222.633 126.907 223.02 127.613C223.406 128.32 223.6 129.073 223.6 129.873C223.6 130.66 223.453 131.36 223.16 131.973C222.88 132.587 222.506 133.1 222.04 133.513C221.586 133.927 221.086 134.24 220.54 134.453C219.993 134.666 219.46 134.773 218.94 134.773ZM218.94 134.033C219.593 134.033 220.106 133.84 220.48 133.453C220.866 133.067 221.14 132.56 221.3 131.933C221.473 131.293 221.56 130.607 221.56 129.873C221.56 129.167 221.473 128.52 221.3 127.933C221.126 127.347 220.846 126.873 220.46 126.513C220.073 126.153 219.566 125.973 218.94 125.973C218.286 125.973 217.766 126.167 217.38 126.553C216.993 126.927 216.72 127.427 216.56 128.053C216.4 128.667 216.32 129.347 216.32 130.093C216.32 130.787 216.4 131.433 216.56 132.033C216.733 132.633 217.013 133.12 217.4 133.493C217.786 133.853 218.3 134.033 218.94 134.033ZM231.577 134.933C230.457 134.933 229.43 134.666 228.497 134.133C227.563 133.6 226.81 132.84 226.237 131.853C225.677 130.867 225.397 129.687 225.397 128.313C225.397 126.953 225.663 125.767 226.197 124.753C226.73 123.727 227.483 122.933 228.457 122.373C229.443 121.8 230.603 121.513 231.937 121.513C232.417 121.513 232.91 121.56 233.417 121.653C233.937 121.747 234.417 121.907 234.857 122.133C235.297 122.347 235.65 122.633 235.917 122.993C236.197 123.353 236.337 123.8 236.337 124.333C236.35 124.907 236.177 125.413 235.817 125.853C235.457 126.28 234.95 126.493 234.297 126.493C233.897 126.493 233.61 126.4 233.437 126.213C233.277 126.013 233.203 125.867 233.217 125.773C233.217 125.733 233.297 125.667 233.457 125.573C233.63 125.467 233.797 125.313 233.957 125.113C234.13 124.9 234.217 124.62 234.217 124.273C234.217 123.673 234.017 123.2 233.617 122.853C233.217 122.493 232.65 122.313 231.917 122.313C231.117 122.313 230.397 122.54 229.757 122.993C229.13 123.447 228.637 124.113 228.277 124.993C227.917 125.86 227.737 126.927 227.737 128.193C227.737 129.26 227.923 130.233 228.297 131.113C228.683 131.98 229.217 132.673 229.897 133.193C230.59 133.7 231.39 133.953 232.297 133.953C233.017 133.953 233.63 133.807 234.137 133.513C234.657 133.207 235.123 132.72 235.537 132.053C235.657 131.827 235.87 131.807 236.177 131.993C236.297 132.073 236.39 132.173 236.457 132.293C236.523 132.4 236.51 132.513 236.417 132.633C235.91 133.273 235.43 133.76 234.977 134.093C234.523 134.413 234.03 134.633 233.497 134.753C232.963 134.873 232.323 134.933 231.577 134.933ZM242.514 134.773C241.581 134.773 240.761 134.553 240.054 134.113C239.361 133.673 238.821 133.1 238.434 132.393C238.047 131.687 237.854 130.933 237.854 130.133C237.854 129.347 237.994 128.647 238.274 128.033C238.554 127.42 238.921 126.907 239.374 126.493C239.841 126.08 240.347 125.767 240.894 125.553C241.441 125.34 241.981 125.233 242.514 125.233C243.447 125.233 244.261 125.453 244.954 125.893C245.661 126.333 246.207 126.907 246.594 127.613C246.981 128.32 247.174 129.073 247.174 129.873C247.174 130.66 247.027 131.36 246.734 131.973C246.454 132.587 246.081 133.1 245.614 133.513C245.161 133.927 244.661 134.24 244.114 134.453C243.567 134.666 243.034 134.773 242.514 134.773ZM242.514 134.033C243.167 134.033 243.681 133.84 244.054 133.453C244.441 133.067 244.714 132.56 244.874 131.933C245.047 131.293 245.134 130.607 245.134 129.873C245.134 129.167 245.047 128.52 244.874 127.933C244.701 127.347 244.421 126.873 244.034 126.513C243.647 126.153 243.141 125.973 242.514 125.973C241.861 125.973 241.341 126.167 240.954 126.553C240.567 126.927 240.294 127.427 240.134 128.053C239.974 128.667 239.894 129.347 239.894 130.093C239.894 130.787 239.974 131.433 240.134 132.033C240.307 132.633 240.587 133.12 240.974 133.493C241.361 133.853 241.874 134.033 242.514 134.033ZM253.011 134.773C252.265 134.773 251.571 134.573 250.931 134.173C250.291 133.773 249.778 133.213 249.391 132.493C249.005 131.773 248.811 130.94 248.811 129.993C248.811 129.167 249.005 128.393 249.391 127.673C249.791 126.94 250.338 126.353 251.031 125.913C251.738 125.46 252.538 125.233 253.431 125.233C253.858 125.233 254.278 125.287 254.691 125.393C255.105 125.487 255.458 125.62 255.751 125.793L255.811 125.793L255.811 122.733C255.811 122.493 255.798 122.273 255.771 122.073C255.758 121.86 255.685 121.693 255.551 121.573C255.418 121.44 255.165 121.373 254.791 121.373C254.671 121.373 254.558 121.36 254.451 121.333C254.358 121.293 254.311 121.173 254.311 120.973C254.311 120.773 254.418 120.653 254.631 120.613C255.245 120.52 255.711 120.427 256.031 120.333C256.365 120.24 256.618 120.16 256.791 120.093C256.965 120.027 257.118 119.987 257.251 119.973C257.358 119.96 257.445 119.98 257.511 120.033C257.591 120.087 257.631 120.193 257.631 120.353L257.631 132.693C257.631 133.48 258.151 133.873 259.191 133.873C259.338 133.873 259.431 133.913 259.471 133.993C259.511 134.06 259.531 134.127 259.531 134.193C259.531 134.38 259.418 134.493 259.191 134.533L256.011 134.753C255.918 134.753 255.865 134.713 255.851 134.633C255.838 134.553 255.831 134.46 255.831 134.353L255.831 133.553L255.771 133.553C255.438 133.9 255.018 134.193 254.511 134.433C254.018 134.66 253.518 134.773 253.011 134.773ZM253.691 133.773C254.198 133.773 254.618 133.673 254.951 133.473C255.285 133.26 255.571 133.027 255.811 132.773L255.811 127.493C255.745 127.267 255.618 127.04 255.431 126.813C255.258 126.573 255.018 126.373 254.711 126.213C254.418 126.04 254.058 125.953 253.631 125.953C252.858 125.953 252.205 126.32 251.671 127.053C251.138 127.773 250.871 128.787 250.871 130.093C250.871 130.72 250.971 131.32 251.171 131.893C251.385 132.453 251.698 132.907 252.111 133.253C252.525 133.6 253.051 133.773 253.691 133.773ZM265.093 134.773C264.066 134.773 263.2 134.553 262.493 134.113C261.8 133.673 261.28 133.087 260.933 132.353C260.586 131.62 260.413 130.82 260.413 129.953C260.413 129.367 260.513 128.8 260.713 128.253C260.926 127.693 261.226 127.187 261.613 126.733C262 126.267 262.466 125.9 263.013 125.633C263.56 125.367 264.18 125.233 264.873 125.233C266.1 125.233 267.02 125.553 267.633 126.193C268.26 126.82 268.62 127.62 268.713 128.593C268.713 129.06 268.58 129.367 268.313 129.513C268.06 129.66 267.726 129.733 267.313 129.733L262.453 129.733C262.453 130.507 262.56 131.2 262.773 131.813C262.986 132.413 263.32 132.893 263.773 133.253C264.24 133.6 264.853 133.773 265.613 133.773C266.173 133.773 266.653 133.653 267.053 133.413C267.453 133.173 267.84 132.753 268.213 132.153C268.32 132.02 268.466 132.013 268.653 132.133C268.76 132.187 268.826 132.273 268.853 132.393C268.88 132.5 268.866 132.593 268.813 132.673C268.4 133.327 267.88 133.84 267.253 134.213C266.626 134.586 265.906 134.773 265.093 134.773ZM262.453 128.973L265.713 128.973C266.033 128.973 266.286 128.913 266.473 128.793C266.673 128.66 266.78 128.44 266.793 128.133C266.793 127.56 266.633 127.053 266.313 126.613C266.006 126.16 265.526 125.933 264.873 125.933C264.206 125.933 263.646 126.2 263.193 126.733C262.753 127.267 262.506 128.013 262.453 128.973Z" fill="#12263A"/>
</svg>
