<svg width="343" height="196" viewBox="0 0 343 196" fill="none" xmlns="http://www.w3.org/2000/svg">
<path d="M32.6536 111.53C32.3694 111.126 32.2307 110.668 32.2269 110.137L32.2261 110.033C32.2261 110.033 32.2258 109.991 32.2252 109.908C32.2245 109.814 32.2293 109.757 32.2448 109.741C32.2708 109.731 32.286 109.673 32.2853 109.574C32.2846 109.48 32.2893 109.408 32.3046 109.366C32.3147 109.314 32.3299 109.251 32.345 109.178C32.3548 109.095 32.3752 109.032 32.4061 108.99C32.4318 108.948 32.4679 108.896 32.5091 108.823C32.5606 108.739 32.6122 108.676 32.6536 108.634C32.7053 108.582 32.7673 108.524 32.8398 108.466C32.9227 108.398 32.9901 108.35 33.0471 108.319C33.3893 108.097 33.8885 107.979 34.5447 107.975C35.1957 107.97 35.6275 107.894 35.8347 107.736C35.959 107.641 36.0417 107.547 36.0827 107.463C36.1341 107.369 36.1751 107.27 36.2056 107.171C36.2308 107.046 36.2557 106.9 36.2858 106.733C36.3263 106.566 36.351 106.389 36.3652 106.191C36.3742 105.982 36.383 105.769 36.3814 105.545L36.2303 84.5452L34.1887 84.5599C33.9075 84.5619 33.6473 84.595 33.3976 84.6489C33.148 84.6923 32.9505 84.7511 32.8155 84.8197C32.6753 84.878 32.5456 84.9467 32.4212 85.0309C32.0483 85.3253 31.7598 85.7649 31.5557 86.3497C31.4841 86.5325 31.4178 86.7361 31.3517 86.9553C31.2959 87.1641 31.2352 87.4145 31.1696 87.7067C31.1143 87.9883 31.0592 88.2856 31.0094 88.6037C30.9544 88.927 30.9099 89.2607 30.8707 89.6047C30.7923 90.2876 30.3794 90.8062 29.6319 91.1553C29.1334 91.3672 28.6185 91.4751 28.0925 91.4789C27.5769 91.4826 27.0966 91.335 26.6517 91.0309C26.0916 90.6339 25.8116 90.0942 25.8067 89.412L25.9053 82.8486C25.9008 82.2132 26.0845 81.691 26.4566 81.2821C26.8803 80.8103 27.4983 80.5662 28.3056 80.5604L51.0133 80.397C51.3571 80.3945 51.6804 80.4443 51.9727 80.536C52.2651 80.6328 52.5371 80.7975 52.7888 81.0301C53.0091 81.2525 53.1672 81.5013 53.2525 81.7768C53.3483 82.0573 53.4024 82.3486 53.4046 82.6507L53.6393 89.2117C53.6417 89.545 53.5658 89.8529 53.4168 90.13C53.2626 90.4123 53.0507 90.6482 52.7761 90.8429C52.3304 91.1534 51.8471 91.308 51.3211 91.3118C51.0398 91.3138 50.7688 91.2897 50.508 91.2343C50.2575 91.1684 50.0174 91.092 49.798 91.0102C49.0872 90.6716 48.6774 90.1745 48.5789 89.5189C48.3443 88.0362 48.0863 86.9287 47.805 86.1911C47.6187 85.6403 47.3396 85.2152 46.9625 84.9263C46.7794 84.8182 46.5287 84.7159 46.2103 84.6192C45.9023 84.5277 45.5478 84.4781 45.1467 84.481L43.1468 84.4954L43.2979 105.495C43.3289 106.177 43.3953 106.718 43.4971 107.118C43.5238 107.217 43.561 107.316 43.6034 107.409C43.656 107.492 43.7505 107.585 43.8761 107.678C44.096 107.833 44.5288 107.903 45.1694 107.898L45.4611 107.896C45.5861 107.895 45.6903 107.905 45.7737 107.915C45.8676 107.93 45.9823 107.95 46.1075 107.975C46.2326 107.989 46.3474 108.025 46.4624 108.076C46.5722 108.133 46.6821 108.21 46.7974 108.303C47.2006 108.607 47.4389 109.147 47.5174 109.923L47.5181 110.027C47.5219 110.558 47.3846 111.018 47.1115 111.426C46.9876 111.578 46.8324 111.72 46.6562 111.846C46.4904 111.972 46.3036 112.062 46.0957 112.121C45.8981 112.174 45.7108 112.207 45.5338 112.208L45.4921 112.208C44.4917 112.158 43.5384 112.129 42.6373 112.125C41.7465 112.116 40.8872 112.117 40.0538 112.123C38.2206 112.136 36.2938 112.191 34.2841 112.289L34.2424 112.289C33.5601 112.294 33.0322 112.038 32.6536 111.53Z" fill="black"/>
<path d="M54.6328 111.414C54.3225 111.01 54.1683 110.563 54.1647 110.063L54.1641 109.979C54.1641 109.979 54.1639 109.959 54.1636 109.917C54.2099 109.114 54.5133 108.571 55.0686 108.285C55.3852 108.132 55.8378 108.051 56.4211 108.046C56.9471 108.043 57.2749 107.999 57.3993 107.914C57.4924 107.82 57.5543 107.736 57.585 107.663C57.6086 107.33 57.6204 106.788 57.615 106.038L57.5385 95.4131C57.5331 94.6631 57.5136 94.1216 57.4852 93.7884C57.4534 93.7209 57.3903 93.6381 57.2959 93.5398C57.1703 93.4573 56.8419 93.418 56.3158 93.4218C55.7325 93.426 55.2526 93.3201 54.876 93.0988C54.3163 92.7695 54.036 92.183 54.0299 91.3341C54.0268 90.907 54.1593 90.4998 54.4379 90.1228C54.7369 89.6935 55.1881 89.4298 55.7865 89.3422C56.7022 89.2106 57.5604 89.0482 58.3663 88.8445C59.1668 88.6304 59.8684 88.4118 60.4657 88.1835L60.5071 88.1415L60.5488 88.1412C61.0998 87.9862 61.5052 87.8739 61.7547 87.7992L62.088 87.7968C62.6401 87.7928 63.0947 87.9979 63.4466 88.4121C63.809 88.8261 63.9947 89.2988 63.9985 89.8248L64.0015 90.2414C64.5505 89.8104 65.1259 89.4365 65.7227 89.1249C66.1219 88.872 66.5215 88.6712 66.9266 88.512C67.3266 88.3581 67.7267 88.2302 68.1322 88.1283C68.5326 88.0317 68.9228 87.9768 69.2978 87.9741C69.7249 87.971 70.1524 88.0305 70.57 88.1525C70.9875 88.2745 71.3638 88.454 71.6988 88.686C72.0443 88.9231 72.3588 89.2021 72.6424 89.5334C73.0208 90.0047 73.3058 90.5235 73.5078 91.0897C73.7203 91.6611 73.8287 92.2541 73.8332 92.8791C73.8414 94.0197 73.5049 95.0274 72.8341 95.9072C72.06 96.9024 71.0219 97.3994 69.7199 97.4088C69.5115 97.4103 69.3083 97.4014 69.1154 97.3715C68.9329 97.3468 68.7451 97.3065 68.552 97.2505C68.3693 97.1842 68.1864 97.1021 68.0086 97.0045C68.0084 96.9784 67.9508 96.9424 67.8412 96.9015C67.7262 96.8502 67.653 96.8091 67.6111 96.7781C67.5693 96.7524 67.5065 96.7112 67.4227 96.6545C67.3389 96.5874 67.2602 96.5098 67.1919 96.427C67.134 96.3441 67.0865 96.2559 67.0441 96.1572C67.0017 96.0481 66.9644 95.9286 66.9374 95.8038L66.8303 95.3879L67.015 95.0115C67.0404 94.9176 67.0763 94.834 67.1174 94.7608C67.1689 94.6771 67.2102 94.6247 67.2412 94.5932C67.2671 94.567 67.3239 94.5041 67.4065 94.4046C67.4892 94.3102 67.5563 94.2316 67.6132 94.1739C67.6648 94.1058 67.7008 94.0483 67.7162 94.0065C67.7419 93.9646 67.757 93.8968 67.7563 93.7979C67.7554 93.6729 67.7391 93.5792 67.7126 93.5065C67.6963 93.4233 67.6803 93.3713 67.6697 93.3401C67.6539 93.3142 67.6327 93.2675 67.6062 93.1947C67.4808 93.1436 67.366 93.1131 67.2722 93.1138C66.965 93.116 66.5029 93.3225 65.8808 93.728C65.7666 93.7861 65.6578 93.865 65.5491 93.9596C65.4351 94.0437 65.3212 94.1383 65.1969 94.2329C65.0726 94.3328 64.9483 94.4327 64.824 94.5273C64.6996 94.6115 64.5753 94.7114 64.4511 94.8217C64.3269 94.9371 64.208 95.0526 64.0995 95.1784L64.1773 105.991C64.1827 106.741 64.2126 107.272 64.272 107.573C64.2726 107.646 64.3357 107.739 64.4616 107.864C64.4616 107.864 64.4877 107.874 64.5451 107.884C64.6129 107.899 64.7225 107.919 64.8789 107.944C65.0301 107.974 65.2177 107.983 65.4417 107.982L65.7125 107.98C66.2125 107.976 66.63 108.098 66.9652 108.346C67.3684 108.65 67.6065 109.164 67.6846 109.882L67.6852 109.965C67.6861 110.09 67.6765 110.21 67.6669 110.32C67.6521 110.434 67.6268 110.544 67.586 110.654C67.5554 110.753 67.5145 110.852 67.4632 110.967C67.4223 111.077 67.371 111.181 67.3196 111.281C67.1957 111.433 67.0405 111.574 66.8643 111.701C66.6985 111.827 66.5221 111.917 66.3454 111.975C66.1635 112.029 65.9762 112.061 65.7835 112.063L65.7419 112.063C63.9497 111.992 62.3348 111.962 60.9078 111.973C60.2255 111.978 59.4808 111.988 58.6788 112.009C57.8716 112.026 57.0177 112.068 56.1171 112.132L56.0755 112.132C55.4921 112.137 55.0112 111.895 54.6328 111.414Z" fill="black"/>
<path d="M76.0378 110.509C74.6381 109.259 73.9339 107.665 73.92 105.733C73.9031 103.389 74.6924 101.602 76.2982 100.382C77.7487 99.2885 79.4625 98.5834 81.4498 98.2618C83.0155 97.9745 85.0086 97.7362 87.424 97.5521L87.4057 95.0105C87.401 94.3595 87.3243 93.8236 87.1858 93.4079C87.0422 92.9923 86.8314 92.65 86.5534 92.3708C86.3276 92.1224 85.9877 91.9269 85.5282 91.774C85.0687 91.6106 84.4744 91.5315 83.7556 91.5367C83.5056 91.5385 83.2767 91.5714 83.0687 91.625C82.8711 91.6681 82.6842 91.7423 82.5078 91.8374C82.3262 91.9376 82.1603 92.043 82.01 92.1535C81.7875 92.353 81.6224 92.5677 81.5147 92.8029C81.4017 93.0277 81.3517 93.3145 81.3542 93.6582C81.356 93.9082 81.4042 94.0954 81.504 94.2197C81.6568 94.4581 81.8301 94.6548 82.0292 94.8201C82.0552 94.8199 82.1179 94.835 82.217 94.8604C82.3266 94.8908 82.4259 94.937 82.5097 95.0041C82.5934 95.0608 82.6673 95.1853 82.7416 95.3774C82.8262 95.5591 82.8695 95.788 82.8715 96.064C82.8735 96.3453 82.8025 96.6062 82.6689 96.8572C82.5301 97.1082 82.4115 97.2757 82.3183 97.3597C82.2199 97.4333 82.0696 97.5438 81.8624 97.6963C81.2407 98.1592 80.5236 98.3935 79.7216 98.3993C78.4143 98.4087 77.3744 97.937 76.6071 96.9841C75.8767 96.0883 75.5098 95.0441 75.5012 93.8462C75.4862 91.7629 76.4022 90.225 78.2597 89.222C79.8627 88.3355 81.7814 87.8842 84.0209 87.868C84.9063 87.8617 85.7556 87.9129 86.5637 88.0164C87.3666 88.1252 88.1283 88.2968 88.8384 88.5417C89.5589 88.7866 90.2173 89.0891 90.8032 89.4443C91.4832 89.8456 92.0495 90.3624 92.5019 90.9946C92.9649 91.6319 93.2929 92.3431 93.4965 93.1333C93.7106 93.9235 93.821 94.7977 93.8279 95.756L93.9054 106.527C93.9063 106.652 93.9124 106.771 93.9288 106.881C93.94 106.995 93.972 107.099 94.0144 107.192C94.0671 107.275 94.1198 107.374 94.1623 107.483C94.2152 107.597 94.2733 107.706 94.3314 107.815C94.426 107.94 94.5256 108.033 94.625 108.084C94.7346 108.125 94.9171 108.144 95.1671 108.143C95.6931 108.139 96.1316 108.276 96.4825 108.55C96.8444 108.896 97.0303 109.39 97.0348 110.025C97.0418 110.994 96.4891 111.638 95.382 111.954C94.7013 112.177 94.0199 112.297 93.3428 112.302C91.9105 112.312 90.6367 111.894 89.5212 111.058C89.0186 110.697 88.6093 110.273 88.3036 109.775C88.1485 109.933 87.9829 110.08 87.8068 110.216C87.6412 110.358 87.4754 110.49 87.3097 110.616C87.1439 110.742 86.9624 110.847 86.7703 110.932C86.5886 111.027 86.3968 111.143 86.1893 111.27C84.705 111.999 83.0983 112.375 81.3639 112.388C79.1973 112.403 77.4219 111.776 76.0378 110.509ZM85.1159 106.861C85.308 106.776 85.4896 106.67 85.6553 106.544C85.8211 106.418 85.9712 106.287 86.1108 106.145C86.2452 106.009 86.3795 105.852 86.5033 105.684C86.627 105.506 86.7351 105.323 86.8327 105.14C87.2544 104.387 87.4673 103.568 87.4609 102.677L87.4508 101.281C85.0363 101.58 83.3362 102.019 82.3561 102.61C81.4021 103.215 80.93 104.198 80.9398 105.557C80.9456 106.365 81.0796 106.9 81.3471 107.159C81.6095 107.422 82.1 107.549 82.8083 107.544C83.2353 107.541 83.6464 107.486 84.0362 107.368C84.4208 107.256 84.7842 107.087 85.1159 106.861Z" fill="black"/>
<path d="M103.969 103.058C103.841 102.757 103.396 101.646 102.632 99.7344C101.91 97.8541 101.232 96.2757 100.598 94.9989L100.556 94.9992L100.556 94.9576C100.09 93.9088 99.6787 93.193 99.3323 92.8205C99.2067 92.7381 99.0237 92.6456 98.7885 92.5327C98.5638 92.425 98.2768 92.3593 97.9329 92.3305L97.8076 92.2898L97.7034 92.2905C97.7034 92.2905 97.6669 92.2856 97.5991 92.2704C97.5416 92.2448 97.4842 92.2296 97.4321 92.23C96.7753 92.1514 96.3253 91.8629 96.0717 91.3647C95.9187 91.0898 95.8377 90.6997 95.8341 90.1998C95.8317 89.8664 95.9023 89.543 96.0354 89.2191C96.1736 88.8848 96.427 88.6277 96.8007 88.4428C97.1328 88.2737 97.5124 88.1876 97.9447 88.1845C98.2362 88.1564 98.434 88.1393 98.5485 88.1385C100.683 88.0294 102.394 88.34 103.68 89.0808C104.946 89.8113 106.007 91.0849 106.854 92.9122C106.896 93.0109 107.511 94.5065 108.699 97.399C109.489 99.383 110.168 101.024 110.734 102.322L112.022 98.8752L114.29 92.6295C114.356 92.478 114.402 92.337 114.432 92.2118C114.307 92.1867 114.182 92.1719 114.057 92.1728C113.932 92.1737 113.792 92.1748 113.64 92.1758L113.37 92.1778C113.12 92.1796 112.89 92.1552 112.682 92.0994C112.483 92.0331 112.274 91.9253 112.054 91.7706C111.719 91.4553 111.512 90.9568 111.439 90.275L111.439 90.1916C111.436 89.7906 111.527 89.3993 111.722 89.0229C112.051 88.3955 112.554 88.0794 113.236 88.0745L113.278 88.0742C113.872 88.1116 114.434 88.1388 114.966 88.1454C115.492 88.1572 115.987 88.1693 116.445 88.1764C116.904 88.1887 117.331 88.1909 117.737 88.1879C118.206 88.1846 119.153 88.1517 120.57 88.0842L121.548 88.0147L121.611 88.0142C122.246 88.0096 122.743 88.2925 123.096 88.8577C123.349 89.2622 123.477 89.6779 123.48 90.105L123.481 90.1883C123.413 90.8972 123.182 91.4145 122.783 91.735C122.452 91.9874 122.036 92.1154 121.536 92.119C121.036 92.1226 120.609 92.1674 120.266 92.2532C119.933 92.3285 119.674 92.4033 119.497 92.4879C119.093 92.7408 118.722 93.2956 118.384 94.1418C118.026 95.1339 117.469 96.5755 116.707 98.4664C116.093 100.013 115.346 101.872 114.476 104.045C114.159 104.855 113.832 105.711 113.494 106.615C113.168 107.523 112.923 108.234 112.76 108.745C112.597 109.246 112.402 109.748 112.187 110.249C111.982 110.751 111.782 111.132 111.591 111.399C111.411 111.661 111.199 111.84 110.949 111.925L110.721 112.072L107.742 112.094L107.404 111.45C106.584 109.696 105.439 106.897 103.969 103.058Z" fill="black"/>
<path d="M128.641 110.36C126.826 109.29 125.456 107.8 124.526 105.89C123.58 104.037 123.102 101.978 123.085 99.7123C123.071 97.702 123.52 95.7664 124.439 93.9108C125.384 92.0446 126.717 90.5141 128.448 89.3193C130.2 88.1296 132.227 87.5212 134.519 87.5047C137.571 87.4828 139.962 88.2729 141.682 89.8699C143.402 91.4722 144.396 93.6161 144.666 96.307L144.666 96.4111C144.676 97.8278 144.231 98.8518 143.334 99.4833C142.588 99.9887 141.569 100.246 140.277 100.255L130.194 100.328C130.334 102.426 130.851 104.089 131.751 105.317C132.729 106.685 134.271 107.361 136.37 107.346C136.588 107.345 136.807 107.338 137.015 107.321C137.234 107.293 137.442 107.255 137.64 107.212C137.848 107.169 138.035 107.126 138.201 107.083C138.378 107.03 138.544 106.966 138.7 106.892C138.85 106.807 139.001 106.718 139.156 106.618C139.929 106.154 140.678 105.315 141.409 104.101L141.47 103.955L141.553 103.85C141.729 103.698 141.931 103.572 142.155 103.471C142.372 103.36 142.601 103.301 142.841 103.299C142.935 103.299 143.049 103.314 143.174 103.339C143.3 103.369 143.414 103.399 143.529 103.44C143.639 103.471 143.738 103.501 143.822 103.542C143.916 103.583 143.994 103.624 144.052 103.666C144.706 104.093 145.038 104.695 145.044 105.471C145.045 105.653 145.026 105.825 144.985 105.992C144.945 106.159 144.873 106.342 144.781 106.536C144.255 107.347 143.657 108.096 142.984 108.778C142.307 109.465 141.566 110.038 140.768 110.502C139.134 111.483 137.278 111.986 135.195 112.001C132.653 112.019 130.467 111.472 128.641 110.36ZM136.519 96.1781C137.086 96.174 137.445 96.1089 137.601 95.9828C137.751 95.8567 137.838 95.6425 137.867 95.335C137.865 95.1579 137.854 94.9914 137.842 94.8352C137.825 94.6686 137.798 94.5126 137.755 94.3566C137.723 94.2058 137.696 94.0602 137.669 93.9197C137.637 93.7846 137.594 93.6494 137.541 93.5248C137.499 93.4001 137.44 93.2755 137.372 93.151C137.314 93.0264 137.245 92.9176 137.161 92.8192C137.087 92.7104 137.003 92.5912 136.909 92.4668C136.625 92.1251 136.3 91.867 135.924 91.7031C135.558 91.539 135.099 91.459 134.547 91.463C133.339 91.4717 132.332 91.9581 131.537 92.9222C130.886 93.7602 130.457 94.8623 130.248 96.2232L136.519 96.1781Z" fill="black"/>
<path d="M146.113 110.755C145.803 110.351 145.648 109.904 145.645 109.404L145.644 109.321C145.696 108.519 145.968 107.975 146.466 107.69C146.798 107.495 147.261 107.393 147.859 107.388C148.37 107.385 148.692 107.341 148.817 107.256C148.941 107.131 149.003 107.036 149.002 106.963C149.068 106.661 149.1 106.129 149.095 105.379L148.932 82.7133C148.929 82.3383 148.916 82.0155 148.904 81.7343C148.886 81.4584 148.88 81.2449 148.879 81.0886L148.689 80.8608C148.564 80.768 148.235 80.7183 147.709 80.722C147.11 80.7264 146.63 80.6256 146.27 80.4199C145.71 80.0802 145.429 79.4884 145.423 78.6551C145.42 78.228 145.553 77.8208 145.831 77.4438C146.13 77.0146 146.576 76.7457 147.159 76.6426C149.017 76.3792 150.597 75.9928 151.901 75.4834C152.176 75.3721 152.42 75.2922 152.628 75.249C152.847 75.1953 153.05 75.1522 153.232 75.1197L153.523 75.1176C154.075 75.1136 154.53 75.3187 154.882 75.7328C155.244 76.1469 155.43 76.6195 155.434 77.1455L155.637 105.332C155.642 106.082 155.677 106.613 155.752 106.915L155.942 107.205C155.942 107.205 155.968 107.215 156.025 107.225C156.093 107.241 156.203 107.261 156.359 107.285C156.51 107.316 156.693 107.325 156.901 107.323L157.193 107.321C157.677 107.318 158.094 107.44 158.445 107.687C158.848 107.992 159.081 108.506 159.144 109.224L159.144 109.307C159.145 109.38 159.145 109.443 159.146 109.495C159.146 109.552 159.136 109.615 159.126 109.682C159.111 109.74 159.096 109.802 159.086 109.87C159.071 109.928 159.056 109.99 159.046 110.058C159.03 110.11 159.005 110.168 158.963 110.225C158.933 110.293 158.907 110.356 158.882 110.413C158.851 110.481 158.825 110.549 158.8 110.622C158.676 110.774 158.521 110.916 158.344 111.042C158.179 111.168 157.997 111.258 157.805 111.317C157.623 111.37 157.441 111.403 157.264 111.404L157.222 111.404C155.414 111.334 153.804 111.304 152.388 111.314C151.706 111.319 150.961 111.33 150.159 111.351C149.352 111.367 148.498 111.41 147.597 111.474L147.556 111.474C146.931 111.478 146.45 111.237 146.113 110.755Z" fill="black"/>
<path d="M163.25 110.257C161.168 108.913 160.122 106.936 160.103 104.321C160.093 102.878 160.574 101.672 161.557 100.706C162.534 99.7723 163.802 99.2944 165.359 99.2832C165.661 99.281 165.948 99.3154 166.214 99.3812C166.475 99.4366 166.741 99.5232 167.007 99.6463C167.269 99.759 167.494 99.9084 167.677 100.1C167.997 100.348 168.244 100.611 168.412 100.886C168.581 101.166 168.667 101.489 168.669 101.864C168.671 102.046 168.656 102.213 168.631 102.364C168.601 102.52 168.555 102.646 168.488 102.74C168.431 102.839 168.364 102.923 168.281 102.991C168.209 103.049 168.136 103.086 168.053 103.097C167.97 103.113 167.907 103.13 167.866 103.14C167.824 103.156 167.772 103.162 167.72 103.162C167.679 103.162 167.658 103.163 167.658 103.163C167.502 103.289 167.353 103.456 167.203 103.666C167.079 103.865 167.019 104.162 167.022 104.563C167.03 105.678 167.338 106.509 167.957 107.056C168.638 107.65 169.76 107.939 171.317 107.928C172.4 107.92 173.342 107.716 174.146 107.303C174.877 106.897 175.441 106.367 175.843 105.708C176.239 105.08 176.438 104.428 176.433 103.745C176.427 102.912 176.193 102.184 175.73 101.563C175.168 100.89 174.481 100.322 173.676 99.8692C173.242 99.6223 172.714 99.35 172.087 99.0473C171.459 98.734 170.759 98.411 169.996 98.0831C168.058 97.222 166.505 96.4415 165.333 95.7416C164.047 95.0165 162.956 94.0191 162.062 92.7442C161.094 91.4178 160.603 89.7963 160.589 87.8797C160.578 86.3693 160.839 85.0184 161.373 83.8323C161.906 82.6513 162.711 81.6716 163.789 80.8982C164.794 80.1409 165.967 79.5804 167.298 79.2062C168.628 78.8216 170.096 78.6235 171.71 78.6119C174.278 78.5935 176.527 79.119 178.451 80.1885C180.595 81.3814 181.681 83.1653 181.698 85.5402C181.708 86.9985 181.222 88.2104 180.245 89.1758C179.898 89.4856 179.525 89.7435 179.125 89.9547C178.721 90.1555 178.305 90.3096 177.879 90.422C177.447 90.5397 176.969 90.5952 176.443 90.599C175.453 90.5801 174.675 90.3097 174.103 89.7825C173.459 89.235 173.137 88.6436 173.132 88.0186C173.129 87.5603 173.231 87.2158 173.437 86.9747C173.654 86.7388 173.872 86.6174 174.08 86.6159L174.414 86.6135C174.689 86.4865 174.938 86.3181 175.16 86.1081C175.284 85.9562 175.345 85.6901 175.342 85.3151C175.339 84.9141 175.264 84.5761 175.126 84.2958C174.984 84.0208 174.774 83.7723 174.496 83.5503C174.145 83.3029 173.753 83.1182 173.325 82.9963C172.892 82.8744 172.376 82.8156 171.782 82.8199C170.949 82.8259 170.241 82.9299 169.659 83.1268C169.088 83.3132 168.626 83.5665 168.269 83.8868C167.896 84.2229 167.618 84.5894 167.443 84.9761C167.28 85.3679 167.199 85.806 167.203 86.2904C167.209 87.0977 167.411 87.7629 167.821 88.286C168.326 88.8813 169.169 89.5003 170.356 90.1428C170.69 90.3227 171.035 90.4921 171.401 90.6561C171.762 90.8202 172.133 90.9998 172.509 91.1898C172.896 91.3694 173.293 91.554 173.701 91.7438C174.73 92.1947 175.65 92.6256 176.46 93.0365C177.265 93.4473 177.987 93.8536 178.615 94.2502C179.912 95.0742 181.003 96.1497 181.888 97.4767C182.825 98.9023 183.306 100.623 183.321 102.633C183.334 104.456 182.768 106.096 181.627 107.562C180.554 108.976 179.088 110.086 177.234 110.906C175.625 111.626 173.867 112.019 171.951 112.09C171.769 112.092 171.566 112.093 171.347 112.095C167.873 112.12 165.176 111.504 163.25 110.257Z" fill="black"/>
<path d="M186.838 109.712C185.438 108.462 184.734 106.868 184.72 104.935C184.703 102.592 185.492 100.805 187.098 99.5849C188.549 98.4911 190.262 97.7861 192.25 97.4645C193.815 97.1771 195.808 96.9388 198.224 96.7548L198.206 94.2132C198.201 93.5622 198.124 93.0262 197.986 92.6106C197.842 92.1949 197.631 91.8527 197.353 91.5734C197.127 91.325 196.787 91.1296 196.328 90.9766C195.868 90.8132 195.274 90.7342 194.555 90.7394C194.305 90.7412 194.076 90.774 193.869 90.8276C193.671 90.8707 193.484 90.945 193.308 91.04C193.126 91.1403 192.96 91.2456 192.81 91.3561C192.587 91.5556 192.422 91.7704 192.314 92.0055C192.202 92.2303 192.151 92.5171 192.154 92.8609C192.156 93.1108 192.204 93.298 192.304 93.4223C192.457 93.6608 192.63 93.8575 192.829 94.0227C192.855 94.0225 192.918 94.0377 193.017 94.063C193.126 94.0935 193.226 94.1396 193.31 94.2067C193.393 94.2634 193.467 94.3879 193.541 94.5801C193.626 94.7618 193.669 94.9906 193.671 95.2667C193.673 95.5479 193.602 95.8088 193.469 96.0598C193.33 96.3108 193.211 96.4783 193.118 96.5623C193.02 96.636 192.869 96.7464 192.662 96.899C192.041 97.3618 191.323 97.5961 190.521 97.6019C189.214 97.6113 188.174 97.1396 187.407 96.1868C186.677 95.291 186.31 94.2467 186.301 93.0488C186.286 90.9655 187.202 89.4276 189.059 88.4247C190.662 87.5381 192.581 87.0868 194.821 87.0707C195.706 87.0643 196.555 87.1155 197.363 87.2191C198.166 87.3279 198.928 87.4995 199.638 87.7444C200.359 87.9892 201.017 88.2918 201.603 88.6469C202.283 89.0483 202.849 89.5651 203.302 90.1972C203.765 90.8345 204.093 91.5457 204.296 92.336C204.51 93.1261 204.621 94.0003 204.628 94.9587L204.705 105.729C204.706 105.854 204.712 105.974 204.729 106.083C204.74 106.198 204.772 106.302 204.814 106.395C204.867 106.478 204.92 106.577 204.962 106.686C205.015 106.8 205.073 106.909 205.131 107.018C205.226 107.142 205.325 107.235 205.425 107.287C205.534 107.327 205.717 107.347 205.967 107.345C206.493 107.341 206.931 107.479 207.282 107.752C207.644 108.099 207.83 108.592 207.835 109.228C207.842 110.196 207.289 110.841 206.182 111.156C205.501 111.38 204.82 111.499 204.143 111.504C202.71 111.515 201.436 111.097 200.321 110.261C199.818 109.9 199.409 109.476 199.103 108.978C198.948 109.135 198.783 109.282 198.607 109.419C198.441 109.561 198.275 109.692 198.109 109.818C197.944 109.945 197.762 110.05 197.57 110.135C197.388 110.23 197.197 110.346 196.989 110.472C195.505 111.202 193.898 111.578 192.164 111.59C189.997 111.606 188.222 110.978 186.838 109.712ZM195.916 106.063C196.108 105.979 196.289 105.873 196.455 105.747C196.621 105.621 196.771 105.489 196.911 105.348C197.045 105.211 197.179 105.054 197.303 104.887C197.427 104.709 197.535 104.526 197.633 104.343C198.054 103.59 198.267 102.77 198.261 101.88L198.251 100.484C195.836 100.782 194.136 101.222 193.156 101.812C192.202 102.418 191.73 103.401 191.74 104.76C191.745 105.567 191.879 106.103 192.147 106.361C192.409 106.625 192.9 106.752 193.608 106.747C194.035 106.744 194.446 106.688 194.836 106.571C195.221 106.459 195.584 106.29 195.916 106.063Z" fill="black"/>
<path d="M212.906 109.629C211.604 108.305 210.945 106.45 210.928 104.059L210.838 91.6014L209.297 91.675C209.115 91.6763 208.927 91.6516 208.734 91.5957C208.551 91.5293 208.389 91.442 208.253 91.3283C208.112 91.22 207.991 91.0906 207.896 90.9351C207.796 90.8108 207.712 90.6812 207.643 90.5411C207.585 90.406 207.542 90.2657 207.515 90.1253C207.483 89.9901 207.471 89.8444 207.47 89.6881C207.467 89.2194 207.552 88.7917 207.732 88.4154C208.004 87.903 208.439 87.5769 209.038 87.4476C209.922 87.2485 210.602 86.978 211.073 86.6413C211.529 86.263 211.865 85.8751 212.086 85.4673C212.137 85.2898 212.213 85.0809 212.311 84.8407C212.403 84.6056 212.515 84.3287 212.638 84.0049C212.76 83.6707 212.883 83.3052 213.005 82.8981C213.128 82.6212 213.298 82.3751 213.52 82.1652C213.753 81.9448 214.007 81.7867 214.288 81.7013C214.563 81.6056 214.839 81.5515 215.12 81.5495C215.521 81.5466 215.913 81.6376 216.289 81.8119C216.942 82.1562 217.274 82.6695 217.279 83.3465L217.28 83.4299L217.079 87.3897L221.202 87.1101L221.348 87.109C221.931 87.1048 222.37 87.3256 222.665 87.7662C222.97 88.1963 223.13 88.6587 223.134 89.1587C223.137 89.617 223.057 90.0655 222.893 90.4938C222.592 91.3033 222.1 91.7079 221.423 91.7128L217.381 91.6585L217.473 104.575C217.479 105.382 217.635 106.027 217.946 106.509C218.141 106.831 218.501 106.984 219.033 106.98C219.434 106.977 219.803 106.949 220.136 106.889C220.479 106.819 220.807 106.707 221.113 106.549L221.154 106.548C221.679 106.326 222.069 106.208 222.319 106.207C222.595 106.205 222.866 106.276 223.133 106.409C223.394 106.548 223.604 106.729 223.762 106.946C223.94 107.153 224.119 107.444 224.289 107.818C224.289 107.818 224.332 108.046 224.419 108.504C224.422 109.004 224.196 109.443 223.741 109.822L223.699 109.864L223.637 109.906C222.626 110.564 221.671 111.024 220.772 111.28C219.867 111.506 218.837 111.628 217.67 111.636C215.806 111.65 214.217 110.979 212.906 109.629Z" fill="black"/>
<path d="M226.059 110.18C225.748 109.776 225.594 109.329 225.591 108.829L225.59 108.746C225.59 108.746 225.59 108.725 225.589 108.683C225.636 107.881 225.939 107.337 226.494 107.052C226.811 106.899 227.264 106.817 227.847 106.813C228.373 106.809 228.701 106.765 228.825 106.681C228.918 106.586 228.98 106.503 229.011 106.43C229.034 106.096 229.046 105.554 229.041 104.804L228.964 94.1796C228.959 93.4296 228.939 92.888 228.911 92.5549C228.879 92.4874 228.816 92.4045 228.722 92.3063C228.596 92.2238 228.268 92.1845 227.742 92.1883C227.158 92.1925 226.678 92.0866 226.302 91.8653C225.742 91.536 225.462 90.9495 225.456 90.1005C225.453 89.6735 225.585 89.2663 225.864 88.8892C226.013 88.6798 226.215 88.5065 226.464 88.3641C226.713 88.2269 226.963 88.1417 227.212 88.1087C229.054 87.8454 230.63 87.4591 231.933 86.9497C232.208 86.8227 232.453 86.7376 232.661 86.6944C232.879 86.6408 233.087 86.5976 233.285 86.565L233.556 86.563C234.108 86.559 234.567 86.7641 234.935 87.1781C235.297 87.5922 235.483 88.0648 235.487 88.5908L235.603 104.757C235.609 105.507 235.638 106.038 235.698 106.34C235.698 106.413 235.762 106.506 235.887 106.63C235.887 106.63 235.914 106.64 235.971 106.65C236.039 106.665 236.148 106.685 236.305 106.71C236.456 106.741 236.644 106.75 236.868 106.748L237.138 106.746C237.638 106.742 238.056 106.864 238.391 107.112C238.794 107.416 239.032 107.93 239.11 108.649L239.111 108.732C239.112 108.857 239.102 108.977 239.093 109.086C239.078 109.201 239.053 109.31 239.012 109.42C238.981 109.519 238.94 109.619 238.889 109.734C238.848 109.843 238.797 109.948 238.745 110.047C238.622 110.199 238.466 110.341 238.29 110.467C238.124 110.593 237.948 110.683 237.771 110.742C237.589 110.795 237.402 110.828 237.209 110.829L237.168 110.829C235.375 110.759 233.761 110.729 232.334 110.739C231.651 110.744 230.907 110.755 230.105 110.776C229.297 110.792 228.444 110.835 227.543 110.899L227.501 110.899C226.918 110.903 226.437 110.662 226.059 110.18ZM228.944 82.6586C228.089 81.8887 227.661 80.9282 227.652 79.772C227.65 79.4959 227.69 79.2248 227.771 78.9586C227.853 78.6976 227.945 78.4469 228.058 78.2065C228.181 77.9556 228.33 77.7358 228.511 77.5366C228.702 77.3269 228.925 77.1273 229.174 76.9276C229.598 76.5912 230.086 76.3325 230.626 76.1463C231.167 75.9497 231.713 75.8468 232.27 75.8428C232.614 75.8403 232.958 75.8899 233.292 75.9813C233.636 76.0622 233.96 76.1952 234.253 76.3702C234.546 76.5348 234.803 76.7569 235.029 77.0313C235.742 77.7762 236.103 78.7215 236.111 79.8569C236.119 80.9402 235.709 81.8755 234.882 82.6575C234.079 83.3717 233.087 83.733 231.91 83.7414C230.744 83.7498 229.751 83.3924 228.944 82.6586Z" fill="black"/>
<path d="M245.473 109.519C245.012 109.247 244.578 108.953 244.175 108.633C243.766 108.302 243.383 107.961 243.021 107.599C242.654 107.227 242.328 106.834 242.034 106.419C241.739 106.004 241.465 105.579 241.212 105.133C240.183 103.297 239.664 101.347 239.649 99.2901C239.631 96.7641 240.219 94.5307 241.413 92.5898C242.566 90.696 244.066 89.2372 245.924 88.2239C247.776 87.2001 249.647 86.6762 251.537 86.6626C252.688 86.6543 253.788 86.787 254.832 87.0556C255.886 87.3292 256.868 87.744 257.779 88.3052C259.604 89.4067 261.026 90.8757 262.04 92.7122C263.063 94.5382 263.588 96.472 263.602 98.5136C263.62 101.055 263.032 103.299 261.838 105.235C260.643 107.134 259.117 108.588 257.265 109.601C255.424 110.625 253.573 111.149 251.714 111.162C249.391 111.179 247.314 110.631 245.473 109.519ZM255.294 104.99C255.443 104.687 255.587 104.358 255.725 104.008C255.858 103.648 255.98 103.266 256.092 102.859C256.198 102.458 256.284 102.035 256.353 101.587C256.433 101.128 256.482 100.643 256.509 100.127C256.532 99.6166 256.544 99.0956 256.54 98.5644C256.522 96.1217 256.06 94.1459 255.164 92.6366C254.373 91.3402 253.176 90.6926 251.567 90.7041C250.66 90.7107 249.927 90.8826 249.362 91.22C248.791 91.5471 248.326 92.0608 247.956 92.7718C247.679 93.3051 247.449 93.8901 247.261 94.5269C247.083 95.1688 246.942 95.8782 246.838 96.655C246.745 97.4213 246.704 98.255 246.711 99.156C246.728 101.604 247.185 103.601 248.087 105.146C248.493 105.826 248.976 106.327 249.535 106.657C250.105 106.975 250.82 107.127 251.685 107.12C252.268 107.116 252.773 107.04 253.204 106.88C253.645 106.71 254.034 106.478 254.365 106.184C254.707 105.89 255.017 105.492 255.294 104.99Z" fill="black"/>
<path d="M265.268 109.898C264.958 109.494 264.804 109.047 264.8 108.547L264.8 108.464C264.8 108.464 264.8 108.443 264.799 108.401C264.846 107.599 265.149 107.055 265.704 106.769C266.021 106.616 266.473 106.535 267.057 106.531C267.583 106.527 267.911 106.483 268.035 106.399C268.128 106.304 268.19 106.22 268.221 106.147C268.244 105.814 268.256 105.272 268.251 104.522L268.174 93.8972C268.169 93.1472 268.149 92.6057 268.121 92.2726C268.089 92.2051 268.026 92.1222 267.932 92.0239C267.806 91.9415 267.478 91.9022 266.952 91.906C266.368 91.9102 265.888 91.8042 265.512 91.583C264.952 91.2537 264.672 90.6671 264.666 89.8182C264.663 89.3911 264.795 88.9839 265.074 88.6069C265.373 88.1776 265.824 87.914 266.422 87.8263C267.338 87.6947 268.196 87.5323 269.002 87.3286C269.803 87.1145 270.504 86.8959 271.101 86.6676L271.143 86.6257L271.185 86.6254C271.736 86.4704 272.141 86.3581 272.39 86.2833L272.724 86.2809C273.276 86.277 273.73 86.482 274.082 86.8962C274.445 87.3103 274.63 87.7829 274.634 88.3089L274.638 88.7881C274.679 88.7461 274.72 88.7146 274.762 88.683C274.803 88.6567 274.834 88.6304 274.865 88.5989C274.907 88.557 274.938 88.5255 274.969 88.494C274.995 88.4678 275.021 88.4416 275.052 88.4101C275.3 88.2156 275.554 88.0419 275.819 87.8837C276.078 87.7308 276.348 87.583 276.628 87.4404C276.903 87.303 277.215 87.1653 277.563 87.0378C278.046 86.8573 278.586 86.7127 279.185 86.6095C279.793 86.5113 280.423 86.4547 281.079 86.45C283.522 86.4324 285.481 87.184 286.95 88.6995C288.419 90.1785 289.162 92.1003 289.179 94.4753L289.25 104.371C289.253 104.746 289.26 105.074 289.278 105.35C289.29 105.631 289.323 105.829 289.366 105.953L289.534 106.244C289.66 106.326 289.983 106.366 290.515 106.362L290.806 106.36C291.291 106.356 291.708 106.478 292.059 106.726C292.237 106.881 292.384 107.067 292.5 107.285C292.611 107.493 292.675 107.648 292.691 107.742C292.702 107.841 292.724 108.013 292.757 108.262L292.758 108.346C292.762 108.846 292.609 109.295 292.309 109.703C291.938 110.19 291.461 110.438 290.877 110.443L290.836 110.443C289.929 110.392 289.075 110.362 288.272 110.357C287.465 110.347 286.71 110.348 286.001 110.353C285.319 110.358 284.574 110.368 283.773 110.39C282.965 110.406 282.111 110.448 281.211 110.512L281.169 110.512C280.57 110.517 280.068 110.276 279.664 109.794C279.38 109.39 279.241 108.943 279.238 108.443L279.237 108.36C279.299 107.557 279.581 107.013 280.079 106.729C280.411 106.533 280.869 106.431 281.452 106.427C281.671 106.425 281.858 106.414 282.014 106.381C282.165 106.354 282.269 106.333 282.327 106.317C282.394 106.306 282.431 106.295 282.431 106.295C282.555 106.169 282.616 106.075 282.616 106.002C282.681 105.699 282.714 105.168 282.709 104.418L282.638 94.5848C282.63 93.5328 282.312 92.7434 281.683 92.2166C280.997 91.6278 280.203 91.3314 279.302 91.3379C278.771 91.3417 278.292 91.4025 277.866 91.5149C277.434 91.6326 277.034 91.7813 276.661 91.9611C276.604 92.0032 276.557 92.04 276.515 92.0663C276.484 92.0978 276.453 92.1188 276.412 92.1296C276.37 92.1455 276.329 92.1718 276.287 92.2138C275.551 92.7087 275.034 93.2176 274.736 93.7458L274.813 104.475C274.818 105.225 274.848 105.756 274.908 106.057C274.908 106.13 274.971 106.224 275.097 106.348C275.097 106.348 275.123 106.358 275.181 106.368C275.249 106.383 275.358 106.403 275.515 106.428C275.666 106.458 275.853 106.467 276.077 106.466L276.348 106.464C276.848 106.46 277.266 106.582 277.601 106.83C278.004 107.134 278.242 107.648 278.32 108.366L278.321 108.45C278.322 108.575 278.312 108.694 278.303 108.804C278.288 108.919 278.263 109.028 278.222 109.138C278.191 109.237 278.15 109.336 278.099 109.451C278.058 109.561 278.007 109.665 277.955 109.765C277.831 109.917 277.676 110.058 277.5 110.185C277.334 110.311 277.158 110.401 276.981 110.459C276.799 110.513 276.612 110.545 276.419 110.547L276.378 110.547C274.585 110.477 272.971 110.446 271.544 110.457C270.861 110.462 270.117 110.472 269.315 110.494C268.507 110.51 267.653 110.552 266.753 110.616L266.711 110.617C266.128 110.621 265.647 110.379 265.268 109.898Z" fill="black"/>
<path d="M230.262 132.713L227.89 127.23C232.584 125.332 236.148 122.587 238.581 118.986L242.783 112.331L249.961 116.863L246.315 122.618C244.626 125.297 242.278 127.564 239.281 129.419C236.278 131.274 233.271 132.369 230.262 132.713Z" fill="black"/>
</svg>
