<svg width="34" height="23" viewBox="0 0 34 23" fill="none" xmlns="http://www.w3.org/2000/svg">
<path d="M29.6081 4.04801L16.8681 13.1838L4.12812 4.04801M2.625 1.02384C2.19402 1.02384 1.7807 1.19066 1.47595 1.48759C1.17121 1.78452 1 2.18725 1 2.60717V20.5068C1 20.9267 1.17121 21.3294 1.47595 21.6263C1.7807 21.9233 2.19402 22.0901 2.625 22.0901H31.1112C31.5422 22.0901 31.9556 21.9233 32.2603 21.6263C32.565 21.3294 32.7362 20.9267 32.7362 20.5068V2.58342C32.7362 2.1635 32.565 1.76077 32.2603 1.46384C31.9556 1.16691 31.5422 1.00009 31.1112 1.00009H2.625V1.02384Z" stroke="#12263A" stroke-width="1.33333" stroke-linecap="round" stroke-linejoin="round"/>
</svg>
