<svg width="486" height="86" viewBox="0 0 486 86" fill="none" xmlns="http://www.w3.org/2000/svg">
<mask id="mask0_42_943" style="mask-type:luminance" maskUnits="userSpaceOnUse" x="12" y="48" width="461" height="20">
<path d="M12.6458 48.2708H472.76V67.0052H12.6458V48.2708Z" fill="white"/>
</mask>
<g mask="url(#mask0_42_943)">
<mask id="mask1_42_943" style="mask-type:luminance" maskUnits="userSpaceOnUse" x="12" y="48" width="461" height="20">
<path d="M22.0156 48.2708H463.323C465.807 48.2708 468.193 49.2604 469.948 51.0156C471.703 52.7708 472.693 55.1511 472.693 57.6354C472.693 60.1198 471.703 62.5052 469.948 64.2604C468.193 66.0156 465.807 67.0052 463.323 67.0052H22.0156C19.5312 67.0052 17.1458 66.0156 15.3906 64.2604C13.6354 62.5052 12.6458 60.1198 12.6458 57.6354C12.6458 55.1511 13.6354 52.7708 15.3906 51.0156C17.1458 49.2604 19.5312 48.2708 22.0156 48.2708Z" fill="white"/>
</mask>
<g mask="url(#mask1_42_943)">
<path d="M12.6458 48.2708H472.688V67.0052H12.6458V48.2708Z" fill="#38B6FF"/>
</g>
</g>
<path d="M11.1685 60.0239C10.8508 59.5656 10.6893 59.0395 10.6893 58.4406V58.3364C10.6893 58.3364 10.6893 58.3052 10.6893 58.2322C10.7622 57.3156 11.08 56.701 11.6477 56.3781C12.0383 56.1281 12.4758 56.0031 12.9602 56.0031H13.4393C14.106 56.0031 14.5487 55.8781 14.7727 55.6281C15.1893 55.1697 15.5227 54.6802 15.7727 54.1489C15.7987 54.0135 15.8404 53.8937 15.8977 53.7947C15.9497 53.6854 15.9914 53.5864 16.0227 53.5031C16.0643 53.4093 16.0956 53.326 16.1268 53.2531C16.1685 53.1854 16.1945 53.1177 16.2102 53.0447C16.2362 52.977 16.2622 52.9145 16.2935 52.8572C16.3352 52.8052 16.356 52.7531 16.356 52.7114L17.6268 49.7114L25.606 30.8156C25.7414 30.4562 25.8143 30.2062 25.8143 30.0656L25.7727 29.8572C25.382 29.6489 24.8195 29.477 24.0852 29.3364C23.3039 29.201 22.757 29.0031 22.4393 28.7531C21.9393 28.3677 21.6893 27.7114 21.6893 26.7947C21.6893 25.8781 22.007 25.227 22.6477 24.8364C23.106 24.5604 23.6997 24.4197 24.4393 24.4197C25.0747 24.4197 25.6581 24.4406 26.1893 24.4822C26.7154 24.5135 27.2102 24.5552 27.6685 24.6072C28.1268 24.6489 28.5695 24.727 29.0018 24.8364C30.2622 25.1854 31.3768 25.8364 32.3352 26.7947C33.2102 27.7114 34.0227 29.0656 34.7727 30.8572L43.6477 52.7739C44.1477 54.0135 44.606 54.9145 45.0227 55.4822C45.1737 55.6489 45.3352 55.7843 45.5018 55.8781C45.6789 55.9614 45.9081 56.0031 46.1893 56.0031H46.5227C47.1893 56.0031 47.7154 56.1802 48.106 56.5239C48.1737 56.5656 48.2414 56.6229 48.3143 56.6906C48.382 56.7635 48.4289 56.826 48.4602 56.8781C48.5018 56.9354 48.5331 56.9979 48.5643 57.0656C48.606 57.1385 48.632 57.201 48.6477 57.2531C48.6737 57.2947 48.6945 57.3677 48.7102 57.4614C48.7206 57.5447 48.7362 57.6072 48.7518 57.6489C48.7779 57.6802 48.7935 57.7427 48.7935 57.8364C48.7935 57.9197 48.7987 57.9822 48.8143 58.0239C48.8247 58.0552 48.8352 58.102 48.8352 58.1697C48.8352 58.2427 48.8352 58.2947 48.8352 58.3364V58.4406C48.8352 59.0395 48.6737 59.5656 48.356 60.0239C48.2154 60.201 48.0487 60.3624 47.856 60.5031C47.6581 60.6385 47.4445 60.7427 47.2102 60.8156C46.9862 60.8833 46.7727 60.9197 46.5643 60.9197H46.5227C44.257 60.8052 42.3352 60.7531 40.7518 60.7531C38.6685 60.7531 36.4914 60.8052 34.231 60.9197H34.1893C33.981 60.9197 33.757 60.8833 33.5227 60.8156C33.2987 60.7427 33.0904 60.6385 32.8977 60.5031C32.6997 60.3624 32.5279 60.201 32.3768 60.0239C32.2102 59.7739 32.0904 59.5135 32.0227 59.2531C31.9497 58.9927 31.9185 58.7218 31.9185 58.4406V58.3364C31.9862 57.4927 32.231 56.8885 32.6477 56.5239C33.0331 56.1802 33.5643 56.0031 34.231 56.0031C35.1893 56.0031 35.8404 55.9354 36.1893 55.7947C36.1893 55.7531 36.1893 55.7322 36.1893 55.7322C36.1893 55.7062 36.1685 55.602 36.1268 55.4197C36.0956 55.2427 36.0435 54.9979 35.9602 54.6906C35.8768 54.3729 35.7779 54.0552 35.6685 53.7322L34.1893 50.1906H22.9185C22.5539 51.0239 22.2935 51.6906 22.1268 52.1906C21.9029 52.6489 21.7779 52.951 21.7518 53.0864C21.7102 53.1593 21.6737 53.2635 21.6477 53.3989C21.6477 53.4822 21.632 53.5447 21.606 53.5864C21.5904 53.6177 21.5852 53.6437 21.5852 53.6697C21.4185 54.1697 21.2779 54.6229 21.1685 55.0239C21.0539 55.4302 21.0018 55.6854 21.0018 55.7947C21.4602 55.9354 22.2935 56.0031 23.5018 56.0031H23.8143C24.481 56.0031 25.007 56.1802 25.3977 56.5239C25.8247 56.8885 26.0747 57.4927 26.1477 58.3364V58.4406C26.1477 59.0395 25.9862 59.5656 25.6685 60.0239C25.4602 60.2999 25.1945 60.5135 24.8768 60.6697C24.5539 60.8364 24.2154 60.9197 23.856 60.9197H23.8143C22.6893 60.8468 21.6477 60.7999 20.6893 60.7739C19.731 60.7583 18.8664 60.7531 18.106 60.7531C17.007 60.7531 15.3143 60.8052 13.0227 60.9197H12.9602C12.1841 60.9197 11.5852 60.6177 11.1685 60.0239ZM24.981 45.2531H32.1685L28.6893 36.3156L24.981 45.2531Z" fill="black"/>
<path d="M50.6405 60.7531C50.2238 60.3364 50.0155 59.7947 50.0155 59.1281V28.2114C50.0155 28.0031 50.0155 27.8051 50.0155 27.6072C50.0155 27.4145 49.9999 27.2426 49.9738 27.0864C49.9582 26.9197 49.953 26.7843 49.953 26.6697C49.953 26.5447 49.953 26.451 49.953 26.3781L49.7446 26.1072C49.604 25.9979 49.2342 25.9406 48.6405 25.9406C47.9582 25.9406 47.4113 25.8156 46.9946 25.5656C46.3592 25.1801 46.0363 24.5135 46.0363 23.5656C46.0363 23.0656 46.1978 22.6072 46.5155 22.1906C46.8644 21.6906 47.3749 21.3937 48.0571 21.2947C50.1665 21.0031 51.9634 20.5812 53.453 20.0239C53.6613 19.9145 53.8384 19.8468 53.9946 19.8156C54.1613 19.7739 54.328 19.7426 54.4946 19.7114C54.6717 19.6697 54.8332 19.6281 54.9738 19.5864H55.3071C55.9321 19.5864 56.4426 19.8312 56.8488 20.3156C57.2655 20.7895 57.4738 21.326 57.4738 21.9197V35.3156C57.6821 35.1801 57.8801 35.0551 58.078 34.9406C58.2707 34.8312 58.4634 34.7322 58.6613 34.6489C58.854 34.5656 59.0571 34.4718 59.2655 34.3572C60.7082 33.7895 62.1509 33.5031 63.5988 33.5031C64.7655 33.5031 65.8749 33.6593 66.9321 33.9614C67.9999 34.2687 69.0051 34.7218 69.953 35.3156C70.9113 35.9145 71.7655 36.6281 72.5155 37.4614C73.2759 38.2843 73.9217 39.2062 74.453 40.2322C75.5051 42.3156 76.0363 44.6645 76.0363 47.2739C76.0363 49.8885 75.4217 52.2687 74.203 54.4197C72.9946 56.576 71.3488 58.2687 69.2655 59.5031C67.1821 60.7635 64.9582 61.3989 62.5988 61.3989C59.7082 61.3989 57.1301 60.7114 54.8696 59.3364C54.6613 59.8624 54.4321 60.2843 54.1821 60.6072C53.6926 61.201 53.078 61.5031 52.328 61.5031C52.0207 61.5031 51.7134 61.4406 51.4113 61.3156C51.104 61.1906 50.8488 61.0031 50.6405 60.7531ZM66.2446 54.6281C67.4113 52.8676 67.9946 50.4822 67.9946 47.4822C67.9946 44.9822 67.4321 42.8676 66.3071 41.1281C65.2759 39.576 63.7551 38.7947 61.7446 38.7947C60.0884 38.7947 58.6665 39.3468 57.4738 40.4406V53.7322C57.4999 53.8989 57.5676 54.0968 57.6821 54.3156C57.7915 54.5239 57.953 54.7531 58.1613 55.0031C58.2551 55.1697 58.3801 55.3364 58.5363 55.5031C58.703 55.6593 58.8905 55.8104 59.0988 55.9614C59.3176 56.102 59.5571 56.2426 59.8071 56.3781C60.4738 56.7687 61.2446 56.9614 62.1196 56.9614C63.8124 56.9614 65.1874 56.1854 66.2446 54.6281Z" fill="black"/>
<path d="M84.3066 59.5031C83.7649 59.1853 83.2649 58.8364 82.8066 58.4614C82.3482 58.0864 81.916 57.6906 81.5149 57.2739C81.1087 56.8468 80.7441 56.3937 80.4107 55.9197C80.0774 55.451 79.7649 54.9614 79.4732 54.4614C78.317 52.352 77.7441 50.1281 77.7441 47.7947C77.7441 44.9093 78.4316 42.3676 79.8066 40.1697C81.1399 38.0343 82.8587 36.3885 84.9732 35.2322C87.0982 34.0812 89.2337 33.5031 91.3899 33.5031C92.692 33.5031 93.942 33.6645 95.1399 33.9822C96.3482 34.3051 97.4576 34.7843 98.4732 35.4197C100.557 36.6853 102.166 38.3728 103.307 40.4822C104.458 42.5812 105.036 44.7895 105.036 47.1072C105.036 49.9978 104.348 52.5395 102.973 54.7322C101.598 56.8885 99.8482 58.5343 97.7232 59.6697C95.6087 60.8208 93.4993 61.3989 91.3899 61.3989C88.7337 61.3989 86.3743 60.7635 84.3066 59.5031ZM95.5149 54.4197C95.692 54.0603 95.8587 53.6801 96.0149 53.2739C96.1816 52.8728 96.317 52.4406 96.4316 51.9822C96.5566 51.5239 96.6607 51.0395 96.7441 50.5239C96.8378 50.0135 96.9003 49.4614 96.9316 48.8781C96.9732 48.2947 96.9941 47.7062 96.9941 47.1072C96.9941 44.3312 96.4837 42.076 95.4732 40.3364C94.5826 38.852 93.2232 38.1072 91.3899 38.1072C90.3587 38.1072 89.5201 38.2947 88.8691 38.6697C88.2128 39.0447 87.6816 39.6385 87.2649 40.4406C86.942 41.0395 86.6712 41.701 86.4524 42.4197C86.2441 43.1437 86.0774 43.951 85.9524 44.8364C85.8378 45.7114 85.7857 46.6645 85.7857 47.6906C85.7857 50.4822 86.291 52.7635 87.3066 54.5239C87.7649 55.3051 88.3118 55.8781 88.9524 56.2531C89.5878 56.6176 90.4003 56.7947 91.3899 56.7947C92.0566 56.7947 92.6295 56.7114 93.1191 56.5447C93.6191 56.3676 94.0618 56.1072 94.4524 55.7739C94.8378 55.4301 95.192 54.977 95.5149 54.4197Z" fill="black"/>
<path d="M111.931 58.8156C110.264 57.1229 109.431 54.9145 109.431 52.1906V42.3989C109.431 41.5551 109.415 40.9354 109.389 40.5447L109.16 40.2947C109.019 40.1854 108.649 40.1281 108.056 40.1281C107.389 40.1281 106.837 40.0031 106.41 39.7531C106.019 39.5447 105.774 39.2635 105.66 38.8989C105.535 38.5239 105.472 38.1437 105.472 37.7531C105.472 37.2531 105.634 36.7947 105.951 36.3781C106.118 36.1281 106.337 35.9301 106.618 35.7739C106.91 35.6072 107.191 35.5031 107.472 35.4614C109.597 35.1854 111.394 34.7635 112.868 34.1906C113.186 34.0551 113.472 33.9614 113.722 33.9197C113.972 33.8676 114.201 33.8156 114.41 33.7739H114.722C115.358 33.7739 115.878 34.0187 116.285 34.5031C116.686 34.977 116.889 35.5135 116.889 36.1072V52.1281C116.889 53.3364 117.243 54.2426 117.951 54.8364C118.727 55.5031 119.628 55.8364 120.66 55.8364C121.811 55.8364 122.832 55.6072 123.722 55.1489C123.858 55.0551 123.998 54.951 124.139 54.8364C124.566 54.5604 124.931 54.2739 125.222 53.9822C125.524 53.6801 125.748 53.4145 125.889 53.1906V42.3989C125.889 42.2635 125.889 42.1229 125.889 41.9822C125.889 41.8468 125.889 41.7114 125.889 41.5864C125.889 41.4614 125.889 41.3572 125.889 41.2739C125.889 41.1801 125.878 41.0864 125.868 41.0031C125.852 40.9093 125.847 40.826 125.847 40.7531C125.847 40.6854 125.847 40.6176 125.847 40.5447C125.806 40.477 125.727 40.3937 125.618 40.2947C125.618 40.2947 125.582 40.2895 125.514 40.2739C125.441 40.2479 125.316 40.2218 125.139 40.1906C124.972 40.1489 124.764 40.1281 124.514 40.1281C123.847 40.1281 123.295 40.0031 122.868 39.7531C122.243 39.3676 121.931 38.701 121.931 37.7531C121.931 37.2531 122.082 36.7947 122.389 36.3781C122.566 36.1281 122.795 35.9301 123.076 35.7739C123.368 35.6072 123.649 35.5031 123.931 35.4614C124.983 35.326 125.962 35.1489 126.868 34.9406C127.769 34.7322 128.587 34.4822 129.326 34.1906C129.644 34.0551 129.931 33.9614 130.181 33.9197C130.431 33.8676 130.66 33.8156 130.868 33.7739H131.181C131.816 33.7739 132.337 34.0187 132.743 34.5031C133.144 34.977 133.347 35.5135 133.347 36.1072V54.4197C133.347 55.0447 133.535 55.5031 133.91 55.7947C134.285 56.076 135.045 56.2114 136.201 56.2114C136.837 56.2114 137.368 56.4562 137.785 56.9406C138.212 57.4145 138.431 57.951 138.431 58.5447C138.431 59.102 138.227 59.576 137.826 59.9822C137.42 60.3989 136.957 60.6541 136.431 60.7531H136.306L127.806 61.3364H127.681C127.373 61.3364 127.035 61.2374 126.66 61.0447C126.285 60.8468 126.061 60.5239 125.993 60.0656C125.92 59.826 125.889 59.4614 125.889 58.9614V58.8572C125.707 58.9979 125.566 59.1229 125.472 59.2322C124.691 59.826 123.743 60.3364 122.618 60.7531C122.045 60.9718 121.415 61.1333 120.722 61.2322C120.04 61.3416 119.332 61.3989 118.597 61.3989C117.248 61.3989 116.014 61.1801 114.889 60.7531C113.764 60.3364 112.774 59.6906 111.931 58.8156Z" fill="black"/>
<path d="M143.47 59.3364C141.98 57.826 141.24 55.7062 141.24 52.9822V38.7947L139.49 38.8572C139.282 38.8572 139.063 38.826 138.845 38.7531C138.636 38.6853 138.449 38.5864 138.282 38.4614C138.126 38.3364 138.001 38.1853 137.907 38.0031C137.792 37.8676 137.704 37.7218 137.636 37.5656C137.563 37.3989 137.511 37.2426 137.47 37.0864C137.438 36.9197 137.428 36.7531 137.428 36.5864C137.428 36.0603 137.532 35.5812 137.74 35.1489C138.058 34.5551 138.553 34.1853 139.22 34.0447C140.246 33.8364 141.022 33.5395 141.553 33.1489C142.079 32.7218 142.47 32.2739 142.72 31.8156C142.787 31.6072 142.871 31.3728 142.97 31.1072C143.079 30.8468 143.204 30.5239 143.345 30.1489C143.496 29.7739 143.641 29.3572 143.782 28.8989C143.917 28.5968 144.121 28.3156 144.386 28.0656C144.647 27.8156 144.938 27.6437 145.261 27.5447C145.579 27.4353 145.897 27.3781 146.22 27.3781C146.678 27.3781 147.115 27.4822 147.532 27.6906C148.266 28.0812 148.636 28.6645 148.636 29.4406V29.5447L148.386 34.0447L153.095 33.7739H153.24C153.917 33.7739 154.428 34.0239 154.761 34.5239C155.095 35.0135 155.261 35.5395 155.261 36.1072C155.261 36.6385 155.167 37.1489 154.99 37.6489C154.641 38.5656 154.079 39.0239 153.303 39.0239L148.699 38.8989V53.6281C148.699 54.5447 148.871 55.2843 149.22 55.8364C149.438 56.201 149.85 56.3781 150.449 56.3781C150.907 56.3781 151.329 56.3468 151.72 56.2739C152.105 56.2062 152.475 56.0812 152.824 55.8989H152.886C153.48 55.6489 153.917 55.5239 154.199 55.5239C154.516 55.5239 154.824 55.6072 155.115 55.7739C155.417 55.9301 155.662 56.1281 155.845 56.3781C156.053 56.6176 156.246 56.951 156.428 57.3781C156.428 57.3781 156.475 57.6437 156.574 58.1697C156.574 58.7426 156.308 59.2322 155.782 59.6489L155.74 59.7114L155.678 59.7531C154.511 60.5031 153.417 61.0135 152.407 61.2947C151.376 61.5447 150.199 61.6697 148.865 61.6697C146.74 61.6697 144.938 60.8885 143.47 59.3364Z" fill="black"/>
<path d="M176.951 60.0239C176.628 59.5656 176.472 59.0395 176.472 58.4406V58.3364C176.472 58.3364 176.472 58.2843 176.472 58.1697C176.472 58.0604 176.477 57.9979 176.493 57.9822C176.519 57.9718 176.534 57.9145 176.534 57.8156C176.534 57.7062 176.54 57.6229 176.555 57.5656C176.581 57.5135 176.602 57.4406 176.618 57.3572C176.628 57.2635 176.649 57.1906 176.68 57.1489C176.722 57.0968 176.769 57.0239 176.826 56.9406C176.878 56.8468 176.93 56.7687 176.972 56.7114C177.024 56.6593 177.097 56.5968 177.18 56.5239C177.274 56.4562 177.357 56.4093 177.43 56.3781C177.816 56.1281 178.378 56.0031 179.118 56.0031C179.868 56.0031 180.368 55.9145 180.618 55.7322C180.753 55.6385 180.847 55.5343 180.889 55.4197C180.941 55.3104 180.993 55.2062 181.034 55.1072C181.06 54.9718 181.087 54.8052 181.118 54.6072C181.159 54.4145 181.185 54.2062 181.201 53.9822C181.227 53.7479 181.243 53.5031 181.243 53.2531V29.3364H178.909C178.587 29.3364 178.29 29.3677 178.014 29.4197C177.732 29.4614 177.514 29.5239 177.347 29.6072C177.191 29.6802 177.045 29.7635 176.909 29.8572C176.477 30.1802 176.139 30.6697 175.889 31.3364C175.816 31.5604 175.748 31.7947 175.68 32.0447C175.607 32.2843 175.54 32.5604 175.472 32.8781C175.399 33.201 175.331 33.5447 175.264 33.9197C175.191 34.2843 175.139 34.6593 175.097 35.0447C174.998 35.826 174.524 36.4093 173.68 36.7947C173.107 37.0447 172.524 37.1697 171.93 37.1697C171.331 37.1697 170.784 36.9927 170.284 36.6281C169.659 36.1697 169.347 35.5552 169.347 34.7739L169.493 27.3156C169.493 26.5812 169.706 25.9822 170.139 25.5239C170.623 24.9979 171.326 24.7322 172.243 24.7322H198.118C198.503 24.7322 198.868 24.7895 199.201 24.8989C199.534 24.9979 199.847 25.1854 200.139 25.4614C200.389 25.7114 200.56 25.9979 200.659 26.3156C200.769 26.6385 200.826 26.9718 200.826 27.3156L201.034 34.7739C201.034 35.1645 200.941 35.5187 200.764 35.8364C200.597 36.1593 200.352 36.4197 200.034 36.6281C199.534 36.9927 198.982 37.1697 198.389 37.1697C198.066 37.1697 197.753 37.1385 197.451 37.0656C197.159 36.9979 196.889 36.9093 196.639 36.7947C195.831 36.4093 195.373 35.8468 195.264 35.1072C195.014 33.4145 194.727 32.1437 194.409 31.2947C194.201 30.6593 193.889 30.1802 193.472 29.8572C193.264 29.7218 192.977 29.602 192.618 29.5031C192.269 29.3937 191.868 29.3364 191.409 29.3364H189.118V53.2531C189.159 54.0343 189.232 54.6489 189.347 55.1072C189.373 55.2062 189.415 55.3104 189.472 55.4197C189.524 55.5343 189.623 55.6385 189.764 55.7322C190.014 55.9145 190.503 56.0031 191.243 56.0031H191.555C191.691 56.0031 191.816 56.0135 191.93 56.0239C192.04 56.0395 192.165 56.0604 192.305 56.0864C192.441 56.102 192.576 56.1437 192.701 56.2114C192.826 56.2843 192.956 56.3729 193.097 56.4822C193.555 56.8312 193.816 57.451 193.889 58.3364V58.4406C193.889 59.0395 193.727 59.5656 193.409 60.0239C193.269 60.201 193.102 60.3624 192.909 60.5031C192.712 60.6385 192.498 60.7427 192.264 60.8156C192.04 60.8833 191.826 60.9197 191.618 60.9197H191.555C190.43 60.8468 189.352 60.7999 188.326 60.7739C187.31 60.7583 186.326 60.7531 185.368 60.7531C183.284 60.7531 181.097 60.8052 178.805 60.9197H178.764C177.982 60.9197 177.378 60.6177 176.951 60.0239Z" fill="black"/>
<path d="M201.993 60.0656C201.629 59.6072 201.452 59.102 201.452 58.5447V58.4406C201.452 58.4406 201.452 58.4197 201.452 58.3781C201.519 57.4614 201.874 56.8468 202.514 56.5239C202.874 56.3572 203.389 56.2739 204.056 56.2739C204.65 56.2739 205.019 56.2218 205.16 56.1072C205.269 55.9978 205.337 55.9093 205.368 55.8364C205.41 55.451 205.431 54.8312 205.431 53.9822V41.8781C205.431 41.0343 205.41 40.4145 205.368 40.0239C205.337 39.9562 205.269 39.8676 205.16 39.7531C205.019 39.6593 204.65 39.6072 204.056 39.6072C203.389 39.6072 202.837 39.4822 202.41 39.2322C201.769 38.8468 201.452 38.1697 201.452 37.2114C201.452 36.727 201.608 36.2687 201.931 35.8364C202.29 35.352 202.806 35.0551 203.473 34.9406C204.525 34.8051 205.514 34.6228 206.431 34.3989C207.348 34.1645 208.139 33.9197 208.806 33.6697L208.868 33.6072H208.91C209.546 33.4406 210.004 33.326 210.285 33.2531H210.66C211.296 33.2531 211.816 33.4926 212.223 33.9614C212.624 34.4353 212.827 34.9718 212.827 35.5656V36.0447C213.462 35.5603 214.118 35.1385 214.785 34.7739C215.243 34.4978 215.702 34.2739 216.16 34.1072C216.618 33.9301 217.077 33.7843 217.535 33.6697C217.993 33.5603 218.436 33.5031 218.868 33.5031C219.368 33.5031 219.853 33.5812 220.327 33.7322C220.796 33.8728 221.228 34.076 221.618 34.3364C222.004 34.602 222.358 34.9301 222.681 35.3156C223.098 35.8468 223.415 36.4353 223.639 37.0864C223.874 37.7426 223.993 38.4197 223.993 39.1281C223.993 40.4353 223.603 41.5812 222.827 42.5656C221.952 43.6906 220.769 44.2531 219.285 44.2531C219.046 44.2531 218.816 44.2426 218.598 44.2114C218.389 44.1697 218.181 44.1176 217.973 44.0447C217.764 43.977 217.546 43.8885 217.327 43.7739C217.327 43.7478 217.264 43.7062 217.139 43.6489C217.025 43.5968 216.941 43.5551 216.889 43.5239C216.832 43.4822 216.754 43.4301 216.66 43.3572C216.577 43.2895 216.499 43.2114 216.431 43.1281C216.358 43.0343 216.296 42.9197 216.243 42.7947C216.186 42.6697 216.144 42.5395 216.118 42.3989L216.014 41.9197L216.223 41.5031C216.264 41.3937 216.306 41.2947 216.348 41.2114C216.4 41.1281 216.441 41.076 216.473 41.0447C216.514 41.0031 216.577 40.9301 216.66 40.8156C216.754 40.7062 216.837 40.6176 216.91 40.5447C216.978 40.477 217.019 40.4197 217.035 40.3781C217.061 40.326 217.077 40.2426 217.077 40.1281C217.077 39.9926 217.061 39.8781 217.035 39.7947C217.019 39.701 217.004 39.6385 216.993 39.6072C216.978 39.5656 216.952 39.5135 216.91 39.4406C216.769 39.3728 216.644 39.3364 216.535 39.3364C216.186 39.3364 215.66 39.5656 214.952 40.0239C214.811 40.0968 214.681 40.1853 214.556 40.2947C214.431 40.3937 214.296 40.4978 214.16 40.6072C214.019 40.7062 213.874 40.8103 213.723 40.9197C213.582 41.0343 213.441 41.1489 213.306 41.2739C213.165 41.3885 213.025 41.5187 212.889 41.6697V53.9822C212.889 54.8312 212.921 55.4353 212.993 55.7947C212.993 55.8676 213.061 55.9718 213.202 56.1072C213.202 56.1072 213.233 56.1228 213.306 56.1489C213.374 56.1645 213.499 56.1906 213.681 56.2322C213.858 56.2635 214.077 56.2739 214.327 56.2739H214.639C215.191 56.2739 215.665 56.4145 216.056 56.6906C216.514 57.0395 216.775 57.6228 216.848 58.4406V58.5447C216.848 58.6853 216.837 58.8156 216.827 58.9406C216.811 59.0656 216.785 59.1906 216.743 59.3156C216.712 59.4406 216.671 59.5551 216.618 59.6697C216.561 59.7947 216.499 59.9093 216.431 60.0239C216.29 60.201 216.124 60.3624 215.931 60.5031C215.733 60.6385 215.535 60.7426 215.327 60.8156C215.118 60.8833 214.9 60.9197 214.681 60.9197H214.639C212.582 60.8051 210.749 60.7531 209.139 60.7531C208.358 60.7531 207.514 60.7583 206.598 60.7739C205.681 60.7999 204.707 60.8468 203.681 60.9197H203.618C202.952 60.9197 202.41 60.6333 201.993 60.0656Z" fill="black"/>
<path d="M226.379 59.2322C224.796 57.7895 224.004 55.9718 224.004 53.7739C224.004 51.0968 224.921 49.0656 226.754 47.6906C228.405 46.4562 230.364 45.6645 232.629 45.3156C234.421 44.9978 236.697 44.7478 239.463 44.5656V41.6697C239.463 40.9197 239.379 40.3103 239.213 39.8364C239.056 39.3676 238.822 38.9718 238.504 38.6489C238.254 38.3572 237.864 38.1281 237.338 37.9614C236.806 37.7843 236.135 37.6906 235.317 37.6906C235.036 37.6906 234.78 37.7218 234.546 37.7739C234.322 37.8312 234.109 37.9145 233.9 38.0239C233.692 38.1228 233.494 38.2426 233.317 38.3781C233.067 38.5864 232.879 38.826 232.754 39.0864C232.629 39.352 232.567 39.6801 232.567 40.0656C232.567 40.3572 232.619 40.576 232.734 40.7114C232.911 40.9926 233.109 41.2218 233.317 41.3989C233.343 41.3989 233.421 41.4197 233.546 41.4614C233.671 41.4926 233.775 41.5395 233.859 41.6072C233.952 41.6801 234.046 41.826 234.129 42.0447C234.223 42.2531 234.275 42.5187 234.275 42.8364C234.275 43.1437 234.192 43.4406 234.025 43.7322C233.869 44.0135 233.739 44.201 233.629 44.2947C233.53 44.3781 233.359 44.5031 233.109 44.6697C232.4 45.201 231.588 45.4614 230.671 45.4614C229.181 45.4614 228.004 44.9197 227.129 43.8364C226.306 42.8103 225.9 41.6072 225.9 40.2322C225.9 37.8728 226.963 36.1281 229.088 35.0031C230.921 34.0031 233.109 33.5031 235.65 33.5031C236.661 33.5031 237.629 33.5656 238.546 33.6906C239.463 33.8156 240.322 34.0239 241.129 34.3156C241.947 34.5968 242.692 34.9406 243.359 35.3572C244.135 35.8156 244.78 36.4093 245.296 37.1281C245.806 37.852 246.176 38.6645 246.4 39.5656C246.635 40.4718 246.754 41.4718 246.754 42.5656V54.8364C246.754 54.977 246.76 55.1072 246.775 55.2322C246.801 55.3572 246.838 55.477 246.879 55.5864C246.931 55.6853 246.989 55.7947 247.046 55.9197C247.098 56.0447 247.161 56.1801 247.234 56.3156C247.343 56.4562 247.452 56.5551 247.567 56.6072C247.692 56.6645 247.9 56.6906 248.192 56.6906C248.786 56.6906 249.28 56.852 249.671 57.1697C250.088 57.5603 250.296 58.1228 250.296 58.8572C250.296 59.951 249.661 60.6749 248.4 61.0239C247.619 61.2739 246.843 61.3989 246.067 61.3989C244.442 61.3989 242.994 60.9197 241.734 59.9614C241.161 59.5447 240.702 59.0551 240.359 58.4822C240.176 58.6645 239.989 58.8364 239.796 59.0031C239.598 59.1593 239.405 59.3051 239.213 59.4406C239.015 59.576 238.817 59.6958 238.609 59.7947C238.4 59.9041 238.171 60.0343 237.921 60.1906C236.223 60.9926 234.39 61.3989 232.421 61.3989C229.947 61.3989 227.931 60.6749 226.379 59.2322ZM236.754 55.1489C236.963 55.0551 237.161 54.9353 237.359 54.7947C237.551 54.6437 237.723 54.4926 237.879 54.3364C238.046 54.1697 238.197 53.9978 238.338 53.8156C238.473 53.6228 238.598 53.4145 238.713 53.1906C239.213 52.3468 239.463 51.4145 239.463 50.3989V48.7947C236.697 49.1176 234.754 49.6176 233.629 50.2947C232.53 50.9614 231.984 52.076 231.984 53.6281C231.984 54.5447 232.135 55.1593 232.442 55.4614C232.744 55.7531 233.301 55.8989 234.109 55.8989C234.609 55.8989 235.072 55.8364 235.504 55.7114C235.947 55.5864 236.364 55.3989 236.754 55.1489Z" fill="black"/>
<path d="M258.245 50.9822C258.105 50.6229 257.61 49.352 256.766 47.1697C255.943 45.0187 255.183 43.2218 254.475 41.7739H254.433V41.7114C253.902 40.5187 253.443 39.7062 253.058 39.2739C252.917 39.1802 252.714 39.0656 252.454 38.9406C252.188 38.8156 251.86 38.7322 251.475 38.6906L251.308 38.6489H251.204C251.204 38.6489 251.167 38.6437 251.1 38.6281C251.027 38.602 250.959 38.5864 250.891 38.5864C250.141 38.4927 249.631 38.1593 249.35 37.5864C249.172 37.2687 249.079 36.826 249.079 36.2531C249.079 35.8781 249.162 35.5031 249.329 35.1281C249.485 34.7531 249.777 34.4614 250.204 34.2531C250.589 34.076 251.027 33.9822 251.516 33.9822C251.834 33.9562 252.063 33.9406 252.204 33.9406C254.631 33.8312 256.579 34.201 258.037 35.0447C259.48 35.8937 260.672 37.3572 261.62 39.4406C261.662 39.5552 262.35 41.2635 263.683 44.5656C264.568 46.8312 265.334 48.7062 265.975 50.1906L267.454 46.2739L270.1 39.1697C270.167 38.9927 270.214 38.8312 270.245 38.6906C270.105 38.6645 269.964 38.6489 269.829 38.6489C269.688 38.6489 269.527 38.6489 269.35 38.6489H269.037C268.756 38.6489 268.501 38.6177 268.266 38.5447C268.042 38.477 267.808 38.352 267.558 38.1697C267.167 37.826 266.938 37.2635 266.87 36.4822V36.3781C266.87 35.9197 266.975 35.477 267.183 35.0447C267.568 34.3364 268.152 33.9822 268.933 33.9822H268.975C269.652 34.0239 270.292 34.0552 270.891 34.0656C271.485 34.0812 272.047 34.102 272.579 34.1281C273.105 34.1437 273.6 34.1489 274.058 34.1489C274.584 34.1489 275.662 34.1177 277.287 34.0447L278.391 33.9822H278.454C279.188 33.9822 279.751 34.3052 280.141 34.9406C280.433 35.3989 280.579 35.8781 280.579 36.3781V36.4822C280.495 37.2895 280.225 37.8677 279.766 38.2114C279.391 38.5031 278.917 38.6489 278.35 38.6489C277.777 38.6489 277.297 38.6906 276.912 38.7739C276.521 38.8572 276.225 38.9562 276.016 39.0656C275.558 39.3468 275.131 39.9614 274.745 40.9197C274.329 42.0447 273.672 43.6854 272.787 45.8364C272.079 47.602 271.214 49.7218 270.204 52.1906C269.839 53.1072 269.464 54.0812 269.079 55.1072C268.688 56.1229 268.396 56.9197 268.204 57.5031C268.021 58.0864 267.808 58.6645 267.558 59.2322C267.308 59.7843 267.068 60.2166 266.85 60.5239C266.641 60.826 266.396 61.0291 266.12 61.1281L265.85 61.2947H262.475L262.1 60.5447C261.183 58.5447 259.896 55.3572 258.245 50.9822Z" fill="black"/>
<path d="M286.278 59.5031C284.236 58.2687 282.684 56.5551 281.632 54.3572C280.575 52.2478 280.049 49.8989 280.049 47.3156C280.049 45.0239 280.575 42.826 281.632 40.7114C282.726 38.5864 284.262 36.8572 286.236 35.5239C288.247 34.1801 290.559 33.5031 293.174 33.5031C296.658 33.5031 299.372 34.4197 301.32 36.2531C303.247 38.102 304.361 40.5603 304.653 43.6281V43.7322C304.653 45.3468 304.137 46.5031 303.111 47.2114C302.262 47.7843 301.096 48.0656 299.611 48.0656H288.132C288.268 50.4718 288.851 52.3728 289.882 53.7739C290.976 55.3312 292.726 56.1072 295.132 56.1072C295.367 56.1072 295.611 56.102 295.861 56.0864C296.111 56.0603 296.346 56.0239 296.57 55.9822C296.804 55.9301 297.018 55.8728 297.215 55.8156C297.408 55.7635 297.59 55.6906 297.757 55.6072C297.934 55.5239 298.117 55.4301 298.299 55.3156C299.174 54.7895 300.033 53.8364 300.882 52.4614L300.945 52.2947L301.049 52.1906C301.257 52.0135 301.486 51.8676 301.736 51.7531C301.986 51.6281 302.247 51.5656 302.528 51.5656C302.637 51.5656 302.762 51.5864 302.903 51.6281C303.038 51.6593 303.174 51.6906 303.299 51.7322C303.424 51.7635 303.533 51.8051 303.632 51.8572C303.742 51.8989 303.83 51.9406 303.903 51.9822C304.653 52.4718 305.028 53.1593 305.028 54.0447C305.028 54.2531 304.997 54.4562 304.945 54.6489C304.887 54.8468 304.804 55.0447 304.695 55.2531C304.096 56.1697 303.408 57.0187 302.632 57.7947C301.851 58.576 301.007 59.227 300.09 59.7531C298.226 60.8468 296.111 61.3989 293.736 61.3989C290.846 61.3989 288.361 60.7635 286.278 59.5031ZM295.382 43.3989C296.018 43.3989 296.424 43.3312 296.59 43.1906C296.768 43.0551 296.882 42.8103 296.924 42.4614C296.924 42.2426 296.908 42.0447 296.882 41.8781C296.867 41.701 296.84 41.5239 296.799 41.3572C296.768 41.1801 296.736 41.0135 296.695 40.8572C296.663 40.6906 296.622 40.5395 296.57 40.3989C296.528 40.2478 296.465 40.102 296.382 39.9614C296.309 39.826 296.236 39.6906 296.153 39.5656C296.07 39.4406 295.971 39.3103 295.861 39.1697C295.538 38.7843 295.163 38.4926 294.736 38.2947C294.32 38.102 293.799 38.0031 293.174 38.0031C291.783 38.0031 290.632 38.5551 289.715 39.6489C288.976 40.6072 288.486 41.8572 288.236 43.3989H295.382Z" fill="black"/>
<path d="M306.176 60.0656C305.827 59.6072 305.655 59.102 305.655 58.5447V58.4406C305.728 57.5239 306.041 56.9093 306.614 56.5864C306.999 56.3781 307.53 56.2739 308.197 56.2739C308.791 56.2739 309.16 56.2218 309.301 56.1072C309.437 55.9718 309.509 55.8677 309.509 55.7947C309.577 55.4354 309.614 54.8312 309.614 53.9822V28.1697C309.614 27.7427 309.603 27.3729 309.593 27.0656C309.577 26.7479 309.572 26.4979 309.572 26.3156L309.364 26.0447C309.223 25.951 308.848 25.8989 308.239 25.8989C307.572 25.8989 307.03 25.7739 306.614 25.5239C305.973 25.1385 305.655 24.4614 305.655 23.5031C305.655 23.0187 305.812 22.5604 306.134 22.1281C306.478 21.6437 306.989 21.3468 307.655 21.2322C309.78 20.9562 311.582 20.5343 313.072 19.9614C313.374 19.826 313.655 19.727 313.905 19.6697C314.155 19.6177 314.384 19.576 314.593 19.5447H314.905C315.541 19.5447 316.062 19.7843 316.468 20.2531C316.884 20.727 317.093 21.2687 317.093 21.8781V53.9822C317.093 54.8312 317.124 55.4354 317.197 55.7947L317.405 56.1072C317.405 56.1072 317.437 56.1229 317.509 56.1489C317.577 56.1645 317.697 56.1906 317.864 56.2322C318.041 56.2635 318.259 56.2739 318.509 56.2739H318.822C319.39 56.2739 319.869 56.4145 320.259 56.6906C320.718 57.0395 320.978 57.6229 321.051 58.4406V58.5447C321.051 58.6177 321.051 58.6854 321.051 58.7531C321.051 58.826 321.041 58.8937 321.03 58.9614C321.015 59.0343 320.994 59.102 320.968 59.1697C320.952 59.2427 320.931 59.3156 320.905 59.3989C320.89 59.4666 320.864 59.5343 320.822 59.6072C320.791 59.6749 320.759 59.7427 320.718 59.8156C320.687 59.8833 320.66 59.951 320.634 60.0239C320.494 60.201 320.327 60.3624 320.134 60.5031C319.937 60.6385 319.728 60.7427 319.509 60.8156C319.301 60.8833 319.093 60.9197 318.884 60.9197H318.822C316.78 60.8052 314.947 60.7531 313.322 60.7531C312.541 60.7531 311.697 60.7583 310.78 60.7739C309.864 60.7999 308.895 60.8468 307.884 60.9197H307.822C307.114 60.9197 306.562 60.6333 306.176 60.0656Z" fill="black"/>
<path d="M325.706 59.6489C323.342 58.0968 322.165 55.8364 322.165 52.8781C322.165 51.227 322.727 49.852 323.852 48.7531C324.988 47.701 326.441 47.1697 328.206 47.1697C328.55 47.1697 328.873 47.2062 329.165 47.2739C329.467 47.3468 329.769 47.451 330.061 47.5864C330.363 47.727 330.628 47.8989 330.852 48.1072C331.196 48.3989 331.467 48.7062 331.665 49.0239C331.858 49.3312 331.956 49.701 331.956 50.1281C331.956 50.3364 331.936 50.5343 331.894 50.7114C331.863 50.8937 331.816 51.0395 331.748 51.1489C331.675 51.2479 331.592 51.3312 331.498 51.3989C331.415 51.4718 331.321 51.5187 331.227 51.5447C331.144 51.5604 331.071 51.576 331.019 51.5864C330.977 51.602 330.925 51.6072 330.873 51.6072C330.816 51.6072 330.79 51.6072 330.79 51.6072C330.608 51.7479 330.436 51.9406 330.269 52.1906C330.113 52.3989 330.04 52.7322 330.04 53.1906C330.04 54.4718 330.394 55.4197 331.102 56.0447C331.878 56.727 333.149 57.0656 334.915 57.0656C336.149 57.0656 337.227 56.8364 338.144 56.3781C338.988 55.9197 339.644 55.3156 340.102 54.5656C340.561 53.8729 340.79 53.1385 340.79 52.3572C340.79 51.3989 340.524 50.5656 339.998 49.8572C339.358 49.0812 338.581 48.4302 337.665 47.8989C337.175 47.6229 336.581 47.3104 335.873 46.9614C335.165 46.602 334.373 46.227 333.498 45.8364C331.3 44.852 329.54 43.9562 328.206 43.1489C326.748 42.3052 325.509 41.1593 324.498 39.7114C323.399 38.1854 322.852 36.3312 322.852 34.1489C322.852 32.4145 323.154 30.8781 323.769 29.5447C324.394 28.201 325.321 27.0864 326.561 26.2114C327.727 25.3677 329.066 24.7322 330.581 24.3156C332.092 23.8885 333.769 23.6697 335.602 23.6697C338.529 23.6697 341.087 24.2895 343.269 25.5239C345.712 26.8989 346.936 28.951 346.936 31.6697C346.936 33.326 346.363 34.701 345.227 35.7947C344.837 36.1437 344.415 36.4354 343.956 36.6697C343.498 36.8937 343.019 37.0656 342.519 37.1906C342.029 37.3156 341.488 37.3781 340.894 37.3781C339.769 37.3364 338.884 37.0187 338.248 36.4197C337.509 35.7843 337.144 35.1177 337.144 34.4197C337.144 33.8781 337.259 33.477 337.498 33.2114C337.748 32.951 337.998 32.8156 338.248 32.8156H338.623C338.941 32.6802 339.227 32.4822 339.477 32.2322C339.613 32.0656 339.686 31.7687 339.686 31.3364C339.686 30.8781 339.602 30.4979 339.436 30.1906C339.279 29.8729 339.045 29.5864 338.727 29.3364C338.337 29.0447 337.894 28.8312 337.394 28.6906C336.904 28.5552 336.331 28.4822 335.665 28.4822C334.706 28.4822 333.899 28.5968 333.248 28.8156C332.592 29.0239 332.061 29.3052 331.644 29.6489C331.212 30.0395 330.899 30.4562 330.706 30.8989C330.509 31.3312 330.415 31.8312 330.415 32.3989C330.415 33.3156 330.644 34.076 331.102 34.6697C331.67 35.352 332.623 36.0604 333.956 36.7947C334.342 37.0031 334.738 37.2062 335.144 37.3989C335.561 37.5968 335.983 37.8052 336.415 38.0239C336.858 38.2322 337.311 38.4406 337.769 38.6489C338.936 39.1802 339.977 39.6802 340.894 40.1489C341.811 40.6229 342.623 41.0864 343.331 41.5447C344.816 42.5031 346.05 43.7427 347.04 45.2531C348.092 46.8781 348.623 48.8364 348.623 51.1281C348.623 53.2114 347.967 55.0812 346.665 56.7322C345.425 58.3312 343.753 59.5864 341.644 60.5031C339.811 61.3052 337.795 61.7427 335.602 61.8156C335.394 61.8156 335.165 61.8156 334.915 61.8156C330.967 61.8156 327.899 61.0916 325.706 59.6489Z" fill="black"/>
<path d="M352.588 59.2322C351.005 57.7895 350.213 55.9718 350.213 53.7739C350.213 51.0968 351.13 49.0656 352.963 47.6906C354.614 46.4562 356.573 45.6645 358.838 45.3156C360.63 44.9978 362.906 44.7478 365.672 44.5656V41.6697C365.672 40.9197 365.588 40.3103 365.422 39.8364C365.265 39.3676 365.031 38.9718 364.713 38.6489C364.463 38.3572 364.073 38.1281 363.547 37.9614C363.015 37.7843 362.343 37.6906 361.526 37.6906C361.245 37.6906 360.989 37.7218 360.755 37.7739C360.531 37.8312 360.317 37.9145 360.109 38.0239C359.901 38.1228 359.703 38.2426 359.526 38.3781C359.276 38.5864 359.088 38.826 358.963 39.0864C358.838 39.352 358.776 39.6801 358.776 40.0656C358.776 40.3572 358.828 40.576 358.942 40.7114C359.12 40.9926 359.317 41.2218 359.526 41.3989C359.552 41.3989 359.63 41.4197 359.755 41.4614C359.88 41.4926 359.984 41.5395 360.067 41.6072C360.161 41.6801 360.255 41.826 360.338 42.0447C360.432 42.2531 360.484 42.5187 360.484 42.8364C360.484 43.1437 360.401 43.4406 360.234 43.7322C360.078 44.0135 359.948 44.201 359.838 44.2947C359.739 44.3781 359.567 44.5031 359.317 44.6697C358.609 45.201 357.797 45.4614 356.88 45.4614C355.39 45.4614 354.213 44.9197 353.338 43.8364C352.515 42.8103 352.109 41.6072 352.109 40.2322C352.109 37.8728 353.172 36.1281 355.297 35.0031C357.13 34.0031 359.317 33.5031 361.859 33.5031C362.87 33.5031 363.838 33.5656 364.755 33.6906C365.672 33.8156 366.531 34.0239 367.338 34.3156C368.156 34.5968 368.901 34.9406 369.567 35.3572C370.343 35.8156 370.989 36.4093 371.505 37.1281C372.015 37.852 372.385 38.6645 372.609 39.5656C372.843 40.4718 372.963 41.4718 372.963 42.5656V54.8364C372.963 54.977 372.968 55.1072 372.984 55.2322C373.01 55.3572 373.047 55.477 373.088 55.5864C373.14 55.6853 373.198 55.7947 373.255 55.9197C373.307 56.0447 373.37 56.1801 373.442 56.3156C373.552 56.4562 373.661 56.5551 373.776 56.6072C373.901 56.6645 374.109 56.6906 374.401 56.6906C374.995 56.6906 375.489 56.852 375.88 57.1697C376.297 57.5603 376.505 58.1228 376.505 58.8572C376.505 59.951 375.87 60.6749 374.609 61.0239C373.828 61.2739 373.052 61.3989 372.276 61.3989C370.651 61.3989 369.203 60.9197 367.942 59.9614C367.37 59.5447 366.911 59.0551 366.567 58.4822C366.385 58.6645 366.198 58.8364 366.005 59.0031C365.807 59.1593 365.614 59.3051 365.422 59.4406C365.224 59.576 365.026 59.6958 364.817 59.7947C364.609 59.9041 364.38 60.0343 364.13 60.1906C362.432 60.9926 360.599 61.3989 358.63 61.3989C356.156 61.3989 354.14 60.6749 352.588 59.2322ZM362.963 55.1489C363.172 55.0551 363.37 54.9353 363.567 54.7947C363.76 54.6437 363.932 54.4926 364.088 54.3364C364.255 54.1697 364.406 53.9978 364.547 53.8156C364.682 53.6228 364.807 53.4145 364.922 53.1906C365.422 52.3468 365.672 51.4145 365.672 50.3989V48.7947C362.906 49.1176 360.963 49.6176 359.838 50.2947C358.739 50.9614 358.192 52.076 358.192 53.6281C358.192 54.5447 358.343 55.1593 358.651 55.4614C358.953 55.7531 359.51 55.8989 360.317 55.8989C360.817 55.8989 361.281 55.8364 361.713 55.7114C362.156 55.5864 362.573 55.3989 362.963 55.1489Z" fill="black"/>
<path d="M382.288 59.3364C380.798 57.826 380.058 55.7062 380.058 52.9822V38.7947L378.308 38.8572C378.1 38.8572 377.881 38.826 377.663 38.7531C377.454 38.6853 377.267 38.5864 377.1 38.4614C376.944 38.3364 376.819 38.1853 376.725 38.0031C376.611 37.8676 376.522 37.7218 376.454 37.5656C376.381 37.3989 376.329 37.2426 376.288 37.0864C376.256 36.9197 376.246 36.7531 376.246 36.5864C376.246 36.0603 376.35 35.5812 376.558 35.1489C376.876 34.5551 377.371 34.1853 378.038 34.0447C379.064 33.8364 379.84 33.5395 380.371 33.1489C380.897 32.7218 381.288 32.2739 381.538 31.8156C381.605 31.6072 381.689 31.3728 381.788 31.1072C381.897 30.8468 382.022 30.5239 382.163 30.1489C382.314 29.7739 382.46 29.3572 382.6 28.8989C382.736 28.5968 382.939 28.3156 383.204 28.0656C383.465 27.8156 383.756 27.6437 384.079 27.5447C384.397 27.4353 384.715 27.3781 385.038 27.3781C385.496 27.3781 385.933 27.4822 386.35 27.6906C387.085 28.0812 387.454 28.6645 387.454 29.4406V29.5447L387.204 34.0447L391.913 33.7739H392.058C392.736 33.7739 393.246 34.0239 393.579 34.5239C393.913 35.0135 394.079 35.5395 394.079 36.1072C394.079 36.6385 393.986 37.1489 393.808 37.6489C393.46 38.5656 392.897 39.0239 392.121 39.0239L387.517 38.8989V53.6281C387.517 54.5447 387.689 55.2843 388.038 55.8364C388.256 56.201 388.668 56.3781 389.267 56.3781C389.725 56.3781 390.147 56.3468 390.538 56.2739C390.923 56.2062 391.293 56.0812 391.642 55.8989H391.704C392.298 55.6489 392.736 55.5239 393.017 55.5239C393.335 55.5239 393.642 55.6072 393.933 55.7739C394.236 55.9301 394.48 56.1281 394.663 56.3781C394.871 56.6176 395.064 56.951 395.246 57.3781C395.246 57.3781 395.293 57.6437 395.392 58.1697C395.392 58.7426 395.126 59.2322 394.6 59.6489L394.558 59.7114L394.496 59.7531C393.329 60.5031 392.236 61.0135 391.225 61.2947C390.194 61.5447 389.017 61.6697 387.683 61.6697C385.558 61.6697 383.756 60.8885 382.288 59.3364Z" fill="black"/>
<path d="M397.26 60.0656C396.896 59.6072 396.718 59.102 396.718 58.5447V58.4406C396.718 58.4406 396.718 58.4197 396.718 58.3781C396.786 57.4614 397.14 56.8468 397.781 56.5239C398.14 56.3572 398.656 56.2739 399.323 56.2739C399.916 56.2739 400.286 56.2218 400.427 56.1072C400.536 55.9979 400.604 55.9093 400.635 55.8364C400.677 55.451 400.698 54.8312 400.698 53.9822V41.8781C400.698 41.0343 400.677 40.4145 400.635 40.0239C400.604 39.9562 400.536 39.8676 400.427 39.7531C400.286 39.6593 399.916 39.6072 399.323 39.6072C398.656 39.6072 398.104 39.4822 397.677 39.2322C397.036 38.8468 396.718 38.1697 396.718 37.2114C396.718 36.727 396.875 36.2687 397.198 35.8364C397.375 35.5864 397.604 35.3885 397.885 35.2322C398.177 35.0812 398.458 34.9822 398.739 34.9406C400.849 34.6645 402.646 34.2426 404.135 33.6697C404.453 33.5343 404.729 33.4354 404.968 33.3781C405.218 33.326 405.453 33.2843 405.677 33.2531H405.989C406.625 33.2531 407.146 33.4926 407.552 33.9614C407.953 34.4354 408.156 34.9718 408.156 35.5656V53.9822C408.156 54.8312 408.187 55.4354 408.26 55.7947C408.26 55.8676 408.328 55.9718 408.468 56.1072C408.468 56.1072 408.5 56.1229 408.573 56.1489C408.64 56.1645 408.765 56.1906 408.948 56.2322C409.125 56.2635 409.343 56.2739 409.593 56.2739H409.906C410.458 56.2739 410.932 56.4145 411.323 56.6906C411.781 57.0395 412.041 57.6229 412.114 58.4406V58.5447C412.114 58.6854 412.104 58.8156 412.093 58.9406C412.078 59.0656 412.052 59.1906 412.01 59.3156C411.979 59.4406 411.937 59.5551 411.885 59.6697C411.828 59.7947 411.765 59.9093 411.698 60.0239C411.557 60.201 411.39 60.3624 411.198 60.5031C411 60.6385 410.802 60.7426 410.593 60.8156C410.385 60.8833 410.166 60.9197 409.948 60.9197H409.906C407.849 60.8051 406.015 60.7531 404.406 60.7531C403.625 60.7531 402.781 60.7583 401.864 60.7739C400.948 60.7999 399.974 60.8468 398.948 60.9197H398.885C398.218 60.9197 397.677 60.6333 397.26 60.0656ZM400.76 28.7531C399.802 27.8676 399.323 26.7687 399.323 25.4614C399.323 25.1437 399.364 24.8364 399.448 24.5447C399.541 24.2426 399.661 23.951 399.802 23.6697C399.937 23.3937 400.114 23.1437 400.323 22.9197C400.541 22.6854 400.791 22.4562 401.073 22.2322C401.573 21.8468 402.125 21.5447 402.739 21.3364C403.364 21.1281 403.989 21.0239 404.614 21.0239C405 21.0239 405.39 21.0812 405.781 21.1906C406.166 21.2895 406.531 21.4354 406.864 21.6281C407.198 21.826 407.489 22.0812 407.739 22.3989C408.557 23.2479 408.968 24.326 408.968 25.6281C408.968 26.8676 408.489 27.9197 407.531 28.7947C406.614 29.6176 405.479 30.0239 404.135 30.0239C402.802 30.0239 401.677 29.602 400.76 28.7531Z" fill="black"/>
<path d="M419.382 59.5031C418.841 59.1853 418.341 58.8364 417.882 58.4614C417.424 58.0864 416.992 57.6906 416.591 57.2739C416.184 56.8468 415.82 56.3937 415.486 55.9197C415.153 55.451 414.841 54.9614 414.549 54.4614C413.393 52.352 412.82 50.1281 412.82 47.7947C412.82 44.9093 413.507 42.3676 414.882 40.1697C416.216 38.0343 417.934 36.3885 420.049 35.2322C422.174 34.0812 424.309 33.5031 426.466 33.5031C427.768 33.5031 429.018 33.6645 430.216 33.9822C431.424 34.3051 432.533 34.7843 433.549 35.4197C435.632 36.6853 437.242 38.3728 438.382 40.4822C439.533 42.5812 440.111 44.7895 440.111 47.1072C440.111 49.9978 439.424 52.5395 438.049 54.7322C436.674 56.8885 434.924 58.5343 432.799 59.6697C430.684 60.8208 428.575 61.3989 426.466 61.3989C423.809 61.3989 421.45 60.7635 419.382 59.5031ZM430.591 54.4197C430.768 54.0603 430.934 53.6801 431.091 53.2739C431.257 52.8728 431.393 52.4406 431.507 51.9822C431.632 51.5239 431.736 51.0395 431.82 50.5239C431.913 50.0135 431.976 49.4614 432.007 48.8781C432.049 48.2947 432.07 47.7062 432.07 47.1072C432.07 44.3312 431.559 42.076 430.549 40.3364C429.658 38.852 428.299 38.1072 426.466 38.1072C425.434 38.1072 424.596 38.2947 423.945 38.6697C423.288 39.0447 422.757 39.6385 422.341 40.4406C422.018 41.0395 421.747 41.701 421.528 42.4197C421.32 43.1437 421.153 43.951 421.028 44.8364C420.913 45.7114 420.861 46.6645 420.861 47.6906C420.861 50.4822 421.367 52.7635 422.382 54.5239C422.841 55.3051 423.387 55.8781 424.028 56.2531C424.663 56.6176 425.476 56.7947 426.466 56.7947C427.132 56.7947 427.705 56.7114 428.195 56.5447C428.695 56.3676 429.137 56.1072 429.528 55.7739C429.913 55.4301 430.268 54.977 430.591 54.4197Z" fill="black"/>
<path d="M441.923 60.0656C441.558 59.6072 441.381 59.102 441.381 58.5447V58.4406C441.381 58.4406 441.381 58.4197 441.381 58.3781C441.449 57.4614 441.803 56.8468 442.444 56.5239C442.803 56.3572 443.319 56.2739 443.985 56.2739C444.579 56.2739 444.949 56.2218 445.089 56.1072C445.199 55.9978 445.267 55.9093 445.298 55.8364C445.339 55.451 445.36 54.8312 445.36 53.9822V41.8781C445.36 41.0343 445.339 40.4145 445.298 40.0239C445.267 39.9562 445.199 39.8676 445.089 39.7531C444.949 39.6593 444.579 39.6072 443.985 39.6072C443.319 39.6072 442.767 39.4822 442.339 39.2322C441.699 38.8468 441.381 38.1697 441.381 37.2114C441.381 36.727 441.537 36.2687 441.86 35.8364C442.22 35.352 442.735 35.0551 443.402 34.9406C444.454 34.8051 445.444 34.6228 446.36 34.3989C447.277 34.1645 448.069 33.9197 448.735 33.6697L448.798 33.6072H448.839C449.475 33.4406 449.933 33.326 450.214 33.2531H450.589C451.225 33.2531 451.746 33.4926 452.152 33.9614C452.553 34.4353 452.756 34.9718 452.756 35.5656V36.1072C452.798 36.0656 452.845 36.0343 452.902 36.0031C452.954 35.9614 452.996 35.9301 453.027 35.8989C453.069 35.8572 453.1 35.826 453.131 35.7947C453.173 35.7531 453.204 35.7218 453.235 35.6906C453.527 35.4718 453.819 35.2739 454.11 35.1072C454.412 34.9301 454.72 34.7635 455.027 34.6072C455.345 34.4406 455.699 34.2895 456.089 34.1489C456.657 33.9406 457.282 33.7843 457.964 33.6697C458.657 33.5603 459.371 33.5031 460.11 33.5031C462.902 33.5031 465.131 34.3728 466.798 36.1072C468.449 37.8051 469.277 40.0031 469.277 42.7114V53.9822C469.277 54.4145 469.282 54.7895 469.298 55.1072C469.308 55.4301 469.339 55.6593 469.381 55.7947L469.589 56.1072C469.725 56.2218 470.095 56.2739 470.694 56.2739H471.027C471.579 56.2739 472.053 56.4145 472.444 56.6906C472.662 56.8728 472.829 57.0864 472.944 57.3364C473.069 57.576 473.136 57.7478 473.152 57.8572C473.178 57.9562 473.204 58.1489 473.235 58.4406V58.5447C473.235 59.102 473.058 59.6072 472.714 60.0656C472.298 60.6333 471.746 60.9197 471.069 60.9197H471.027C469.996 60.8468 469.027 60.7999 468.11 60.7739C467.194 60.7583 466.329 60.7531 465.527 60.7531C464.746 60.7531 463.902 60.7583 462.985 60.7739C462.069 60.7999 461.095 60.8468 460.069 60.9197H460.006C459.339 60.9197 458.777 60.6333 458.319 60.0656C457.996 59.6072 457.839 59.102 457.839 58.5447V58.4406C457.907 57.5239 458.225 56.9093 458.798 56.5864C459.183 56.3781 459.714 56.2739 460.381 56.2739C460.631 56.2739 460.839 56.2635 461.006 56.2322C461.183 56.1906 461.308 56.1645 461.381 56.1489C461.464 56.1228 461.506 56.1072 461.506 56.1072C461.642 55.9718 461.714 55.8676 461.714 55.7947C461.782 55.4353 461.819 54.8312 461.819 53.9822V42.7739C461.819 41.5812 461.464 40.6801 460.756 40.0656C459.975 39.3989 459.074 39.0656 458.048 39.0656C457.449 39.0656 456.902 39.1281 456.402 39.2531C455.912 39.3781 455.464 39.5447 455.048 39.7531C454.975 39.7947 454.923 39.8364 454.881 39.8781C454.839 39.9093 454.787 39.9301 454.735 39.9406C454.694 39.9562 454.652 39.9822 454.61 40.0239C453.761 40.5812 453.162 41.1645 452.819 41.7739V53.9822C452.819 54.8312 452.85 55.4353 452.923 55.7947C452.923 55.8676 452.99 55.9718 453.131 56.1072C453.131 56.1072 453.162 56.1228 453.235 56.1489C453.303 56.1645 453.428 56.1906 453.61 56.2322C453.787 56.2635 454.006 56.2739 454.256 56.2739H454.569C455.121 56.2739 455.595 56.4145 455.985 56.6906C456.444 57.0395 456.704 57.6228 456.777 58.4406V58.5447C456.777 58.6853 456.767 58.8156 456.756 58.9406C456.74 59.0656 456.714 59.1906 456.673 59.3156C456.642 59.4406 456.6 59.5551 456.548 59.6697C456.49 59.7947 456.428 59.9093 456.36 60.0239C456.22 60.201 456.053 60.3624 455.86 60.5031C455.662 60.6385 455.464 60.7426 455.256 60.8156C455.048 60.8833 454.829 60.9197 454.61 60.9197H454.569C452.511 60.8051 450.678 60.7531 449.069 60.7531C448.287 60.7531 447.444 60.7583 446.527 60.7739C445.61 60.7999 444.636 60.8468 443.61 60.9197H443.548C442.881 60.9197 442.339 60.6333 441.923 60.0656Z" fill="black"/>
</svg>
